<svg width="46" height="46" viewBox="0 0 46 46" fill="none" xmlns="http://www.w3.org/2000/svg">
<path d="M9.83333 13.4167H11.75C12.7667 13.4167 13.7417 13.0128 14.4606 12.2939C15.1795 11.575 15.5833 10.6 15.5833 9.58333C15.5833 9.075 15.7853 8.58749 16.1447 8.22804C16.5042 7.8686 16.9917 7.66666 17.5 7.66666H29C29.5083 7.66666 29.9958 7.8686 30.3553 8.22804C30.7147 8.58749 30.9167 9.075 30.9167 9.58333C30.9167 10.6 31.3205 11.575 32.0394 12.2939C32.7583 13.0128 33.7333 13.4167 34.75 13.4167H36.6667C37.6833 13.4167 38.6584 13.8205 39.3772 14.5394C40.0961 15.2583 40.5 16.2333 40.5 17.25V34.5C40.5 35.5167 40.0961 36.4917 39.3772 37.2106C38.6584 37.9295 37.6833 38.3333 36.6667 38.3333H9.83333C8.81667 38.3333 7.84165 37.9295 7.12276 37.2106C6.40387 36.4917 6 35.5167 6 34.5V17.25C6 16.2333 6.40387 15.2583 7.12276 14.5394C7.84165 13.8205 8.81667 13.4167 9.83333 13.4167Z" stroke="white" stroke-width="3" stroke-linecap="round" stroke-linejoin="round"/>
<path d="M17.5 24.9167C17.5 26.4417 18.1058 27.9042 19.1841 28.9825C20.2625 30.0609 21.725 30.6667 23.25 30.6667C24.775 30.6667 26.2375 30.0609 27.3159 28.9825C28.3942 27.9042 29 26.4417 29 24.9167C29 23.3917 28.3942 21.9291 27.3159 20.8508C26.2375 19.7725 24.775 19.1667 23.25 19.1667C21.725 19.1667 20.2625 19.7725 19.1841 20.8508C18.1058 21.9291 17.5 23.3917 17.5 24.9167Z" stroke="white" stroke-width="3" stroke-linecap="round" stroke-linejoin="round"/>
</svg>
