<svg width="647" height="406" viewBox="0 0 647 406" fill="none" xmlns="http://www.w3.org/2000/svg">
<path d="M524.316 404.374C524.316 404.374 588.347 402.897 615.708 364.972C665.276 296.287 642.937 236.055 554.692 240.536C455.972 245.552 468.147 32.635 297.212 135.147C260.095 157.408 177.485 110.659 144.482 208.055C136.643 231.223 77.7026 232.828 39.6135 251.404C-20.1377 280.539 -3.26461 404.861 53.1815 405.351C109.628 405.841 524.316 404.374 524.316 404.374Z" fill="#EBF2F9"/>
<path d="M224.211 85.3257H221.145V57.9607L220.183 57.8771V47.0088L220.463 46.1081L86.4451 6.66406L30.4953 43.5412L31.0344 44.3213C30.16 44.3239 29.3222 44.6644 28.7039 45.2685C28.0856 45.8726 27.737 46.6911 27.7344 47.5454V66.3457C27.737 67.2 28.0856 68.0185 28.7039 68.6226C29.3222 69.2266 30.16 69.5671 31.0344 69.5697H59.0748C59.9492 69.5671 60.7871 69.2266 61.4054 68.6226C62.0237 68.0185 62.3722 67.2 62.3749 66.3457V58.8246H81.0693V404.766H103.064V58.8246H193.536L218.745 85.3257H213.573C212.698 85.3283 211.861 85.6688 211.242 86.2729C210.624 86.8769 210.275 87.6954 210.273 88.5497V91.7713C210.275 92.6258 210.623 93.4447 211.242 94.0489C211.86 94.6531 212.698 94.9934 213.573 94.9953H224.201C225.076 94.9934 225.914 94.6531 226.532 94.0489C227.151 93.4447 227.499 92.6258 227.501 91.7713V88.5497C227.498 87.6971 227.151 86.8801 226.535 86.2763C225.919 85.6725 225.084 85.3309 224.211 85.3257V85.3257ZM86.7626 8.72154L216.848 47.0088H62.3245C62.1934 46.2588 61.7956 45.578 61.2011 45.0863C60.6067 44.5947 59.8537 44.3238 59.0748 44.3213H32.755L86.7626 8.72154ZM209.26 58.8246L219.221 59.686V83.0664L196.163 58.8369L209.26 58.8246Z" fill="#D2E4FF"/>
<path d="M173.872 404.71H77.1094C81.7698 401.351 98.4942 389.634 113.637 383.299C119.914 380.678 125.92 378.982 130.684 379.191C145.798 379.873 166.977 398.331 173.872 404.71Z" fill="#E27F2B"/>
<path d="M143.11 404.711H46.3477C52.9377 399.958 83.666 378.488 99.927 379.199C104.169 379.386 108.89 380.976 113.639 383.306C125.803 389.277 138.15 400.116 143.11 404.711Z" fill="#E69D43"/>
<path d="M611.247 105.089L611.617 104.555L573.241 79.2598L481.31 106.315L481.489 106.937V114.397L480.829 114.453V133.222H478.728C478.127 133.222 477.55 133.455 477.125 133.871C476.7 134.286 476.461 134.849 476.461 135.437V137.652C476.461 138.239 476.7 138.803 477.125 139.218C477.55 139.633 478.127 139.867 478.728 139.867H486.024C486.625 139.867 487.202 139.633 487.627 139.218C488.052 138.803 488.291 138.239 488.291 137.652V135.437C488.291 134.849 488.052 134.286 487.627 133.871C487.202 133.455 486.625 133.222 486.024 133.222H482.474L499.775 115.044H561.849V352.341H576.936V115.039H589.759V120.208C589.759 120.795 589.998 121.358 590.423 121.774C590.848 122.189 591.425 122.423 592.026 122.423H611.262C611.863 122.423 612.44 122.189 612.865 121.774C613.29 121.358 613.529 120.795 613.529 120.208V107.311C613.53 107.019 613.472 106.729 613.357 106.458C613.243 106.187 613.075 105.942 612.862 105.735C612.65 105.528 612.398 105.365 612.121 105.254C611.844 105.143 611.546 105.087 611.247 105.089V105.089ZM573.022 80.67L610.068 105.089H592.011C591.477 105.091 590.961 105.277 590.553 105.614C590.146 105.951 589.873 106.418 589.784 106.932H483.789L573.022 80.67ZM482.159 131.659V115.63L488.994 115.039H497.977L482.159 131.659Z" fill="#EBF2F9"/>
<path d="M429.264 19.2246H302.34V405.085H429.264V19.2246Z" fill="#D2E4FF"/>
<path opacity="0.5" d="M394.207 72.4668H302.34V128.996H394.207V72.4668Z" fill="#AED3FF"/>
<path opacity="0.5" d="M394.207 175.979H302.34V232.507H394.207V175.979Z" fill="#AED3FF"/>
<path opacity="0.5" d="M394.207 278.156H302.34V334.685H394.207V278.156Z" fill="#AED3FF"/>
<path d="M587.487 334.321H570.36V282.05H429.263V19.2246H394.207V405.304H429.263V405.088H570.36H587.487V334.321Z" fill="#AED3FF"/>
<path d="M455.5 404.769C455.5 404.769 455.752 399.428 457.218 396.563C458.684 393.699 470.413 395.668 470.413 395.668C470.413 395.668 473.116 400.447 472.751 404.744L455.5 404.769Z" fill="#233862"/>
<path d="M424.023 404.769C424.023 404.769 424.275 399.428 425.741 396.563C427.208 393.699 438.939 395.668 438.939 395.668C438.939 395.668 441.642 400.447 441.274 404.744L424.023 404.769Z" fill="#233862"/>
<path d="M463.101 178.099C461.637 179.138 448.374 185.901 448.374 185.901L434.383 176.158C434.383 176.158 438.633 175.555 438.743 175.523C440.003 175.178 439.948 171.873 440.109 168.351C440.131 167.807 440.162 167.261 440.205 166.717L453.898 166.225V166.389C453.912 166.554 453.925 166.731 453.936 166.921L453.964 167.303C453.964 167.435 453.984 167.566 453.994 167.704C454.246 170.797 454.77 175.168 455.783 175.678C456.372 175.975 460.269 175.931 463.101 178.099Z" fill="#D9935C"/>
<path d="M454.009 167.711C452.88 169.926 450.364 173.763 446.633 173.637C443.071 173.512 441.043 170.349 440.113 168.351C440.136 167.807 440.166 167.261 440.209 166.717L453.903 166.225V166.389L453.941 166.921L453.968 167.303C453.989 167.443 453.999 167.573 454.009 167.711Z" fill="#CB7D45"/>
<path d="M438.578 136.892C438.578 136.892 445.183 130.466 452.977 137.022C452.977 137.022 448.342 136.082 438.578 136.892Z" fill="#2B478B"/>
<path d="M436.13 160.528C434.729 157.578 433.597 154.514 432.747 151.37C431.825 147.851 432.669 134.502 446.408 135.407C449.174 135.578 451.866 136.352 454.285 137.674C457.384 139.397 461.966 143.298 458.089 155.177L457.152 159.164L436.13 160.528Z" fill="#B64C41"/>
<path d="M455.348 166.135C451.801 169.447 447.395 173.863 437.898 165.699C436.039 164.102 436.165 161.646 436.056 158.119C435.925 153.935 434.898 151.388 435.376 148.981C435.943 146.101 438.462 144.797 443.689 144.357C453.292 143.542 458.147 145.656 457.502 150.312C456.066 160.703 458.953 162.766 455.348 166.135Z" fill="#D9935C"/>
<path d="M447.523 144.186C447.523 144.186 453.217 144.068 454.517 145.928C455.816 147.789 455.995 149.866 456.65 150.915C457.046 151.586 457.236 152.355 457.197 153.13L458.456 144.828L450.758 143.342L447.523 144.186Z" fill="#B64C41"/>
<path d="M480.735 189.974C480.735 189.974 478.304 196.974 468.449 198.256C468.182 198.291 467.908 198.32 467.628 198.347H427.481L427.267 198.283C425.707 197.791 416.117 194.592 415.109 188.586C415.109 188.586 420.148 178.471 423.999 177.216C425.406 176.808 426.848 176.524 428.307 176.367C429.977 176.158 431.733 176.02 433.207 175.927C435.237 175.803 436.734 175.771 436.734 175.771C436.734 175.771 439.86 181.964 447.468 181.873C455.075 181.781 456.836 175.863 456.836 175.863C456.836 175.863 458.972 175.922 461.809 176.222C463.373 176.387 465.149 176.623 466.9 176.96C469.868 177.536 472.757 178.407 474.41 179.719C478.8 183.214 480.735 189.974 480.735 189.974Z" fill="#9ED9F0"/>
<path d="M471.178 244.108C470.75 241.79 470.115 238.261 469.616 235.157C469.616 235.116 471.102 217.634 471.652 214.684C472.201 211.733 468.467 195.654 468.467 195.654C467.598 193.193 466.125 192.443 464.994 192.443L466.893 176.965C465.13 176.623 463.366 176.386 461.802 176.226L460.892 192.447L460.877 192.694C458.796 192.807 456.202 192.94 453.786 193.048C451.37 193.156 449.131 193.233 447.74 193.233C444.939 193.233 438.512 192.92 434.243 192.691L434.225 192.46L433.195 175.943C431.721 176.037 429.965 176.175 428.295 176.384L430.111 192.46C428.915 192.46 427.539 194.534 427.34 195.686L427.156 200.714C426.252 203.247 424.385 208.87 424.068 212.82C423.657 218.038 425.889 236.201 425.904 236.321C425.824 238.485 425.652 241.244 425.363 243.926C423.687 248.356 416.546 269.012 417.261 296.773C417.941 322.691 418.342 366.974 421.468 388.474C421.972 391.964 422.554 394.853 423.231 396.965C423.397 397.486 423.711 397.951 424.138 398.304C424.565 398.656 425.086 398.883 425.64 398.956C429.224 399.448 437.303 400.336 440.78 399.101C442.445 398.508 443.639 389.471 444.483 377.817C445.291 366.649 445.778 353.074 446.047 342.24C446.264 333.604 446.347 326.708 446.347 324.156C446.347 318.382 447.745 301.44 448.206 291.475C448.206 291.416 448.23 291.36 448.272 291.318C448.315 291.277 448.373 291.253 448.433 291.253C448.493 291.253 448.551 291.277 448.593 291.318C448.636 291.36 448.66 291.416 448.66 291.475V291.475C449.36 303.305 451.806 321.254 451.846 325.234C451.937 334.903 451.36 397.024 455.685 399.111C458.993 400.706 466.787 399.5 470.51 399.007C471.169 398.92 471.788 398.648 472.291 398.224C472.794 397.8 473.16 397.242 473.344 396.618C477.997 380.987 478.408 326.673 479.191 296.783C479.922 269.389 472.982 248.942 471.178 244.108Z" fill="#2B478B"/>
<path d="M434.719 255.287C433.346 256.363 428.857 255.913 427.117 254.483C425.376 253.053 421.892 253.498 421.071 252.959C421.013 252.922 404.805 234.156 403.046 226.259C401.283 218.29 412.493 196.359 415.67 190.381C418.02 195.232 425.849 197.85 427.258 198.283L427.472 198.347H427.908C425.265 205.325 417.365 217.886 414.322 222.619C413.95 223.198 413.732 223.86 413.688 224.543C413.644 225.226 413.775 225.909 414.07 226.529C417.98 234.72 421.804 241.628 423.479 246.413C423.812 246.944 424.524 247.889 425.388 247.766C426.583 247.587 430.427 246.782 432.354 249.556C434.281 252.329 436.095 254.214 434.719 255.287Z" fill="#D9935C"/>
<path d="M459.396 137.079C458.523 135.99 457.535 134.995 456.449 134.108C456.149 133.862 455.826 133.599 455.484 133.348C452.002 130.759 446.433 128.234 439.719 130.97C438.023 131.659 436.47 132.647 435.139 133.884C434.842 134.16 434.56 134.44 434.295 134.733C428.474 141.044 428.967 150.94 428.967 150.94L462.56 150.59C462.658 141.427 459.396 137.079 459.396 137.079Z" fill="#FFA412"/>
<path d="M453.113 150.688C453.017 149.307 452.375 137.983 456.448 134.11C456.266 133.945 456.075 133.79 455.876 133.645C451.533 138.097 451.256 149.248 451.271 150.705L440.535 150.818C440.215 142.78 435.675 134.777 435.129 133.883C434.911 134.079 434.704 134.286 434.509 134.503C435.297 135.86 438.262 143.61 438.54 150.838L428.949 150.939C428.949 150.939 437.895 153.198 444.633 153.117C451.372 153.036 462.542 150.589 462.542 150.589L453.113 150.688Z" fill="#E27F2B"/>
<path d="M435.992 194.139C432.556 200.584 422.795 201.793 422.795 201.793C425.959 194.272 419.588 191.901 415.648 184.201C411.708 176.5 418.671 171.403 418.671 171.403C414.363 172.21 413.539 177.851 413.539 177.851C413.174 174.091 416.381 167.736 426.553 166.481C434.002 165.563 435.798 163.109 436.229 161.861C436.395 163.481 436.798 164.748 437.912 165.706C438.698 166.382 439.451 166.971 440.179 167.482C440.161 167.775 440.149 168.068 440.134 168.359C440.091 169.343 440.063 170.328 440.015 171.218C439.511 171.794 439.152 172.477 438.967 173.212C438.782 173.948 438.776 174.716 438.95 175.454C439.023 175.818 439.142 176.171 439.302 176.507C440.268 177.761 440.877 179.243 441.066 180.802C441.529 185.055 438.569 189.305 435.992 194.139Z" fill="#B64C41"/>
<path d="M471.098 243.688L469.614 235.16C463.164 237.503 456.388 238.877 449.517 239.236C449.157 238.584 448.646 238.024 448.025 237.6C447.403 237.176 446.689 236.9 445.939 236.794L440.609 236.041C439.609 235.9 438.59 236.068 437.692 236.519C436.794 236.971 436.062 237.685 435.598 238.561C430.48 237.789 427.033 236.654 425.927 236.263V236.309L425.398 243.796V243.816C428.477 244.616 431.429 245.238 434.253 245.711L434.094 246.754C433.908 247.998 434.233 249.264 434.999 250.273C435.766 251.283 436.911 251.955 438.183 252.142L444.09 253.008C444.756 253.105 445.436 253.066 446.086 252.893C446.735 252.72 447.341 252.417 447.865 252.003C448.389 251.59 448.819 251.074 449.128 250.49C449.437 249.905 449.618 249.264 449.66 248.608L449.763 247.003C461.021 246.946 468.506 244.633 471.098 243.688Z" fill="#233862"/>
<path d="M492.702 226.258C490.939 234.156 474.736 252.922 474.678 252.959C474.481 253.065 474.266 253.134 474.043 253.163H474.013C472.673 253.389 470.06 253.296 468.629 254.477C466.889 255.907 462.397 256.357 461.022 255.282C459.646 254.206 461.483 252.329 463.405 249.55C465.327 246.771 469.179 247.581 470.37 247.761C471.078 247.867 471.693 247.244 472.068 246.722L472.091 246.693C472.161 246.592 472.229 246.493 472.28 246.407C473.919 241.731 477.61 235.022 481.426 227.07C481.804 226.287 481.974 225.424 481.921 224.56C481.868 223.697 481.594 222.86 481.124 222.126C478.575 218.146 473.401 209.882 470.073 203.252C469.685 201.335 469.297 199.531 468.997 198.167C476.303 197.018 479.326 192.672 480.316 190.818C483.772 197.375 494.433 218.474 492.702 226.258Z" fill="#D9935C"/>
<path d="M602.424 260.3C599.97 260.851 588.891 260.984 581.112 259.276C579.629 258.972 578.178 258.531 576.781 257.957C575.315 257.325 574.212 256.562 573.648 255.644C572.768 254.214 571.159 249.314 569.267 242.89C564.057 225.193 556.727 195.947 556.727 195.947C556.727 195.947 571.448 198.883 574.562 201.389C577.676 203.894 580.429 243.646 583.359 244.721C583.792 244.879 584.538 245.214 585.49 245.671C585.538 245.693 585.583 245.718 585.631 245.738C586.2 246.013 586.84 246.331 587.533 246.678C593.612 249.73 603.67 255.228 604.713 256.451C606.089 258.06 605.998 259.493 602.424 260.3Z" fill="#739AF0"/>
<path d="M574.174 218.58C574.172 217.898 574.107 217.217 573.98 216.547C572.086 206.37 557.021 195.947 556.726 195.947V196.159C556.726 197.714 554.207 200.589 550.351 200.835C545.763 201.128 540.105 198.573 540.105 195.992C540.078 195.992 537.528 196.329 536.664 196.422C532.989 196.831 525.653 198.77 522.512 201.098C519.524 203.313 523.746 217.209 526.361 227.056C527.467 231.22 528.286 234.658 528.15 236.181C528.084 236.92 527.394 247.032 526.789 256.175C526.285 263.719 525.827 270.602 525.814 271.033C525.779 271.889 530.14 274.889 537.46 277.159C539.364 277.748 541.298 278.24 543.254 278.635C547.411 279.468 551.644 279.881 555.888 279.866C557.399 279.866 558.832 279.787 560.185 279.654C570.652 278.63 574.234 266.987 574.174 218.58Z" fill="#739AF0"/>
<path d="M540.107 195.871C540.019 191.916 540.084 187.198 540.631 183.211L556.781 185.788C556.781 185.788 556.798 190.604 556.728 195.947C556.728 195.947 557.166 200.904 550.919 201.627C544.671 202.351 539.935 199.695 540.107 195.871Z" fill="#D9935C"/>
<path d="M553.619 404.773C551.588 403.542 552.782 394.502 552.782 394.502C552.782 394.502 562.292 387.119 563.574 392.807C564.857 398.494 572.55 401.061 576.926 401.772C579.949 402.265 581.067 403.791 581.354 404.76L553.619 404.773Z" fill="#233862"/>
<path d="M538.825 249.19C538.825 264.32 531.318 260.242 526.789 256.157C527.399 247.014 527.827 214.631 527.827 214.631C527.827 214.631 538.825 227.532 538.825 249.19Z" fill="#4A75CB"/>
<path d="M587.547 246.679C587.248 248.803 583.817 254.98 581.126 259.277C579.643 258.973 578.193 258.532 576.796 257.958C575.33 257.326 574.226 256.563 573.662 255.645C572.783 254.215 571.173 249.315 569.281 242.891C570.682 234.984 572.012 227.175 572.012 227.175L572.425 221.938C572.425 222.341 578.7 245.35 581.544 245.886C583.257 246.214 584.472 245.818 585.504 245.672C585.552 245.694 585.598 245.719 585.645 245.739C586.202 246.014 586.842 246.332 587.547 246.679Z" fill="#4A75CB"/>
<path d="M524.475 404.773C522.445 403.542 523.636 394.502 523.636 394.502C523.636 394.502 533.149 387.119 534.431 392.807C535.713 398.494 543.407 401.061 547.782 401.772C550.805 402.265 551.906 403.791 552.193 404.76L524.475 404.773Z" fill="#233862"/>
<path d="M538.571 178.662C538.571 178.662 527.789 162.067 548.501 160.957C548.501 160.957 556.265 161.85 558.023 160.135C558.023 160.135 564.047 169.076 558.421 178.662C552.796 188.248 538.571 178.662 538.571 178.662Z" fill="#233862"/>
<path d="M556.31 187.327C554.741 188.533 550.138 189.732 548.808 189.872C548.808 189.872 541.987 188.395 540.747 187.657C538.825 186.52 538.948 184.211 538.85 181.012C538.734 177.222 538.346 174.246 538.775 172.063C539.278 169.45 540.986 167.963 545.733 167.56C554.449 166.821 558.076 168.953 558.23 171.807C558.27 172.573 558.305 173.304 558.331 173.998C558.673 182.902 557.953 186.057 556.31 187.327Z" fill="#D9935C"/>
<path d="M558.405 176.916C558.319 182.084 556.893 185.126 555.863 185.513C554.557 185.988 553.207 186.341 551.832 186.566C551.341 186.623 550.87 186.608 550.875 186.335C550.893 185.522 552.004 184.518 551.177 183.8C550.311 183.044 545.658 182.788 545.283 184.437C545.099 185.242 546.6 186.652 545.572 186.694C545.26 186.642 544.953 186.583 544.66 186.507C543.395 186.166 542.187 185.645 541.076 184.961C539.154 183.824 539.279 182.082 538.856 178.905C538.579 176.852 538.579 177.964 538.856 181.014C539.143 184.213 538.579 186.251 540.751 187.659C541.957 188.439 548.915 191.493 548.915 191.493C548.812 189.876 554.744 188.54 556.314 187.331C557.76 186.209 558.49 183.62 558.405 176.916Z" fill="#233862"/>
<path d="M525.813 271.024C525.781 271.88 530.141 274.88 537.462 277.147C538.051 277.331 538.663 277.509 539.291 277.679C539.294 277.68 539.298 277.683 539.3 277.686C539.303 277.688 539.305 277.692 539.306 277.696C539.988 285.524 541.837 296.585 543.505 307.256C543.936 310.022 544.354 312.764 544.74 315.415C545.747 322.429 546.518 328.823 546.601 333.422V333.472C546.636 335.583 544.813 340.855 544.677 342.066C544.591 342.804 544.523 343.597 544.472 344.421C544.293 348.203 544.345 351.993 544.626 355.769C545.823 373.915 550.73 397.133 552.481 398.12C555.962 400.089 562.305 398.12 565.515 397.66C566.847 397.465 567.915 396.355 567.845 395.043C566.273 364.929 570.79 322.987 574.165 297.207C574.253 296.536 574.337 295.88 574.417 295.238C574.82 292.199 575.087 289.359 575.256 286.799C575.41 284.555 575.485 282.517 575.508 280.75C575.508 280.199 575.521 279.672 575.523 279.175C575.523 277.56 574.218 266.995 574.158 218.588C574.155 218.049 573.935 217.533 573.545 217.152C573.154 216.771 572.626 216.557 572.075 216.555H541.795C541.099 216.555 540.411 216.69 539.769 216.952C539.127 217.215 538.546 217.599 538.057 218.083C537.569 218.567 537.184 219.14 536.924 219.771C536.664 220.401 536.535 221.076 536.545 221.755C536.593 225.447 536.457 230.615 535.635 235.537C534.517 242.258 532.124 248.537 527.181 250.058C527.159 250.107 527.022 250.4 526.806 250.889C526.76 252.105 526.708 253.343 526.65 254.603C526.65 254.849 526.63 255.113 526.614 255.366C526.614 255.516 526.614 255.664 526.592 255.817C526.592 256.063 526.569 256.329 526.554 256.587C526.534 257.01 526.514 257.438 526.488 257.869C526.468 258.209 526.451 258.546 526.43 258.888C526.395 259.543 526.352 260.207 526.31 260.877C526.31 261.091 526.284 261.302 526.269 261.519C526.211 262.385 526.151 263.264 526.08 264.147C526.063 264.418 526.04 264.689 526.017 264.964C526.017 265.095 526 265.228 525.987 265.358C525.959 265.705 525.932 266.052 525.901 266.399C525.871 266.746 525.838 267.138 525.806 267.512C525.67 268.858 525.849 270.071 525.813 271.024Z" fill="#2B478B"/>
<path d="M544.625 355.773C545.822 373.918 550.729 397.136 552.48 398.123C555.961 400.092 562.305 398.123 565.514 397.663C566.846 397.469 567.915 396.359 567.844 395.047C566.272 364.933 570.789 322.991 574.165 297.211C574.252 296.54 574.336 295.883 574.416 295.242C574.819 292.202 575.087 289.362 575.255 286.803C573.651 276.582 564.589 276.033 556.362 297.179C557.397 304.186 544.353 351.616 544.625 355.773Z" fill="#233862"/>
<path d="M525.475 332.572C525.223 334.671 522.704 339.657 522.412 340.846C518.258 357.168 520.553 395.869 522.611 397.417C525.798 399.811 532.342 398.674 535.594 398.63C536.945 398.613 538.149 397.645 538.257 396.339C540.812 365.501 551.397 323.148 558.204 298.234C561.632 285.683 562.116 276.456 562.116 276.456C562.116 276.456 530.304 257.415 526.863 267.818C523.815 277.022 527.395 316.466 525.475 332.572Z" fill="#2B478B"/>
<path d="M557.876 156.315C557.654 156.068 557.422 155.84 557.178 155.613C556.081 154.591 554.8 153.775 553.399 153.206C547.857 150.944 543.252 153.031 540.378 155.175C540.093 155.384 539.826 155.596 539.58 155.805C538.682 156.54 537.866 157.365 537.144 158.266C537.144 158.266 534.451 161.857 534.541 169.425L562.277 169.696C562.277 169.696 562.685 161.527 557.876 156.315Z" fill="#FFA412"/>
<path d="M542.315 169.489L543.839 169.506C543.869 169.075 543.796 159.236 540.04 155.416C539.875 155.534 539.716 155.661 539.566 155.797C543.133 159.159 542.322 169.388 542.315 169.489Z" fill="#E27F2B"/>
<path d="M554.375 169.619C554.692 163.595 557.055 157.265 557.692 156.14C557.536 155.955 557.367 155.779 557.189 155.613C556.745 156.352 553.125 162.91 552.742 169.602L534.539 169.41C534.539 169.41 543.764 171.433 549.329 171.5C554.894 171.566 562.287 169.701 562.287 169.701L554.375 169.619Z" fill="#E27F2B"/>
<path d="M535.573 196.566C535.573 196.566 544.949 207.238 545.501 216.548L540.715 216.794C540.715 216.794 539.513 206.423 532.457 197.201C532.457 197.201 533.56 196.94 533.928 196.869C534.427 196.768 535.573 196.566 535.573 196.566Z" fill="#2B478B"/>
<path d="M558.949 196.418C565.665 206.348 566.386 216.749 566.386 216.749L571.207 216.668C570.812 209.349 566.104 201.298 563.506 197.484C563.506 197.484 560.171 196.659 558.949 196.418Z" fill="#2B478B"/>
<path d="M548.479 298.825H544.607C542.808 298.027 533.112 293.924 523.794 293.875C517.07 293.838 509.41 298.746 508.949 298.797C507.78 298.933 512.843 298.977 512.843 298.977C512.843 298.977 520.431 295.696 523.839 295.62C527.089 295.546 534.304 297.855 537.191 298.82H515.498C514.624 298.822 513.786 299.163 513.168 299.767C512.549 300.371 512.201 301.189 512.198 302.044V326.221C512.201 327.075 512.55 327.894 513.168 328.497C513.786 329.101 514.624 329.441 515.498 329.443H548.499C549.369 329.435 550.2 329.092 550.813 328.489C551.426 327.886 551.771 327.071 551.774 326.221V302.049C551.771 301.195 551.423 300.377 550.806 299.773C550.189 299.169 549.352 298.828 548.479 298.825V298.825Z" fill="#FFA412"/>
<path d="M537.757 298.824H504.769C502.946 298.824 501.469 300.268 501.469 302.048V326.219C501.469 327.999 502.946 329.443 504.769 329.443H537.757C539.579 329.443 541.057 327.999 541.057 326.219V302.048C541.057 300.268 539.579 298.824 537.757 298.824Z" fill="#E27F2B"/>
<path d="M528.07 253.848C528.305 264.775 526.912 286.534 526.912 286.534H520.314C517.198 271.223 516.099 261.374 516.099 256.001C516.099 254.943 516.099 253.959 516.099 253.048C516.142 248.46 516.268 245.795 516.268 245.795C515.031 217.999 520.714 203.137 522.498 201.089C524.282 199.042 532.449 197.203 532.449 197.203C532.449 197.203 535.147 204.882 536.247 211.059C537.348 217.236 527.597 243.194 528 252.066C528.035 252.617 528.055 253.215 528.07 253.848Z" fill="#739AF0"/>
<path d="M613.704 261.285H608.369C608.113 261.286 607.868 261.387 607.688 261.564C607.507 261.741 607.406 261.98 607.406 262.23V404.186C607.407 404.436 607.508 404.675 607.689 404.851C607.869 405.028 608.113 405.128 608.369 405.129H613.704C613.96 405.128 614.204 405.029 614.385 404.852C614.565 404.675 614.666 404.436 614.666 404.186V262.233C614.667 261.982 614.566 261.742 614.386 261.565C614.205 261.387 613.96 261.286 613.704 261.285V261.285Z" fill="#F1A34F"/>
<path d="M613.704 261.285H608.369C608.113 261.286 607.868 261.387 607.688 261.564C607.507 261.741 607.406 261.98 607.406 262.23V266.628H614.666V262.233C614.667 261.982 614.566 261.742 614.386 261.565C614.205 261.387 613.96 261.286 613.704 261.285V261.285Z" fill="#2B478B"/>
<path d="M607.406 404.186C607.407 404.435 607.508 404.674 607.689 404.851C607.869 405.027 608.113 405.127 608.369 405.128H613.704C613.96 405.128 614.204 405.028 614.385 404.851C614.565 404.675 614.666 404.435 614.666 404.186V400.391H607.406V404.186Z" fill="#2B478B"/>
<path d="M611.084 270.6C610.939 270.6 610.8 270.657 610.697 270.757C610.594 270.858 610.536 270.994 610.535 271.136V396.089C610.535 396.231 610.593 396.367 610.696 396.468C610.799 396.569 610.939 396.625 611.084 396.625C611.23 396.625 611.37 396.569 611.473 396.468C611.576 396.367 611.634 396.231 611.634 396.089V271.124C611.63 270.984 611.57 270.851 611.468 270.753C611.365 270.655 611.228 270.6 611.084 270.6V270.6Z" fill="#E27F2B"/>
<path d="M526.913 286.535C526.913 286.535 528.306 264.776 528.072 253.849C522.781 252.187 518.539 252.552 516.113 253.049C516.113 253.959 516.113 254.944 516.113 256.002C516.113 261.375 517.212 271.224 520.328 286.535C518.952 292.173 519.046 298.262 521.426 299.332C523.807 300.403 531.692 296.379 531.598 294.587C531.505 292.796 526.913 286.535 526.913 286.535Z" fill="#D9935C"/>
<path d="M617.188 261.374C616.546 259.071 616.067 257.793 614.445 256.676C612.084 255.049 609.283 255.49 607.195 255.847C605.6 256.12 603.92 255.6 603.23 255.335C599.531 252.928 590.251 247.966 585.631 245.736C582.477 247.523 578.603 251.057 576.781 257.956C583.893 261.02 599.453 260.966 602.423 260.299C602.423 260.299 605.167 262.245 607.255 262.425C608.044 262.491 609.041 262.268 609.973 261.962C611.439 261.47 613.014 261.962 614.067 263.235C615.075 264.465 616.407 265.132 616.956 265.132C617.805 265.135 617.594 262.826 617.188 261.374Z" fill="#D9935C"/>
<path d="M57.0497 289.336H24.0618C22.2392 289.336 20.7617 290.779 20.7617 292.56V316.73C20.7617 318.511 22.2392 319.954 24.0618 319.954H57.0497C58.8723 319.954 60.3498 318.511 60.3498 316.73V292.56C60.3498 290.779 58.8723 289.336 57.0497 289.336Z" fill="#FFA412"/>
<path d="M67.7763 289.336H34.7883C32.9658 289.336 31.4883 290.779 31.4883 292.56V316.73C31.4883 318.511 32.9658 319.954 34.7883 319.954H67.7763C69.5989 319.954 71.0764 318.511 71.0764 316.73V292.56C71.0764 290.779 69.5989 289.336 67.7763 289.336Z" fill="#E27F2B"/>
<path d="M27.6367 289.469C27.6367 289.469 35.4712 283.828 36.6401 283.963C37.809 284.099 39.663 284.5 39.663 284.5L32.6523 289.668L27.6367 289.469Z" fill="#FFA412"/>
<path d="M89.4834 200.375C86.3395 198.054 79.0063 196.115 75.3284 195.699C74.4668 195.605 71.8847 195.593 71.857 195.593C71.857 198.175 66.2293 200.405 61.6445 200.112C57.7776 199.866 55.2686 196.993 55.2686 195.436C54.9713 195.436 39.9019 205.649 38.0151 215.826C37.8862 216.496 37.8204 217.177 37.8186 217.859C37.7581 266.266 34.7553 273.691 35.705 273.674C35.705 273.674 41.3403 277.909 51.7997 278.911C53.15 279.044 54.5834 279.118 56.0948 279.125C60.3381 279.14 64.5716 278.728 68.7283 277.895C70.6849 277.503 72.6189 277.01 74.5223 276.418C81.8429 274.151 86.2035 271.151 86.1707 270.295C86.1354 269.34 86.3143 268.129 86.1934 266.77C85.7349 261.646 85.4855 257.172 85.2941 252.659C93.2394 253.34 97.8217 252.572 97.8217 252.572C104.339 238.908 93.7331 203.51 89.4834 200.375ZM87.6268 239.775C87.1431 239.903 86.6191 240.021 86.0574 240.139C85.6694 240.223 85.2638 240.299 84.8482 240.385C84.8482 240.198 84.8331 240.011 84.8255 239.829C84.7172 237.294 84.5963 234.88 84.4275 232.581C84.2839 230.659 84.1075 228.818 83.8758 227.063C86.6166 234.114 88.5286 239.538 87.6268 239.775Z" fill="#9ED9F0"/>
<path d="M55.2672 195.443C55.2672 195.443 43.6289 197.166 38.6183 201.247C33.6078 205.327 33.1014 231.299 31.4312 238.655C31.1038 240.098 30.809 242.423 30.5546 245.261C29.6578 255.226 30.7309 269.043 31.6202 274.152C31.7639 275.788 31.5307 277.436 30.9375 278.973C29.6527 282.108 29.3782 283.002 31.6706 284.794C33.963 286.585 36.4342 289.091 38.1749 288.374C39.5202 287.823 39.2808 279.121 39.102 275.168C41.1173 266.727 44.367 250.882 47.4327 235.527C51.5188 215.044 55.2672 195.443 55.2672 195.443Z" fill="#D9935C"/>
<path d="M55.2673 195.445C55.2673 195.445 53.1059 206.739 50.2769 221.137C49.3801 225.705 48.4153 230.585 47.4328 235.517C43.4274 243.183 39.9888 248.398 38.9283 247.416C36.7618 245.418 32.9605 245.172 30.5547 245.246C30.8066 242.41 31.1039 240.077 31.4313 238.643C31.5623 238.062 31.6833 237.365 31.8092 236.575C33.2098 227.334 34.0059 205.002 38.6109 201.246C41.0368 199.277 45.0195 197.85 48.4808 196.905C50.2442 196.413 51.8816 196.068 53.1009 195.827C54.431 195.568 55.2673 195.445 55.2673 195.445Z" fill="#9ED9F0"/>
<path d="M38.9283 247.417C36.7643 245.421 32.9605 245.172 30.5547 245.249C30.8066 242.411 31.1039 240.08 31.4313 238.643C31.5623 238.062 31.6833 237.366 31.8092 236.573L43.8154 208.256C43.8154 208.256 39.9913 248.399 38.9283 247.417Z" fill="#74ACBE"/>
<path d="M71.8811 195.156C71.9693 191.203 71.9013 186.483 71.3546 182.496L55.207 185.075C55.207 185.075 55.207 189.889 55.2776 195.232H55.2625C55.2625 195.232 54.8216 200.186 61.069 200.912C67.3165 201.639 72.055 198.983 71.8811 195.156Z" fill="#D9935C"/>
<path d="M58.3723 404.759C60.4027 403.528 59.2136 394.422 59.2136 394.422C59.2136 394.422 49.7039 387.039 48.4217 392.727C47.1395 398.414 39.4461 400.981 35.0703 401.692C32.0474 402.185 31.1153 403.824 30.8281 404.793L58.3723 404.759Z" fill="#233862"/>
<path d="M86.0596 240.152C86.0596 240.152 83.0367 244.147 82.417 244.147C81.7972 244.147 74.1693 241.26 76.3585 234.794C78.5476 228.329 83.8755 227.047 83.8755 227.047C84.1073 228.802 84.2836 230.643 84.4272 232.565C84.596 234.863 84.7169 237.278 84.8252 239.813C84.8252 239.995 84.8252 240.182 84.8479 240.369C85.2636 240.293 85.6691 240.216 86.0571 240.123L86.0596 240.152Z" fill="#74ACBE"/>
<path d="M87.5129 404.759C89.5433 403.528 88.3568 394.422 88.3568 394.422C88.3568 394.422 78.8446 387.039 77.5623 392.727C76.2801 398.414 68.5867 400.981 64.211 401.692C61.188 402.185 60.2559 403.824 59.9688 404.793L87.5129 404.759Z" fill="#233862"/>
<path d="M73.4226 177.948C73.4226 177.948 84.2045 161.343 63.5048 160.242C63.5048 160.242 55.7409 161.136 53.9825 159.418C53.9825 159.418 47.9593 168.359 53.5845 177.948C59.2097 187.536 73.4226 177.948 73.4226 177.948Z" fill="#B64C41"/>
<path d="M55.6904 186.612C57.2598 187.818 61.8597 189.014 63.1898 189.155C63.1898 189.155 70.0141 187.678 71.251 186.94C73.1706 185.803 73.0471 183.494 73.1454 180.295C73.2638 176.507 73.6492 173.531 73.2235 171.346C72.7196 168.735 71.0117 167.248 66.2656 166.845C57.5495 166.106 53.9219 168.238 53.7683 171.093C53.728 171.858 53.6927 172.589 53.6675 173.28C53.3199 182.185 54.0403 185.342 55.6904 186.612Z" fill="#D9935C"/>
<path d="M53.5887 176.203C53.6743 181.359 55.1002 184.413 56.128 184.797C57.4338 185.275 58.7835 185.628 60.1586 185.853C60.6624 185.91 61.1209 185.892 61.1133 185.622C61.0982 184.807 59.9848 183.805 60.8135 183.084C61.6423 182.363 66.333 182.075 66.7083 183.724C66.8922 184.527 65.3908 185.939 66.4186 185.979C66.731 185.927 67.0383 185.868 67.3305 185.794C68.5955 185.451 69.8029 184.93 70.9152 184.248C72.8373 183.111 72.7114 181.367 73.1346 178.192C73.4117 176.137 73.4117 177.252 73.1346 180.298C72.8474 183.498 73.4117 185.536 71.2402 186.943C70.0335 187.726 63.0757 190.778 63.0757 190.778C63.1765 189.161 57.2465 187.824 55.677 186.618C54.2462 185.494 53.503 182.907 53.5887 176.203Z" fill="#B64C41"/>
<path d="M86.1812 270.31C86.2139 271.166 81.8533 274.166 74.5328 276.433C73.9433 276.618 73.3311 276.792 72.7039 276.965C72.7 276.966 72.6965 276.968 72.6939 276.971C72.6912 276.974 72.6895 276.978 72.6888 276.982C72.0061 284.811 70.157 295.868 68.4894 306.542C68.0586 309.308 67.6404 312.048 67.255 314.698C66.2473 321.715 65.4765 328.106 65.3934 332.709V332.755C65.3581 334.867 67.1819 340.139 67.318 341.352C67.4036 342.09 67.4716 342.883 67.522 343.707C67.7013 347.49 67.6499 351.279 67.3684 355.055C66.1718 373.201 61.2645 396.417 59.5137 397.406C56.0323 399.375 49.6891 397.406 46.4798 396.943C45.1471 396.751 44.079 395.641 44.147 394.327C45.7215 364.213 41.2047 322.273 37.8266 296.491C37.7409 295.819 37.6527 295.162 37.5746 294.522C37.1691 291.483 36.9046 288.643 36.7358 286.083C36.5821 283.839 36.5065 281.798 36.4839 280.031C36.4839 279.48 36.4788 278.956 36.4688 278.459C36.4688 276.844 37.7737 266.276 37.8341 217.869C37.8368 217.33 38.0572 216.814 38.4474 216.433C38.8376 216.053 39.3659 215.838 39.9174 215.836H70.1999C70.8955 215.836 71.5841 215.972 72.2257 216.234C72.8673 216.497 73.4492 216.881 73.9374 217.365C74.4256 217.849 74.8105 218.423 75.0697 219.054C75.3289 219.684 75.4572 220.359 75.4472 221.039C75.4019 224.73 75.5379 229.899 76.3591 234.806C77.4751 241.527 79.8708 247.808 84.8133 249.327C84.836 249.376 84.972 249.669 85.1887 250.158C85.2357 251.374 85.2886 252.612 85.3474 253.872C85.3474 254.118 85.3675 254.379 85.3826 254.635C85.3826 254.785 85.3952 254.933 85.4053 255.083C85.4053 255.329 85.428 255.597 85.4431 255.853C85.4607 256.279 85.4834 256.705 85.5086 257.138C85.5287 257.478 85.5464 257.815 85.5665 258.157C85.6018 258.813 85.6421 259.475 85.6874 260.143C85.6874 260.36 85.7126 260.571 85.7278 260.788C85.7857 261.654 85.8462 262.53 85.9142 263.414C85.9343 263.687 85.957 263.958 85.9797 264.231C85.9797 264.364 85.9973 264.494 86.0099 264.627C86.0376 264.972 86.0628 265.319 86.093 265.668C86.1232 266.018 86.1585 266.407 86.1913 266.781C86.3248 268.139 86.1459 269.355 86.1812 270.31Z" fill="#2B478B"/>
<path d="M67.367 355.057C66.1704 373.203 61.2631 396.419 59.5123 397.408C56.0309 399.377 49.6877 397.408 46.4784 396.945C45.1457 396.753 44.0776 395.643 44.1456 394.329C45.7201 364.215 41.2033 322.276 37.8252 296.493C37.7395 295.821 37.6513 295.164 37.5732 294.524C37.1677 291.485 36.9032 288.645 36.7344 286.085C38.3391 275.862 47.4004 275.315 55.6278 296.461C59.1319 304.644 67.639 350.898 67.367 355.057Z" fill="#233862"/>
<path d="M86.5182 331.857C86.7701 333.954 89.2893 338.942 89.5815 340.131C93.7355 356.453 91.4406 395.154 89.3799 396.702C86.1958 399.096 79.6486 397.957 76.3964 397.915C75.0486 397.895 73.8445 396.931 73.7362 395.621C71.1818 364.786 60.5964 322.433 53.7897 297.519C50.3612 284.968 49.875 275.741 49.875 275.741C49.875 275.741 81.6891 256.7 85.1428 267.103C88.1758 276.307 84.5986 315.749 86.5182 331.857Z" fill="#2B478B"/>
<path d="M74.86 157.537C74.1383 156.636 73.3218 155.811 72.424 155.076C72.1721 154.867 71.9202 154.657 71.6255 154.448C68.7511 152.309 64.1512 150.225 58.6041 152.479C57.2 153.048 55.9148 153.864 54.8128 154.886C54.5609 155.113 54.3342 155.346 54.115 155.588C49.306 160.81 49.7116 168.986 49.7116 168.986L77.4598 168.695C77.553 161.128 74.86 157.537 74.86 157.537Z" fill="#FFA412"/>
<path d="M69.6766 168.774C69.6766 168.673 68.8579 158.438 72.4249 155.081C72.2743 154.945 72.1162 154.818 71.9513 154.699C68.1953 158.519 68.1197 168.358 68.1525 168.791L69.6766 168.774Z" fill="#E27F2B"/>
<path d="M59.2855 168.885C59.0336 162.24 55.2725 155.635 54.8216 154.896C54.6436 155.058 54.4754 155.23 54.3178 155.411C54.9703 156.528 57.4188 162.93 57.6531 168.903L49.7305 168.986C49.7305 168.986 57.1216 170.852 62.6889 170.785C68.2561 170.719 77.4786 168.696 77.4786 168.696L59.2855 168.885Z" fill="#E27F2B"/>
<path d="M76.4136 195.85C76.4136 195.85 67.0375 206.521 66.4883 215.831H71.2545C71.2545 215.831 72.4687 205.711 79.5248 196.489L76.4136 195.85Z" fill="#2B478B"/>
<path d="M53.1103 195.826C46.3943 205.757 45.5982 215.83 45.5982 215.83H40.832C41.2301 208.511 45.8879 200.716 48.4877 196.904C50.2561 196.422 51.891 196.067 53.1103 195.826Z" fill="#2B478B"/>
<path d="M101.512 253.503C101.261 249.212 100.719 244.943 99.8899 240.722C99.9075 242.989 99.7314 245.254 99.3634 247.493C100.542 256.673 100.086 263.689 97.993 267.674C96.8169 269.996 94.9903 271.944 92.7255 273.292C93.8779 272.185 94.8589 270.92 95.6376 269.537C97.2473 266.719 98.7286 261.474 98.1794 251.8C98.0686 252.075 97.9527 252.341 97.8293 252.599C97.8293 252.599 97.4212 252.668 96.6352 252.747C96.9576 259.82 96.1843 265.237 94.3352 268.478C93.063 270.788 91.1234 272.682 88.7579 273.922C89.4932 273.206 90.157 272.423 90.7404 271.584C92.6499 268.843 94.6426 263.463 94.7282 252.88C94.2513 252.906 93.7231 252.928 93.1437 252.944C93.0555 261.066 91.8312 267.088 89.5262 270.386C89.4204 270.538 89.3096 270.691 89.1962 270.839C90.9445 267.907 92.6172 262.594 92.7028 252.951C92.199 252.951 91.6775 252.951 91.1158 252.951C91.0326 261.053 89.8033 267.083 87.5008 270.378C86.1808 272.331 84.3368 273.892 82.1704 274.89C81.5355 274.784 80.8856 274.643 80.2331 274.474C80.145 274.454 80.0568 274.432 79.9812 274.405H79.9535L79.7016 274.333C78.9056 274.107 78.133 273.849 77.384 273.558C68.2169 270.002 62.957 261.991 62.4456 255.41C62.0828 250.734 62.4708 243.771 63.4381 236.199C65.3426 221.275 69.484 203.973 74.5374 197.097C74.6231 196.981 74.7037 196.868 74.7893 196.76C74.8951 196.624 75.0009 196.491 75.1092 196.368C75.2957 196.149 75.4796 195.945 75.6685 195.758C76.0197 195.399 76.4148 195.083 76.8449 194.818C76.9666 194.892 77.0827 194.974 77.1926 195.064C77.6311 195.407 78.0238 195.802 78.3614 196.24V196.253C78.8879 196.363 79.4346 196.499 79.9938 196.629C80.2458 196.698 80.5203 196.764 80.7874 196.841C80.8041 196.838 80.821 196.838 80.8377 196.841C80.9007 196.841 80.9637 196.873 81.0242 196.89C81.3516 196.979 81.6791 197.072 82.0091 197.168L82.5709 197.338L83.2309 197.547L83.9464 197.793C84.1983 197.879 84.4502 197.968 84.7021 198.059L84.687 198.037C81.7169 193.464 79.6059 192.398 78.2355 192.462C78.0193 192.472 77.8044 192.5 77.5931 192.546C77.3688 192.487 77.1377 192.456 76.9054 192.455C76.4342 192.459 75.9673 192.543 75.5249 192.701C74.1142 192.834 72.6304 193.705 71.0938 195.307C70.988 195.413 70.8847 195.527 70.7789 195.642C69.8352 196.706 68.9794 197.842 68.2194 199.039L68.2043 199.061C60.0801 211.612 52.5051 239.472 52.0542 252.516C51.699 262.838 59.8333 272.067 68.0532 275.847C68.8325 276.206 69.6304 276.526 70.4438 276.804C70.8889 276.957 71.3306 277.093 71.7689 277.213H71.7966C73.4044 277.666 75.0683 277.901 76.7416 277.912C77.0817 277.912 77.4168 277.912 77.7493 277.88C78.0919 277.902 78.432 277.912 78.7695 277.912C80.2202 277.918 81.6636 277.712 83.052 277.301C83.2662 277.301 83.4803 277.277 83.6919 277.262C83.9035 277.247 84.0547 277.23 84.231 277.208C84.5787 277.169 84.9238 277.117 85.2639 277.055C86.2358 277.063 87.2067 276.99 88.1659 276.836C91.0545 276.396 93.7419 275.12 95.882 273.174C97.2896 271.88 98.4557 270.356 99.3281 268.67C100.701 266.054 101.915 261.472 101.512 253.503ZM53.6337 252.577C54.0317 241.032 60.4933 216.512 67.6375 203.274C67.3856 203.86 67.1337 204.465 66.8818 205.088C60.1305 219.057 54.46 241.266 54.0745 252.501C53.9108 257.197 55.5054 261.664 58.0674 265.496C55.0016 261.265 53.4901 256.532 53.6337 252.577ZM70.6454 274.077C60.4782 269.401 55.4097 259.722 55.6591 252.577C55.8757 246.235 57.9263 235.972 60.914 225.818C58.5838 236.794 57.2839 247.928 57.6038 254.768C58.0069 263.428 64.3047 270.629 71.3381 274.38C71.1064 274.292 70.8721 274.186 70.6454 274.077V274.077ZM59.1758 254.664C58.7123 244.761 61.9166 224.821 66.6551 210.517C67.1866 208.917 67.7358 207.387 68.3026 205.947C68.5142 205.509 68.7258 205.083 68.9374 204.662C65.2897 214.423 62.5489 228.372 61.3598 240.087C60.7502 246.144 60.5562 251.603 60.856 255.592C61.4102 262.729 65.9699 268.71 71.5724 272.507C63.7681 268.277 59.4604 260.77 59.1758 254.664V254.664Z" fill="#FFA412"/>
<path d="M86.0592 240.152C85.8073 240.189 80.9278 241.058 80.6633 241.095C72.5492 242.256 61.6313 242.771 60.4926 242.818C60.3868 242.722 56.5149 239.197 55.0034 239.197C53.492 239.197 49.0583 240.767 48.6074 241.976C48.1565 243.184 47.9776 245.362 49.2397 245.845C50.5018 246.327 55.7239 247.535 57.0767 247.659C57.2921 247.677 57.5087 247.677 57.7241 247.659C65.7196 249.983 73.9156 251.589 82.21 252.458C84.4805 252.738 86.7659 252.889 89.0545 252.908C88.9638 247.435 87.077 242.377 86.0592 240.152Z" fill="#D9935C"/>
<path d="M263.335 127.173V125.091H258.669V111.346H254.808V125.091H245.026V111.346H241.167V125.091H230.531V111.346H226.669V125.091H216.887V111.346H213.025V125.091H207.914V127.173H213.028V133.865H207.914V135.947H213.028V142.639H207.914V144.723H213.028V151.415H207.914V153.497H213.028V160.189H207.914V162.273H213.028V168.958H207.914V171.04H213.028V176.454H207.914V178.556H213.028V185.25H207.914V187.332H213.028V194.012H207.914V196.094H213.028V202.785H207.914V204.87H213.028V211.562H207.914V213.644H213.028V220.335H207.914V222.418H213.028V228.816H207.914V230.901H213.028V237.593H207.914V239.675H213.028V246.366H207.914V248.451H213.028V255.143H207.914V257.225H213.028V263.917H207.914V265.999H213.028V272.693H207.914V274.775H213.028V280.189H207.914V282.271H213.028V288.963H207.914V291.028H213.028V297.72H207.914V299.802H213.028V306.494H207.914V308.576H213.028V315.27H207.914V317.362H213.028V324.053H207.914V326.136H213.028V332.106H207.914V334.188H213.028V340.88H207.914V342.957H213.028V349.649H207.914V351.731H213.028V358.423H207.914V360.507H213.028V367.199H207.914V369.291H213.028V375.983H207.914V378.065H213.028V383.479H207.914V385.564H213.028V392.255H207.914V394.338H213.028V401.029H207.914V403.114H263.335V401.029H258.669V394.338H263.335V392.255H258.669V385.559H263.335V383.474H258.669V378.06H263.335V375.978H258.669V369.291H263.335V367.209H258.669V360.517H263.335V358.433H258.669V351.741H263.335V349.659H258.669V342.957H263.335V340.873H258.669V334.181H263.335V332.099H258.669V326.128H263.335V324.046H258.669V317.362H263.335V315.28H258.669V308.586H263.335V306.503H258.669V299.812H263.335V297.73H258.669V291.028H263.335V288.943H258.669V282.252H263.335V280.17H258.669V274.755H263.335V272.673H258.669V265.979H263.335V263.897H258.669V257.213H263.335V255.13H258.669V248.451H263.335V246.366H258.669V239.675H263.335V237.593H258.669V230.901H263.335V228.816H258.669V222.418H263.335V220.335H258.669V213.644H263.335V211.562H258.669V204.87H263.335V202.785H258.669V196.094H263.335V194.012H258.669V187.32H263.335V185.238H258.669V178.556H263.335V176.474H258.669V171.059H263.335V168.958H258.669V162.273H263.335V160.189H258.669V153.497H263.335V151.415H258.669V144.723H263.335V142.639H258.669V135.947H263.335V133.865H258.669V127.173H263.335ZM241.167 127.173V133.865H230.531V127.173H241.167ZM230.531 392.251V385.559H241.167V392.251H230.531ZM241.167 394.333V401.024H230.531V394.333H241.167ZM230.531 383.474V378.06H241.167V383.474H230.531ZM230.531 375.978V369.291H241.167V375.983L230.531 375.978ZM230.531 367.204V360.512H241.167V367.204H230.531ZM230.531 358.428V351.736H241.167V358.428H230.531ZM230.531 349.654V342.957H241.167V349.649L230.531 349.654ZM230.531 340.878V334.186H241.167V340.878H230.531ZM230.531 332.104V326.133H241.167V332.104H230.531ZM230.531 324.051V317.362H241.167V324.053L230.531 324.051ZM230.531 315.277V308.583H241.167V315.277H230.531ZM230.531 306.501V299.809H241.167V306.501H230.531ZM230.531 297.727V291.028H241.167V297.72L230.531 297.727ZM230.531 288.951V282.259H241.167V288.951H230.531ZM230.531 280.177V274.763H241.167V280.177H230.531ZM230.531 272.681V265.986H241.167V272.681H230.531ZM230.531 263.904V257.213H241.167V263.904H230.531ZM230.531 255.13V248.451H241.167V255.143L230.531 255.13ZM230.531 246.354V239.662H241.167V246.354H230.531ZM230.531 237.58V230.889H241.167V237.58H230.531ZM230.531 228.804V222.405H241.167V228.804H230.531ZM230.531 220.335V213.644H241.167V220.335H230.531ZM230.531 211.562V204.87H241.167V211.562H230.531ZM230.531 202.785V196.094H241.167V202.785H230.531ZM230.531 194.012V187.32H241.167V194.012H230.531ZM230.531 185.238V178.556H241.167V185.25L230.531 185.238ZM230.531 176.461V171.047H241.167V176.461H230.531ZM230.531 168.965V162.273H241.167V168.958L230.531 168.965ZM230.531 160.189V153.497H241.167V160.189H230.531ZM230.531 151.415V144.723H241.167V151.415H230.531ZM230.531 142.639V135.947H241.167V142.639H230.531ZM216.887 127.173H226.669V133.865H216.887V127.173ZM216.887 135.947H226.669V142.639H216.887V135.947ZM216.887 144.723H226.669V151.415H216.887V144.723ZM216.887 153.497H226.669V160.189H216.887V153.497ZM216.887 162.273H226.669V168.958H216.887V162.273ZM216.887 171.047H226.669V176.461H216.887V171.047ZM216.887 178.544H226.669V185.238H216.887V178.544ZM216.887 187.32H226.669V194.012H216.887V187.32ZM216.887 196.094H226.669V202.785H216.887V196.094ZM216.887 204.87H226.669V211.562H216.887V204.87ZM216.887 213.644H226.669V220.335H216.887V213.644ZM216.887 222.418H226.669V228.816H216.887V222.418ZM216.887 230.889H226.669V237.58H216.887V230.889ZM216.887 239.662H226.669V246.354H216.887V239.662ZM216.887 248.439H226.669V255.13H216.887V248.439ZM216.887 257.213H226.669V263.904H216.887V257.213ZM216.887 265.986H226.669V272.681H216.887V265.986ZM216.887 274.763H226.669V280.177H216.887V274.763ZM216.887 282.259H226.669V288.951H216.887V282.259ZM216.887 291.035H226.669V297.727H216.887V291.035ZM216.887 299.809H226.669V306.501H216.887V299.809ZM216.887 308.583H226.669V315.277H216.887V308.583ZM216.887 317.359H226.669V324.051H216.887V317.359ZM216.887 326.133H226.669V332.104H216.887V326.133ZM216.887 334.186H226.669V340.878H216.887V334.186ZM216.887 342.962H226.669V349.654H216.887V342.962ZM216.887 351.736H226.669V358.428H216.887V351.736ZM216.887 360.512H226.669V367.204H216.887V360.512ZM216.887 369.286H226.669V375.978H216.887V369.286ZM216.887 378.06H226.669V383.474H216.887V378.06ZM216.887 385.559H226.669V392.251H216.887V385.559ZM216.887 394.333H226.669V401.024H216.887V394.333ZM254.808 401.024H245.026V394.333H254.808V401.024ZM254.808 392.251H245.026V385.559H254.808V392.251ZM254.808 383.474H245.026V378.06H254.808V383.474ZM254.808 375.978H245.026V369.291H254.808V375.978ZM254.808 367.204H245.026V360.512H254.808V367.204ZM254.808 358.428H245.026V351.736H254.808V358.428ZM254.808 349.654H245.026V342.957H254.808V349.654ZM254.808 340.878H245.026V334.186H254.808V340.878ZM254.808 332.104H245.026V326.133H254.808V332.104ZM254.808 324.051H245.026V317.362H254.808V324.051ZM254.808 315.277H245.026V308.583H254.808V315.277ZM254.808 306.501H245.026V299.809H254.808V306.501ZM254.808 297.727H245.026V291.028H254.808V297.727ZM254.808 288.951H245.026V282.259H254.808V288.951ZM254.808 280.177H245.026V274.763H254.808V280.177ZM254.808 272.681H245.026V265.986H254.808V272.681ZM254.808 263.904H245.026V257.213H254.808V263.904ZM254.808 255.13H245.026V248.451H254.808V255.13ZM254.808 246.354H245.026V239.662H254.808V246.354ZM254.808 237.58H245.026V230.889H254.808V237.58ZM254.808 228.804H245.026V222.405H254.808V228.804ZM254.808 220.335H245.026V213.644H254.808V220.335ZM254.808 211.562H245.026V204.87H254.808V211.562ZM254.808 202.785H245.026V196.094H254.808V202.785ZM254.808 194.012H245.026V187.32H254.808V194.012ZM254.808 185.238H245.026V178.556H254.808V185.238ZM254.808 176.461H245.026V171.047H254.808V176.461ZM254.808 168.965H245.026V162.273H254.808V168.965ZM254.808 160.189H245.026V153.497H254.808V160.189ZM254.808 151.415H245.026V144.723H254.808V151.415ZM254.808 142.639H245.026V135.947H254.808V142.639ZM254.808 133.865H245.026V127.173H254.808V133.865Z" fill="#D2E4FF"/>
<path d="M310.276 0H308.91V23.7644H310.276V0Z" fill="#D2E4FF"/>
<path d="M385.983 0H384.617V23.7644H385.983V0Z" fill="#D2E4FF"/>
<path d="M319.842 0H318.477V23.7644H319.842V0Z" fill="#D2E4FF"/>
<path d="M392.815 0H391.449V23.7644H392.815V0Z" fill="#D2E4FF"/>
<path d="M116.758 350.28C116.654 350.257 116.546 350.253 116.441 350.271C116.336 350.288 116.235 350.325 116.145 350.381C116.055 350.436 115.976 350.508 115.915 350.593C115.853 350.678 115.809 350.774 115.785 350.875L108.407 382.348C106.414 382.407 104.376 384.514 103.698 387.45L102.998 390.455C102.957 390.617 102.925 390.781 102.902 390.947L111.095 392.781C111.168 392.624 111.221 392.458 111.253 392.288L111.956 389.288C112.644 386.362 111.765 383.608 109.991 382.7L117.367 351.222C117.413 351.019 117.375 350.805 117.261 350.629C117.147 350.452 116.966 350.327 116.758 350.28Z" fill="#2B478B"/>
<path d="M95.3203 390.905C95.3203 390.905 112.335 386.6 117.766 390.105C123.197 393.609 114.995 397.313 114.995 397.313L95.3203 390.905Z" fill="#E69D43"/>
<path d="M226.707 201.112C223.455 210.838 205.731 227.647 203.279 229.323C203.279 229.323 199.156 222.609 199.979 218.849C200.652 215.78 207.554 204.838 209.915 199.46C210.038 199.18 210.149 198.914 210.245 198.668C210.57 197.843 210.749 197.191 210.701 196.825C210.582 195.656 206.826 192.815 202.456 189.441C196.78 185.058 190.072 179.786 188.983 176.151C187.059 169.706 180.391 144.182 180.391 144.182C180.391 144.182 196.956 147.681 201.629 151.71C206.302 155.739 226.372 189.311 227.196 197.907C227.256 198.997 227.09 200.087 226.707 201.112Z" fill="#FFA412"/>
<path d="M226.704 201.111C223.452 210.837 205.727 227.647 203.276 229.323C203.276 229.323 199.152 222.609 199.976 218.848C200.686 215.619 208.289 203.678 210.241 198.667C213.201 198.168 220.104 197.555 226.704 201.111Z" fill="#D9935C"/>
<path d="M180.395 141.928V143.912C180.395 143.912 180.947 150.109 173.135 151.015C165.323 151.92 159.438 149.154 159.65 144.37C160.353 140.666 161.091 137.567 161.144 134.503C161.159 133.261 161.066 132.019 160.864 130.792L176.004 130.494L180.463 131.208L180.395 141.928Z" fill="#D9935C"/>
<path d="M180.454 131.208L180.396 141.929C178.689 142.713 176.826 143.118 174.94 143.115C167.982 143.115 163.485 138.131 161.135 134.501C161.15 133.259 161.057 132.017 160.855 130.79L175.995 130.492L180.454 131.208Z" fill="#CB7D45"/>
<path d="M167.052 404.78C167.052 404.78 166.316 399.186 164.616 395.861C162.915 392.536 152.083 394.652 152.083 394.652C152.083 394.652 149.917 396.466 149.453 404.93L167.052 404.78Z" fill="#233862"/>
<path d="M203.952 404.759C201.407 403.243 202.856 391.922 202.856 391.922C202.856 391.922 214.713 382.653 216.343 389.748C217.973 396.844 227.609 400.031 233.093 400.9C236.872 401.5 238.051 403.548 238.413 404.759H203.952Z" fill="#233862"/>
<path d="M179.387 321.165C179.804 323.233 180.095 325.323 180.259 327.424C181.359 348.429 198.356 396.458 201.397 397.565C206.102 399.288 213.508 395.614 217.385 394.408C218.99 393.915 220.073 392.323 219.716 390.716C211.299 352.911 208.206 298.476 207.08 266.248C206.513 250.005 203.659 238.8 203.659 238.8C203.659 238.8 162.206 227.996 161.96 241.664C161.74 253.773 175.691 301.211 179.387 321.165Z" fill="#2B478B"/>
<path d="M179.387 321.166L207.08 266.264C206.513 250.021 203.659 238.815 203.659 238.815C203.659 238.815 162.206 228.011 161.96 241.68C161.74 253.774 175.691 301.212 179.387 321.166Z" fill="#233862"/>
<path d="M188.613 241.727L166.696 396.899C166.696 396.899 157.073 399.166 149.589 397.352C149.589 397.352 143.172 314.824 143.707 294.872C144.241 274.92 139.102 241.486 144.88 237.799C150.659 234.112 188.613 241.727 188.613 241.727Z" fill="#2B478B"/>
<path d="M204.855 242.014C204.855 242.014 193.657 248.393 177.432 248.204C171.912 248.166 166.402 247.76 160.939 246.991C147.93 245.105 141.365 241.559 141.418 240.237C141.461 239.044 141.547 235.069 141.7 233.378C143.769 210.086 142.708 191.97 145.479 178.363C145.512 178.198 145.545 178.033 145.58 177.871C149.268 160.589 155.039 150.641 157.903 146.561C158.951 145.084 159.609 144.368 159.642 144.368C159.642 147.597 166.68 150.385 172.416 150.028C177.25 149.721 180.387 146.13 180.387 144.186C180.782 144.186 202.19 158.721 202.207 172.227C202.288 232.751 206.041 242.034 204.855 242.014Z" fill="#FFA412"/>
<path d="M160.973 246.804C160.973 246.87 160.955 246.937 160.943 247.001C147.934 245.116 141.369 241.569 141.422 240.248C141.465 239.054 141.551 235.079 141.704 233.388C143.773 210.097 142.712 191.98 145.483 178.373C152.312 187.29 166.346 210.643 160.973 246.804Z" fill="#E27F2B"/>
<path d="M196.609 217.848L194.861 223.533L193.123 229.172L117.657 206.995C117.553 207.001 117.448 206.989 117.348 206.96C117.243 206.93 117.144 206.882 117.055 206.82C116.106 206.163 115.932 203.753 116.662 201.039C116.7 200.889 116.746 200.736 116.791 200.584C117.675 197.665 119.28 195.506 120.512 195.487C120.611 195.484 120.711 195.497 120.806 195.524C120.905 195.554 120.999 195.599 121.083 195.656L196.609 217.848Z" fill="#E9F3FE"/>
<path d="M194.861 223.534L193.123 229.172L117.657 206.995C117.553 207.001 117.448 206.989 117.348 206.96C117.243 206.93 117.144 206.882 117.055 206.82C116.106 206.163 115.932 203.754 116.662 201.039C119.748 203.301 134.48 213.305 159.629 218.171C185.621 223.201 193.665 223.516 194.861 223.534Z" fill="#BED4F4"/>
<path d="M196.757 217.818C195.498 217.453 193.697 219.72 192.742 222.878C191.787 226.035 192.044 228.893 193.304 229.254C194.563 229.616 196.362 227.352 197.316 224.194C198.271 221.037 198.019 218.179 196.757 217.818Z" fill="#AFCDFB"/>
<path d="M121.63 193.569L112.735 192.161C112.642 192.115 112.543 192.083 112.44 192.065C112.343 192.051 112.243 192.051 112.146 192.065C110.924 192.242 109.627 194.587 109.14 197.595C109.113 197.755 109.093 197.907 109.072 198.063C108.903 199.241 108.914 200.438 109.105 201.614C109.304 202.67 109.685 203.438 110.208 203.726L110.239 203.745C110.335 203.794 110.439 203.829 110.546 203.846C110.65 203.862 110.755 203.862 110.858 203.846L188.649 216.176L189.614 210.363L190.584 204.506L121.63 193.569Z" fill="#E9F3FE"/>
<path d="M153.963 209.565C137.337 208.519 128.507 199.924 121.63 193.582L112.735 192.174C112.642 192.129 112.543 192.096 112.44 192.079C112.343 192.065 112.243 192.065 112.146 192.079C110.924 192.256 109.627 194.601 109.14 197.609C109.113 197.769 109.093 197.921 109.072 198.076C108.903 199.255 108.914 200.452 109.105 201.628C109.523 202.782 109.952 203.567 110.208 203.739L110.239 203.759C110.335 203.808 110.439 203.842 110.546 203.86C110.65 203.876 110.755 203.876 110.858 203.86L188.649 216.19L189.614 210.377C188.425 210.5 180.409 211.216 153.963 209.565Z" fill="#BED4F4"/>
<path d="M190.725 204.453C189.425 204.253 187.954 206.729 187.422 209.983C186.891 213.236 187.528 216.035 188.828 216.234C190.128 216.433 191.599 213.96 192.13 210.706C192.662 207.453 192.025 204.642 190.725 204.453Z" fill="#AFCDFB"/>
<path d="M163.05 226.818C145.008 224.015 133.072 216.626 128.185 213.055C126.512 211.825 125.666 211.059 125.666 211.059C116.421 192.07 133.148 158.776 136.203 153.133C139.504 147.046 159.646 144.371 159.646 144.371C157.42 151.304 155.921 158.44 155.172 165.669C153.913 177.729 140.511 201.21 141.065 203.182C141.204 203.674 142.829 204.722 145.184 206.036C152.187 209.932 165.718 216.211 166.541 217.685C167.63 219.656 163.05 226.818 163.05 226.818Z" fill="#D9935C"/>
<path d="M166.532 217.687C166.532 217.687 176.609 213.75 179.088 215.359C181.566 216.969 185.685 219.388 185.685 221C185.685 222.612 180.463 226.907 176.062 228.253C171.661 229.599 163.051 226.821 163.051 226.821L166.532 217.687Z" fill="#D9935C"/>
<path d="M155.166 165.67C153.907 177.729 140.505 201.21 141.059 203.182C141.198 203.674 142.823 204.722 145.178 206.036C145.027 206.045 144.876 206.045 144.725 206.036C134.179 205.581 129.406 211.281 128.189 213.046C126.516 211.815 125.67 211.05 125.67 211.05C116.425 192.06 133.152 158.766 136.207 153.123C139.507 147.037 159.65 144.361 159.65 144.361C157.42 151.297 155.917 158.437 155.166 165.67V165.67Z" fill="#FFA412"/>
<path d="M181.34 136.419C181.34 136.419 161.943 140.246 159.696 128.411C157.449 116.576 153.423 109.101 165.709 106.158C177.995 103.214 181.265 107.292 183 111.063C184.736 114.833 186.326 135.117 181.34 136.419Z" fill="#D9935C"/>
<path d="M160.08 131.823C160.08 131.823 156.332 124.007 153.206 120.534C150.079 117.062 151.785 99.7108 165.285 100.267C178.785 100.823 183.617 110.262 183.758 112.08C183.899 113.899 172.958 112.496 169.973 114.856C166.988 117.217 169.832 121.103 166.421 122.486C163.01 123.869 160.312 123.874 160.879 126.928C161.446 129.982 160.08 131.823 160.08 131.823Z" fill="#233862"/>
<path d="M164.25 92.2076C160.388 93.1576 157.489 94.6687 155.327 96.4948C155.111 96.6745 154.901 96.8615 154.702 97.0486C146.697 104.508 149.891 116.38 149.891 116.38C149.891 116.38 150.957 119.378 151.69 120.542C152.423 121.706 163.053 120.363 163.603 118.125C164.152 115.888 166.26 113.56 166.26 113.56C166.26 113.56 177.465 112.807 178.219 112.753C180.738 112.573 187.975 110.119 187.975 110.119C187.889 109.428 183.824 87.406 164.25 92.2076Z" fill="#FFA412"/>
<path d="M194.608 107.793C193.266 107.473 190.973 107.116 187.195 106.981C187.195 106.981 184.023 109.548 177.72 111.504C174.755 107.854 166.316 99.0657 155.325 96.4914L155.227 96.4668C154.995 96.7547 154.862 96.8532 154.7 97.0451C154.642 97.1108 154.588 97.1798 154.539 97.2519C163.487 98.7753 171.992 108.593 174.911 112.265C172.071 112.939 169.175 113.37 166.258 113.552C166.258 113.552 185.842 113.909 194.792 109.304C194.939 109.226 195.059 109.106 195.136 108.96C195.213 108.815 195.244 108.65 195.224 108.488C195.204 108.325 195.135 108.172 195.025 108.048C194.915 107.924 194.77 107.835 194.608 107.793V107.793Z" fill="#E27F2B"/>
<path d="M214.551 194.675C214.188 196.683 213.079 198.797 209.915 199.459C210.039 199.179 210.15 198.913 210.245 198.667C210.57 197.842 210.749 197.19 210.701 196.823C210.583 195.654 206.827 192.814 202.456 189.44C202.096 187.528 201.217 181.853 202.456 177.349C203.968 171.846 214.966 192.391 214.551 194.675Z" fill="#E27F2B"/>
<path d="M143.071 204.68C143.071 204.68 129.602 203.607 125.203 211.261C125.203 211.261 125.578 213.843 128.186 213.055C128.186 213.055 139.58 205.446 145.175 206.036C145.187 206.036 144.311 204.703 143.071 204.68Z" fill="#E27F2B"/>
<path d="M209.93 199.46C209.93 199.46 216.92 199.746 225.717 203.489C225.717 203.489 227.669 201.614 226.891 200.536C226.113 199.458 213.708 195.604 209.93 199.46Z" fill="#E27F2B"/>
<path d="M306.932 154.748C312.978 124.42 318.54 95.3867 318.54 95.3867C318.54 95.3867 301.299 97.9364 293.875 103.981C286.451 110.025 285.703 148.505 283.237 159.383C282.748 161.516 282.312 164.967 281.934 169.168C280.529 184.811 282.28 208.24 283.605 214.809C283.519 215.439 282.97 218.54 280.048 224.489C280.048 224.489 278.536 229.054 288.431 235.903C294.732 240.269 300.367 187.715 306.932 154.748Z" fill="#D9935C"/>
<path d="M318.539 95.3867C318.539 95.3867 315.337 112.122 311.148 133.448C309.82 140.216 308.392 147.444 306.931 154.748C300.998 166.111 295.907 173.834 294.335 172.382C291.126 169.429 285.493 169.057 281.926 169.168C282.304 164.967 282.739 161.516 283.228 159.383C283.422 158.524 283.606 157.49 283.785 156.319C285.861 142.63 287.037 109.558 293.861 103.981C301.298 97.9364 318.539 95.3867 318.539 95.3867Z" fill="#739AF0"/>
<path d="M311.148 133.448C309.82 140.216 308.392 147.444 306.931 154.749C300.998 166.112 295.907 173.835 294.335 172.383C291.126 169.429 285.493 169.058 281.926 169.168C282.304 164.967 282.739 161.517 283.228 159.383C283.422 158.524 283.606 157.491 283.785 156.319L301.572 114.367L311.148 133.448Z" fill="#4A75CB"/>
<path d="M343.159 94.9592C343.29 89.1017 343.192 82.1098 342.381 76.2031L318.449 80.0228C318.449 80.0228 318.449 87.1599 318.555 95.0699H318.532C318.532 95.0699 317.88 102.414 327.135 103.487C336.39 104.56 343.409 100.625 343.159 94.9592Z" fill="#D9935C"/>
<path d="M318.391 81.4648C318.391 81.4648 324.026 92.7465 330.482 92.7465C336.939 92.7465 342.99 82.1367 342.99 82.1367L318.391 81.4648Z" fill="#CB7D45"/>
<path d="M334.336 404.802C334.336 404.802 335.205 398.177 337.22 394.237C339.236 390.296 352.068 392.804 352.068 392.804C352.068 392.804 354.633 394.953 355.184 404.982L334.336 404.802Z" fill="#233862"/>
<path d="M290.625 404.711C293.648 402.914 291.924 389.504 291.924 389.504C291.924 389.504 277.875 378.525 275.946 386.929C274.016 395.334 262.594 399.109 256.103 400.141C251.618 400.849 250.23 403.276 249.805 404.711H290.625Z" fill="#233862"/>
<path d="M345.435 69.4643C345.435 69.4643 361.406 44.8534 330.741 43.2364C330.741 43.2364 319.238 44.558 316.633 42.0059C316.633 42.0059 307.713 55.2539 316.044 69.4569C324.375 83.6599 345.435 69.4643 345.435 69.4643Z" fill="#233862"/>
<path d="M319.166 82.3007C321.491 84.0875 328.307 85.8619 330.277 86.0687C330.277 86.0687 340.384 83.8685 342.221 82.7856C345.067 81.0997 344.883 77.6886 345.029 72.9412C345.206 67.3299 345.785 62.922 345.143 59.6857C344.387 55.8144 341.868 53.6117 334.834 53.0137C321.924 51.9185 316.546 55.0785 316.321 59.3067C316.261 60.4437 316.208 61.5217 316.17 62.5504C315.654 75.7444 316.719 80.4205 319.166 82.3007Z" fill="#D9935C"/>
<path d="M319.721 305.055C319.149 308.132 318.786 310.657 318.69 312.468C317.383 337.352 297.247 394.25 293.648 395.577C288.075 397.632 279.289 393.263 274.709 391.836C272.804 391.243 271.522 389.375 271.938 387.465C281.908 342.673 285.574 278.192 286.906 240.013C287.579 220.782 290.96 207.497 290.96 207.497C290.96 207.497 340.068 194.7 340.36 210.889C340.627 225.222 324.099 281.429 319.721 305.055Z" fill="#2B478B"/>
<path d="M319.721 305.055L286.914 240.015C287.587 220.784 290.967 207.499 290.967 207.499C290.967 207.499 340.075 194.702 340.367 210.891C340.627 225.222 324.099 281.428 319.721 305.055Z" fill="#233862"/>
<path d="M308.793 210.948L334.74 394.772C334.74 394.772 346.142 397.46 355.009 395.311C355.009 395.311 362.609 297.544 361.974 273.908C361.339 250.271 367.431 210.657 360.586 206.294C353.742 201.93 308.793 210.948 308.793 210.948Z" fill="#2B478B"/>
<path d="M364.33 206.293C364.351 206.798 364.268 207.303 364.086 207.776C363.904 208.249 363.627 208.682 363.271 209.049C362.915 209.416 362.487 209.71 362.013 209.913C361.54 210.116 361.029 210.224 360.511 210.231L319.601 210.841L289.553 211.287C288.144 211.311 292.593 200.313 292.684 128.594C292.707 112.597 318.064 95.3691 318.533 95.3691C318.533 97.6727 322.248 101.928 327.974 102.292C334.776 102.728 343.109 99.4226 343.109 95.598C343.109 95.5562 343.898 96.3905 345.17 98.1969C348.561 103.026 355.395 114.8 359.758 135.298C363.204 151.487 361.879 173.13 364.358 201.056C364.544 203.089 364.277 204.888 364.33 206.293Z" fill="#FFA412"/>
<path d="M362.824 210.455C362.824 210.455 357.385 212.835 347.206 214.885C339.648 216.418 329.466 217.777 316.976 217.838C297.09 217.964 289.56 211.267 289.56 211.267C288.152 211.292 292.601 200.293 292.692 128.574C292.714 112.577 318.072 95.3496 318.54 95.3496C318.54 95.3496 317.888 116.658 324.486 122.914C324.486 122.914 333.741 115.932 345.747 96.0559C349.138 100.885 355.403 114.76 359.766 135.269C360.653 139.452 361.225 143.971 361.625 148.878C362.784 163.022 362.524 180.292 364.366 201.027C364.547 203.042 364.28 204.834 364.333 206.247C364.419 208.425 365.003 210.421 362.824 210.455Z" fill="#739AF0"/>
<path d="M362.823 210.456C362.823 210.456 357.385 212.836 347.205 214.886C344.005 210.117 339.972 201.513 339.416 187.952C338.476 165.02 360.773 135.486 360.773 135.486L361.624 148.917C362.783 163.06 362.524 180.33 364.365 201.065C364.546 203.08 364.279 204.872 364.332 206.285C364.418 208.426 365.002 210.422 362.823 210.456Z" fill="#4A75CB"/>
<path d="M343.508 132.804L305.5 154.242L335.601 205.178L373.609 183.739L343.508 132.804Z" fill="#2B478B"/>
<path d="M367.19 103.085C362.534 99.6391 351.601 97.21 346.22 96.1714C344.323 95.8072 343.117 95.6152 343.117 95.6152C343.679 98.1428 344.941 102.108 346.591 106.867C353.501 126.802 367.2 160.736 364.441 161.457C361.713 162.126 358.948 162.646 356.161 163.015C344.145 164.738 327.974 165.496 326.284 165.572C326.151 165.451 320.392 160.204 318.15 160.204C315.908 160.204 309.333 162.532 308.673 164.324C308.013 166.116 307.741 169.337 309.607 170.054C311.474 170.77 319.215 172.561 321.218 172.739C321.538 172.767 321.86 172.767 322.18 172.739C336.56 176.868 348.934 178.891 358.471 179.854C371.777 181.188 379.561 180.447 379.561 180.447C389.199 160.172 373.485 107.736 367.19 103.085Z" fill="#D9935C"/>
<path d="M379.56 180.44C379.56 180.44 371.776 181.179 358.47 179.847C359.206 176.316 359.886 169.417 356.16 163.016C358.948 162.647 361.712 162.127 364.441 161.458C367.212 160.737 353.5 126.816 346.59 106.868C346.036 100.42 345.746 96.1035 345.746 96.1035L346.22 96.1724C351.601 97.211 362.534 99.6475 367.189 103.086C373.484 107.737 389.199 160.173 379.56 180.44Z" fill="#739AF0"/>
<path d="M324.484 122.962C324.484 122.962 342.995 114.996 343.27 114.368C343.544 113.741 342.355 108.907 341.07 107.477C341.07 107.477 349.96 108.282 350.509 107.209C351.059 106.136 351.472 97.2955 351.472 97.2955C351.472 97.2955 347.771 93.5522 343.191 93.1953C343.191 93.1953 339.161 102.961 337.68 105.865C333.74 113.563 324.484 122.962 324.484 122.962Z" fill="#4A75CB"/>
<path d="M320.085 107.205C320.085 107.205 321.277 116.515 324.484 122.956C324.484 122.956 314.815 116.377 313.992 114.226C313.168 112.075 316.327 107.916 316.327 107.916C316.327 107.916 310.553 107.781 310.417 105.901C310.281 104.02 312.203 96.6346 312.203 96.6346C312.203 96.6346 317.171 93.093 318.544 93.2284L320.085 107.205Z" fill="#4A75CB"/>
<path d="M351.423 55.7592L310.314 56.1899C310.314 56.1899 309.709 44.0788 316.833 36.3559C317.158 35.999 317.503 35.6545 317.868 35.3173C319.5 33.8017 321.403 32.5928 323.484 31.7512C331.701 28.4041 338.515 31.5051 342.775 34.6602C343.193 34.9703 343.589 35.2804 343.956 35.5905C345.286 36.6763 346.495 37.8954 347.564 39.228C347.564 39.228 351.557 44.5489 351.423 55.7592Z" fill="#FFA412"/>
<path d="M339.876 55.8797C339.762 54.2504 339.037 40.36 344.03 35.6519C343.814 35.4546 343.587 35.269 343.35 35.0957C338.024 40.5101 337.601 54.1791 337.624 55.9043L324.481 56.0421C324.091 46.1977 318.536 36.4099 317.869 35.3172C317.602 35.5559 317.349 35.8098 317.113 36.0777C318.078 37.734 321.705 47.2191 322.053 56.0667L310.316 56.1898C310.316 56.1898 321.265 58.9536 329.512 58.8551C337.76 58.7567 351.429 55.7591 351.429 55.7591L339.876 55.8797Z" fill="#E27F2B"/>
</svg>
