<svg width="25" height="26" viewBox="0 0 25 26" fill="none" xmlns="http://www.w3.org/2000/svg">
<path d="M12.7756 0.500044C8.43335 0.488416 4.61217 2.78202 2.42824 6.24713C2.33143 6.4012 2.43963 6.60468 2.61901 6.60468H4.62072C4.75739 6.60468 4.88552 6.54364 4.97094 6.43608C5.17026 6.18899 5.38381 5.95062 5.60876 5.72387C6.537 4.77911 7.61615 4.03492 8.81775 3.51748C10.0592 2.9826 11.3804 2.70934 12.7443 2.70934C14.1082 2.70934 15.4293 2.97969 16.6708 3.51748C17.8724 4.03492 18.9515 4.77911 19.8798 5.72387C20.808 6.66864 21.5341 7.77038 22.0438 8.99422C22.5706 10.2617 22.8354 11.6076 22.8354 13C22.8354 14.3925 22.5677 15.7384 22.0438 17.0058C21.537 18.2297 20.808 19.3314 19.8798 20.2762C18.9515 21.2209 17.8724 21.9651 16.6708 22.4826C15.4284 23.0183 14.093 23.2932 12.7443 23.2907C11.3804 23.2907 10.0592 23.0174 8.81775 22.4826C7.61851 21.9657 6.52876 21.2164 5.60876 20.2762C5.38381 20.0465 5.17311 19.8081 4.97094 19.564C4.88552 19.4564 4.75454 19.3954 4.62072 19.3954H2.61901C2.43963 19.3954 2.32858 19.5988 2.42824 19.7529C4.60933 23.2093 8.41342 25.5 12.7443 25.5C19.4698 25.5 24.931 19.9738 24.9994 13.1279C25.0677 6.17155 19.5979 0.517486 12.7756 0.500044ZM9.16854 16.2558V14.0465H0.22779C0.102505 14.0465 0 13.9419 0 13.814V12.1861C0 12.0582 0.102505 11.9535 0.22779 11.9535H9.16854V9.74421C9.16854 9.54945 9.39064 9.43898 9.5387 9.56108L13.5791 12.8169C13.6063 12.8386 13.6284 12.8664 13.6435 12.8982C13.6587 12.9299 13.6665 12.9647 13.6665 13C13.6665 13.0353 13.6587 13.0702 13.6435 13.1019C13.6284 13.1336 13.6063 13.1614 13.5791 13.1832L9.5387 16.439C9.39064 16.5582 9.16854 16.4506 9.16854 16.2558Z" fill="white"/>
</svg>
