<svg width="256" height="515" viewBox="0 0 256 515" fill="none" xmlns="http://www.w3.org/2000/svg">
<path d="M50.5 66.4996C12.5748 -67.1414 -117.167 45.4514 -156 38.4996L-234.345 17.9994C-245.201 237.632 -238.228 685.89 -123.483 721.866C19.9486 766.835 -142.737 630 -27 630C61.9401 630 233 670.5 255 541C261.578 502.277 223.797 500.591 198 488C178.15 478.311 170.087 456.297 166 442C153.161 397.089 232.47 350.324 188 284.5C149.122 226.952 38.8416 306.715 15.0408 230.463C-8.7601 154.211 71.5 140.5 50.5 66.4996Z" fill="url(#paint0_linear_315_2545)" fill-opacity="0.95"/>
<path d="M41.7638 329.492C41.7638 329.492 43.9957 336.644 44.2964 337.757C44.5971 338.871 43.3424 341.844 41.5585 345.129C39.7746 348.414 35.6894 352.184 34.9811 352.281C34.2728 352.378 33.602 352.754 31.9569 352.026C30.9013 351.516 30.0189 350.766 29.4012 349.854C29.4012 349.854 26.9147 349.757 25.9144 347.946C25.1891 347.87 24.5061 347.604 23.9522 347.183C23.3982 346.762 22.9984 346.206 22.8035 345.584C22.8035 345.584 20.5397 345.303 20.0742 343.796C20.0742 343.796 21.329 340.82 21.4302 339.599C21.5314 338.378 25.2668 332.687 29.2363 327.298C29.2479 327.29 32.7317 320.851 41.7638 329.492Z" fill="#EEA886"/>
<path d="M239.069 154.974L227.802 156.547L226.961 151.904L238.228 150.33L239.069 154.974Z" fill="#446580"/>
<path d="M241 134.415C240.532 131.802 238.909 129.461 236.487 127.906C234.065 126.351 231.043 125.709 228.086 126.123C225.129 126.536 222.479 127.97 220.719 130.109C218.959 132.249 218.232 134.919 218.7 137.531C219.046 139.451 220.026 141.237 221.519 142.665C223.069 144.402 226.321 148.389 226.96 151.904L232.592 151.117L238.224 150.331C237.588 146.816 239.274 142.136 240.132 140.068C241.046 138.3 241.348 136.333 241 134.415V134.415Z" fill="#FACA7D"/>
<path d="M224.616 128.553C224.616 128.553 218.943 131.873 221.725 138.785C221.725 138.785 222.791 140.849 224.355 140.632C225.92 140.415 225.448 139.237 225.448 139.237C222.667 132.328 228.204 129.174 228.204 129.174C228.204 129.174 230.051 128.152 228.412 127.278C227.232 126.645 224.616 128.553 224.616 128.553Z" fill="#FFF8E6"/>
<path d="M-7.78738 419.037C-8.92072 416.881 -31.2471 376.362 -12.8361 351.45C-6.24716 342.533 5.30307 338.125 21.4647 338.309C24.9139 338.352 30.0746 338.878 36.6058 339.545C53.6897 341.284 79.5078 343.918 101.868 340.408C128.522 336.224 143.073 324.717 146.349 305.231C151.926 271.982 175.136 261.535 197.577 251.443C212.322 244.82 227.544 237.969 237.386 224.572C247.488 210.82 250.174 196.567 245.371 182.21C241.775 171.454 235.082 164.66 235.015 164.585L237.209 162.895C237.499 163.178 265.144 191.502 239.838 225.957C229.574 239.934 213.982 246.943 198.907 253.722C176.116 263.969 154.589 273.645 149.217 305.599C141.281 352.794 70.3428 345.563 36.2502 342.086C29.8 341.427 24.7057 340.909 21.404 340.868C6.30343 340.669 -4.39969 344.699 -10.3989 352.84C-27.9338 376.564 -10.0432 412.889 -5.52586 419.833L-7.78738 419.037Z" fill="black"/>
<path d="M35.4258 338.453C35.4258 338.453 32.7919 335.525 32.5346 334.366C32.2773 333.206 23.332 336.241 23.332 336.241C23.332 336.241 31.2885 341.168 35.4258 338.453Z" fill="#CF8C6C"/>
<path d="M37.5072 325.878C37.5072 325.878 38.814 329.183 40.4562 331.055C42.0984 332.928 26.541 333.099 26.541 333.099C26.541 333.099 27.9866 327.604 29.1257 323.467C30.0451 320.146 37.5072 325.878 37.5072 325.878Z" fill="#EEA886"/>
<path d="M35.4841 351.42C35.4841 351.42 39.7689 342.965 38.303 342.189C36.8372 341.412 35.7646 341.91 35.7646 341.91L35.7299 337.729C35.7299 337.729 33.9258 334.97 31.0317 337.502C31.0317 337.502 29.6527 334.771 27.1894 337.502C27.1894 337.502 25.3651 336.058 23.9686 337.149C22.5722 338.24 20.0742 343.79 20.0742 343.79C20.0742 343.79 20.1436 345.17 22.7601 345.645C22.7601 345.645 23.3383 347.811 25.871 348.018C25.871 348.018 26.6458 349.685 29.378 349.885C29.378 349.885 31.4365 353.489 34.9811 352.273C34.9811 352.27 35.3078 351.78 35.4841 351.42Z" fill="#DB9C7C"/>
<path d="M44.1954 338.036C44.1954 338.036 38.5663 342.025 34.403 343.016C33.4634 343.239 32.5035 343.308 31.9108 342.623C31.3181 341.939 31.694 340.324 34.0329 338.483C36.3719 336.641 38.4362 333.333 38.4362 333.333C38.4362 333.333 41.469 332.061 44.1954 338.036Z" fill="#EEA886"/>
<path d="M97.0979 235.304C97.0979 235.304 109.99 221.018 92.2119 214.686C82.4282 211.204 71.4677 218.772 58.761 242.489C58.761 242.489 42.7353 264.966 41.281 270.261C37.4098 284.34 26.9061 321.962 27.5509 328.243L42.9463 331.661C42.9463 331.661 53.8865 302.889 57.2085 290.187C59.9638 279.699 62.7422 274.948 62.7422 274.948L97.0979 235.304Z" fill="#DBDFF0"/>
<path d="M245.281 169.812C245.281 169.812 243.92 171.391 243 171.794C243 171.794 241.266 172.402 240.069 172.911C239.754 173.038 239.448 173.181 239.152 173.34C238.302 173.835 236.579 175.179 234.237 175.8C231.895 176.42 221.114 176.471 221.114 176.471L219.582 170.597L217.364 165.319C217.364 165.319 227.966 154.592 230.085 153.751C230.287 153.672 230.493 153.605 230.704 153.549C232.575 153.018 234.174 153.414 235.177 153.248C235.547 153.189 239.271 152.855 240.034 153.657C241.095 154.768 241.373 155.986 241.127 157.033C241.127 157.033 243.107 159.304 243.151 161.376C243.151 161.376 245.044 163.419 244.382 166.009C244.388 165.981 246.076 168.28 245.281 169.812Z" fill="#EEA886"/>
<path d="M115.956 200.871C115.878 201.078 115.791 201.283 115.713 201.487C115.257 202.693 114.846 203.898 114.528 205.063C113.407 209.053 112.786 213.14 112.678 217.249C113.768 221.173 94.7928 205.318 94.7928 205.318C95.3603 196.144 95.1884 186.946 94.2782 177.794C92.7517 163.285 115.956 200.871 115.956 200.871Z" fill="#EEA886"/>
<path d="M121.863 287.791C119.108 300.399 120.548 318.603 122.843 339.081C122.843 339.081 112.701 341.875 58.9948 349.474C56.8612 288.292 70.0767 231.247 70.0767 231.247C72.3896 217.858 81.7397 213.002 94.2237 204.706C94.2237 204.706 96.6407 204.79 113.618 215.46C114.806 216.205 120.308 225.853 123.737 236.591C132.286 263.298 124.789 274.325 121.863 287.791Z" fill="#FBBD0D"/>
<path d="M108.989 263.061C102.857 272.404 91.0838 278.583 84.9921 275.921C76.4545 272.138 69.1312 227.436 84.8013 219.554C84.8013 219.554 92.2894 216.233 99.5839 218.9C105.757 221.165 110.426 229.602 112.305 242.121C112.523 243.561 112.7 245.053 112.837 246.596C112.918 247.479 112.985 248.379 113.039 249.296C113.328 254.248 111.68 258.976 108.989 263.061Z" fill="#DBDFF0"/>
<path d="M127.12 164.412C127.12 164.412 133.515 172.841 130.959 174.435C128.851 175.758 134.622 184.062 135.408 185.434C136.195 186.805 131.63 188.22 130.736 189.219C129.843 190.218 128.097 201.72 124.283 202.374C120.47 203.027 102.559 199.16 97.3752 195.222C92.1913 191.283 86.2413 172.134 88.5166 163.656C90.792 155.178 115.856 149.71 127.12 164.412Z" fill="#EEA886"/>
<path d="M128.462 166.139C128.462 166.139 129.453 161.817 118.597 155.542C107.74 149.266 93.9438 157.662 91.8969 158.31C89.8499 158.959 80.8873 167.95 85.9874 178.527C94.5105 196.2 95.1177 195.641 95.1177 195.641C95.1177 195.641 95.1726 185.013 98.8762 183.93C102.892 182.752 109.255 180.913 109.255 180.913C109.255 180.913 104.806 172.9 110.25 171.266C115.694 169.631 122.633 164.765 128.462 166.139Z" fill="#754836"/>
<path d="M106.913 181.702C106.531 180.754 104.797 176.507 100.986 177.48C97.1755 178.453 99.0519 183.699 102.391 186.578C105.731 189.457 109.041 187 106.913 181.702Z" fill="#EEA886"/>
<path d="M129.773 166.031C129.773 166.031 117.92 139.817 93.1828 151.87C64.4186 165.891 89.9823 186.7 89.9823 186.7C89.9823 186.7 96.9644 174.787 129.773 166.031Z" fill="#446580"/>
<path d="M94.2207 204.706L94.5734 202.55L113.912 212.573L113.615 215.459L94.2207 204.706Z" fill="#FBBD0D"/>
<path d="M102.932 361.082C102.932 361.082 99.882 379.631 96.5716 398.63C95.8951 402.518 95.207 406.426 94.5478 410.196C94.4697 410.62 94.3945 411.044 94.3194 411.473C93.718 414.824 93.1282 418.055 92.5847 421.051C90.85 430.247 89.4275 437.238 88.7741 438.765C86.4409 444.219 61.6896 527.891 61.6896 527.891C61.6896 527.891 35.5188 532.129 34.8018 529.858C34.8018 529.858 57.775 433.588 57.5755 430.459C57.376 427.33 58.7898 339.271 58.7898 339.271C58.7898 339.271 101.894 355.994 102.932 361.082Z" fill="#FBBD0D"/>
<path d="M122.118 332.337C122.118 332.337 133.743 419.182 134.909 425.884C136.074 432.586 144.068 532.637 144.068 532.637C144.068 532.637 131.954 538.576 116.246 534.754C116.246 534.754 101.527 428.944 99.9254 425.662C93.7151 412.921 78.7707 349.499 76.0096 340.776C73.2485 332.053 59.3594 323.826 59.3594 323.826C59.3594 323.826 87.5078 312.95 122.118 332.337Z" fill="#FBBD0D"/>
<path d="M96.0391 216.527C96.0391 216.527 71.9932 219.36 81.0975 236.07C90.0254 252.46 106.069 242.256 156.141 231.6C156.141 231.6 171.201 227.452 179.12 221.554C191.771 212.129 222.505 181.638 226.714 178.854L217.48 164.806C217.48 164.806 198.155 181.449 187.039 188.152C175.922 194.854 159.414 207.927 159.414 207.927L96.0391 216.527Z" fill="#DBDFF0"/>
<path d="M1.93497 417.225C-10.8758 417.225 -20.9053 400.878 -20.9053 379.987C-20.9053 359.095 -10.8671 342.748 1.93497 342.748C14.7371 342.748 24.7752 359.095 24.7752 379.987C24.7752 400.878 14.7457 417.225 1.93497 417.225ZM1.93497 345.313C-9.05148 345.313 -17.9939 360.865 -17.9939 379.987C-17.9939 399.108 -9.05437 414.661 1.93497 414.661C12.9243 414.661 21.8638 399.105 21.8638 379.987C21.8638 360.868 12.9243 345.313 1.93497 345.313V345.313Z" fill="black"/>
<path d="M126.064 167.063L149.771 160.828C149.771 160.828 151.023 156.192 126.853 162.657C102.683 169.122 126.064 167.063 126.064 167.063Z" fill="#446580"/>
<path d="M112.837 246.596C103.184 247.411 94.334 244.634 94.334 244.634C101.299 244.785 112.057 242.18 112.294 242.121C112.519 243.562 112.701 245.053 112.837 246.596Z" fill="#A9ADBA"/>
<path d="M94.5355 410.201C94.4575 410.625 94.3823 411.049 94.3072 411.478C93.7058 414.83 93.116 418.061 92.5725 421.057C84.7663 394.781 83.4248 369.146 83.4248 369.146C84.243 377.616 94.4546 409.948 94.5355 410.201Z" fill="#C99238"/>
<path d="M115.714 201.485C115.257 202.691 114.846 203.897 114.528 205.061C105.878 202.54 101.333 197.353 101.333 197.353C108.24 199.983 115.714 201.485 115.714 201.485Z" fill="#A77860"/>
<defs>
<linearGradient id="paint0_linear_315_2545" x1="149.5" y1="349" x2="-256.5" y2="797.5" gradientUnits="userSpaceOnUse">
<stop stop-color="#3451B7"/>
<stop offset="1" stop-color="#3451B7" stop-opacity="0"/>
</linearGradient>
</defs>
</svg>
