<svg width="25" height="25" viewBox="0 0 25 25" fill="none" xmlns="http://www.w3.org/2000/svg">
<path d="M12.7756 4.40077e-05C8.43335 -0.0115839 4.61218 2.28202 2.42824 5.74713C2.33143 5.9012 2.43963 6.10468 2.61901 6.10468H4.62072C4.75739 6.10468 4.88552 6.04364 4.97094 5.93608C5.17026 5.68899 5.38381 5.45062 5.60876 5.22387C6.537 4.27911 7.61615 3.53492 8.81775 3.01748C10.0592 2.4826 11.3804 2.20934 12.7443 2.20934C14.1082 2.20934 15.4293 2.47969 16.6708 3.01748C17.8724 3.53492 18.9515 4.27911 19.8798 5.22387C20.808 6.16864 21.5341 7.27038 22.0438 8.49422C22.5706 9.76166 22.8354 11.1076 22.8354 12.5C22.8354 13.8925 22.5677 15.2384 22.0438 16.5058C21.537 17.7297 20.808 18.8314 19.8798 19.7762C18.9515 20.7209 17.8724 21.4651 16.6708 21.9826C15.4284 22.5183 14.093 22.7932 12.7443 22.7907C11.3804 22.7907 10.0592 22.5174 8.81775 21.9826C7.61851 21.4657 6.52876 20.7164 5.60876 19.7762C5.38381 19.5465 5.17311 19.3081 4.97094 19.064C4.88552 18.9564 4.75454 18.8954 4.62072 18.8954H2.61901C2.43963 18.8954 2.32858 19.0988 2.42824 19.2529C4.60933 22.7093 8.41342 25 12.7443 25C19.4698 25 24.931 19.4738 24.9994 12.6279C25.0677 5.67155 19.5979 0.0174858 12.7756 4.40077e-05ZM9.16854 15.7558V13.5465H0.22779C0.102505 13.5465 0 13.4419 0 13.314V11.6861C0 11.5582 0.102505 11.4535 0.22779 11.4535H9.16854V9.24421C9.16854 9.04945 9.39064 8.93898 9.5387 9.06108L13.5791 12.3169C13.6063 12.3386 13.6284 12.3664 13.6435 12.3982C13.6587 12.4299 13.6665 12.4647 13.6665 12.5C13.6665 12.5353 13.6587 12.5702 13.6435 12.6019C13.6284 12.6336 13.6063 12.6614 13.5791 12.6832L9.5387 15.939C9.39064 16.0582 9.16854 15.9506 9.16854 15.7558Z" fill="white"/>
</svg>
