<svg width="336" height="729" viewBox="0 0 336 729" fill="none" xmlns="http://www.w3.org/2000/svg">
<rect x="65" y="0.785645" width="69" height="190" rx="5" fill="#FCF9F2"/>
<rect x="65" y="182.786" width="69" height="165" rx="3" fill="#FCF9F2"/>
<path d="M2.52462 61.164C1.13031 58.7804 1.93226 55.7178 4.31582 54.3235L50.4713 27.324C52.8548 25.9297 55.9174 26.7317 57.3117 29.1152L63.5616 39.7994L121.437 138.737C122.831 141.121 122.029 144.183 119.646 145.577L73.4904 172.577C71.1069 173.971 68.0443 173.169 66.65 170.786L2.52462 61.164Z" fill="#FCF9F2"/>
<path d="M308.335 262.159C308.335 262.159 304.145 268.62 303.534 269.627C302.923 270.634 303.1 273.904 303.627 277.628C304.155 281.352 306.562 286.179 307.153 286.462C307.744 286.746 308.215 287.299 309.881 287.029C310.96 286.818 311.968 286.335 312.806 285.625C312.806 285.625 315.017 286.249 316.459 284.735C317.12 284.854 317.8 284.775 318.416 284.51C319.032 284.244 319.556 283.803 319.922 283.242C319.922 283.242 321.996 283.665 322.857 282.142C322.857 282.142 322.69 278.865 322.981 277.634C323.271 276.404 321.782 269.774 319.976 263.376C319.982 263.389 318.944 256.089 308.335 262.159Z" fill="#EEA886"/>
<path d="M311.087 272.721C311.087 272.721 314.306 270.547 314.897 269.484C315.488 268.42 322.37 273.834 322.37 273.834C322.37 273.834 313.855 276.524 311.087 272.721Z" fill="#CF8C6C"/>
<path d="M313.187 259.756C313.187 259.756 311.01 262.659 308.986 264.06C306.963 265.46 320.533 269.837 320.533 269.837C320.533 269.837 320.994 264.023 321.281 259.632C321.535 256.129 313.187 259.756 313.187 259.756Z" fill="#EEA886"/>
<path d="M316.727 313.872C307.557 313.872 300.098 305.388 300.098 294.957C300.098 284.525 307.557 276.041 316.727 276.041C325.896 276.041 333.355 284.525 333.355 294.957C333.355 305.388 325.896 313.872 316.727 313.872ZM316.727 277.468C308.352 277.468 301.54 285.315 301.54 294.957C301.54 304.598 308.352 312.445 316.727 312.445C325.101 312.445 331.913 304.601 331.913 294.957C331.913 285.312 325.101 277.468 316.727 277.468Z" fill="#D1D1D1"/>
<path d="M321.772 264.623L305.998 263.47C305.998 263.47 295.804 220.701 293.844 202.462C293.844 202.109 292.378 194.875 290.818 187.27C290.044 183.51 289.249 179.663 288.598 176.512L287.139 169.478C287.139 169.478 271.341 131.187 290.554 134.177C290.554 134.177 295.66 134.014 302.442 149.179C307.527 160.544 307.327 162.631 309.788 172.735C312.348 183.043 314.36 193.479 315.815 203.999C316.249 207.106 316.67 212.183 318.593 228.552C319.425 235.7 321.772 264.623 321.772 264.623Z" fill="#FA7126"/>
<path d="M334 297.417H299.46V342.729H334V297.417Z" fill="#FA7126"/>
<path d="M334 310.118H299.46V342.729H334V310.118Z" fill="#EBEBEB"/>
<path d="M334 340.962H299.46V342.729H334V340.962Z" fill="#D1D1D1"/>
<path d="M100.378 56.9443L98.5911 56.9643L98.501 49.1433L138.534 42.6459L138.32 24.367L131.408 24.447L131.388 22.6834L140.08 22.5801L140.337 44.1427L100.301 50.6402L100.378 56.9443Z" fill="#FA7126"/>
<path d="M132.003 13.7858L67 14.4351L67.2029 34.6975L132.206 34.0483L132.003 13.7858Z" fill="#E4D8BB"/>
<path d="M103.953 55.5142H95.041V114.861H103.953V55.5142Z" fill="#877373"/>
<path d="M226.567 438.51C226.567 438.51 228.867 447.445 229.178 448.792C229.489 450.139 243.65 446.431 243.65 446.431V435.503C243.65 435.503 228.226 437.037 226.567 438.51Z" fill="#5C544D"/>
<path d="M228.901 447.655C228.901 447.655 224.937 453.609 220.783 456.466C216.629 459.323 200.612 463.013 198.274 465.757C196.585 467.757 194.234 475.245 219.942 471.821C238.207 469.387 247.216 470.001 248.859 466.851C250.502 463.7 243.65 445.455 243.65 445.455C243.65 445.455 239.743 447.558 228.901 447.655Z" fill="#3C4145"/>
<path d="M212.789 588.785L172.259 175.535L178.727 174.915L219.257 588.162L212.789 588.785Z" fill="#FAA146"/>
<path d="M226.789 728.785L186.259 315.535L192.727 314.915L233.257 728.162L226.789 728.785Z" fill="#FAA146"/>
<path d="M317.532 591.786L277 165.425L283.468 164.786L324 591.142L317.532 591.786Z" fill="#FAA146"/>
<path d="M329.532 718.786L289 292.425L295.468 291.786L336 718.142L329.532 718.786Z" fill="#FAA146"/>
<path d="M176.99 190.334L176.362 183.936L280.961 173.892L281.588 180.289L176.99 190.334Z" fill="#FAA146"/>
<path d="M181.708 238.466L181.084 232.066L285.682 222.021L286.31 228.422L181.708 238.466Z" fill="#FAA146"/>
<path d="M186.431 286.596L185.803 280.195L290.404 270.15L291.032 276.551L186.431 286.596Z" fill="#FAA146"/>
<path d="M191.152 334.725L190.524 328.327L295.126 318.279L295.754 324.68L191.152 334.725Z" fill="#FAA146"/>
<path d="M195.873 382.857L195.242 376.456L299.844 366.412L300.472 372.812L195.873 382.857Z" fill="#FAA146"/>
<path d="M200.592 430.986L199.964 424.586L304.566 414.541L305.193 420.938L200.592 430.986Z" fill="#FAA146"/>
<path d="M205.313 479.116L204.686 472.715L309.284 462.67L309.912 469.071L205.313 479.116Z" fill="#FAA146"/>
<path d="M210.031 527.245L209.403 520.847L314.005 510.803L314.633 517.2L210.031 527.245Z" fill="#FAA146"/>
<path d="M214.753 575.374L214.125 568.977L318.727 558.932L319.354 565.33L214.753 575.374Z" fill="#FAA146"/>
<path d="M216.753 621.374L216.125 614.976L320.727 604.932L321.354 611.329L216.753 621.374Z" fill="#FAA146"/>
<path d="M220.753 665.374L220.125 658.976L324.727 648.932L325.354 655.329L220.753 665.374Z" fill="#FAA146"/>
<path d="M226.753 705.374L226.125 698.976L330.727 688.932L331.354 695.329L226.753 705.374Z" fill="#FAA146"/>
<path d="M88.1598 90.5117C88.1598 90.5117 89.4954 92.1486 90.4337 92.582C90.4337 92.582 92.2001 93.2487 93.439 93.7888C93.7574 93.9232 94.0675 94.0769 94.3672 94.2489C95.2287 94.7756 96.9517 96.1824 99.376 96.8725C101.8 97.5626 112.732 100.023 112.732 100.023L115.277 93.6021L117.1 88.4148C117.1 88.4148 106.976 75.4366 104.795 74.5365C104.589 74.4493 104.377 74.3747 104.161 74.3131C102.244 73.7297 100.568 74.0931 99.5229 73.8997C99.1423 73.8297 95.2855 73.3997 94.4507 74.1964C93.2887 75.2999 92.9381 76.53 93.1418 77.6068C93.1418 77.6068 90.9647 79.8671 90.8044 81.964C90.8044 81.964 88.7308 83.9876 89.2851 86.6513C89.2751 86.6513 87.4052 88.9349 88.1598 90.5117Z" fill="#EEA886"/>
<path d="M292.194 294.53L287.385 257.192C285.555 242.237 284.009 228.282 284.21 225.245C284.694 217.814 286.153 207.213 287.549 198.241C287.547 198.214 287.547 198.186 287.549 198.158C287.547 198.145 287.547 198.131 287.549 198.118L292.618 135.01C286.444 130.743 266.873 126.143 259.403 124.676H236.764C236.764 124.676 222.696 128.89 211.587 133.407C209.917 134.074 208.201 134.8 206.451 135.534C205.355 135.973 204.294 136.497 203.279 137.101C198.671 139.768 190.547 146.102 189.358 158.087C189.211 159.567 188.827 162.104 188.276 165.321C193.028 167.654 197.292 169.898 200.718 171.848C202.571 172.88 204.371 174.005 206.111 175.219L208.568 188.847C209.951 202.305 209.55 221.908 209.951 224.688C210.552 228.855 196.19 308.742 196.491 310.975C196.791 313.209 245.169 304.684 264.275 302.601C270.249 301.934 275.274 301.334 279.361 300.801C288.334 299.63 292.778 298.834 292.778 298.834C292.778 298.834 292.554 297.243 292.194 294.53Z" fill="#FA7126"/>
<path d="M205.383 174.708C202.856 173.098 199.59 170.921 188.277 165.321C167.214 154.893 141.195 135.984 136.263 133.257C128.66 129.06 104.642 100.023 104.642 100.023C105.88 95.6488 117.267 86.8711 117.267 86.8711C117.267 86.8711 153.663 120.999 161.634 125.209C168.479 128.823 202.278 132.47 211.587 133.417C213.1 133.573 213.968 133.657 213.968 133.657C223.698 146.768 210.816 178.169 205.383 174.708Z" fill="#FA7126"/>
<path d="M205.79 249.728C205.79 249.728 196.17 288.789 194.818 300.734C193.465 312.679 188.951 344.953 188.276 352.407C187.602 359.861 218.689 432.147 221.925 445.201L250.251 440.704C250.251 440.704 220.359 365.498 228.162 348.766C239.756 323.907 241.269 324.657 250.401 304.178C259.534 283.698 280.453 283.215 286.06 245.217C286.06 245.23 213.393 237.676 205.79 249.728Z" fill="#E5E6DF"/>
<path d="M259.471 66.4187C259.471 66.4187 240.661 59.4679 231.99 73.6363C223.318 87.8047 224.153 116.168 233.633 119.642C243.112 123.116 257.357 121.309 262.209 112.441C267.061 103.573 271.448 90.7717 271.225 82.1906C271.001 73.6096 264.409 68.8924 259.471 66.4187Z" fill="#EEA886"/>
<path d="M236.791 118.785C236.791 118.785 237.553 123.662 236.294 126.066C235.035 128.47 259.955 128.533 259.955 128.533C259.955 128.533 261.975 115.461 265.812 104.417C269.648 93.372 236.791 118.785 236.791 118.785Z" fill="#EEA886"/>
<path d="M265.811 104.403C265.811 104.403 264.092 107.21 257.073 106.12C250.054 105.03 241.489 95.7855 238.557 94.7854C235.626 93.7853 235.599 92.0651 235.599 92.0651L233.766 94.732L230.654 94.9287C230.654 94.9287 233.492 86.6611 229.208 83.2907C224.924 79.9203 233.652 56.5341 256.165 64.3184C256.165 64.3184 273.455 69.0356 272.827 78.7668C272.199 88.498 269.678 99.5693 265.811 104.403Z" fill="#3A3F47"/>
<path d="M236.053 88.5314C236.447 86.9012 240.641 82.2373 242.251 87.2279C243.86 92.2185 239.823 98.9393 237.576 98.3659C235.329 97.7925 235.068 92.6686 236.053 88.5314Z" fill="#EEA886"/>
<path d="M287.476 251.495C287.476 251.495 268.186 259.799 205.09 254.455C205.09 254.455 196.712 305.064 196.004 314.709L293.861 300.607C293.861 300.607 292.398 267.79 287.476 251.495Z" fill="#E5E6DF"/>
<path d="M271.959 91.0684C271.959 91.0684 251.063 77.1334 226.958 82.4907C226.958 82.4907 228.019 52.5771 255.601 57.361C281.516 61.8515 272.807 87.678 271.959 91.0684Z" fill="#FA7126"/>
<path d="M248.858 466.851C247.212 470.001 238.203 469.387 219.942 471.818C215.961 472.396 211.943 472.69 207.921 472.698L206.855 461.827C212.198 459.986 218.412 458.089 220.773 456.463C224.927 453.609 228.89 447.655 228.89 447.655C239.733 447.558 243.639 445.455 243.639 445.455C243.639 445.455 250.498 463.7 248.858 466.851Z" fill="#3C4145"/>
<path d="M229.087 78.1934C229.087 78.1934 221.304 79.3968 221.915 82.1938C222.326 84.0441 228.153 82.6906 228.153 82.6906L229.087 78.1934Z" fill="#FA7126"/>
<path d="M236.775 124.649C236.775 124.649 252.115 121.119 260.756 124.006L262.062 125.203C262.062 125.203 264.693 130.203 254.802 130.613C244.912 131.023 229.375 131.757 236.775 124.649Z" fill="#FA7126"/>
<path d="M296.715 480.299C296.715 480.299 299.016 489.233 299.327 490.58C299.637 491.927 313.798 488.22 313.798 488.22V477.292C313.798 477.292 298.375 478.829 296.715 480.299Z" fill="#5C544D"/>
<path d="M318.583 485.616L292.124 488.617C292.124 488.617 274.934 394.705 270.874 385.104C268.055 378.437 257.494 343.432 251.069 320.07C249.951 316.002 248.962 312.289 248.154 309.138C246.922 304.314 246.127 300.804 246.004 299.39C245.336 291.723 286.073 245.227 286.073 245.227C286.073 245.227 291.236 266.3 292.752 287.396C294.167 306.891 296.739 328.277 298.785 348.67C301.059 371.399 307.561 408.147 307.901 420.308C308.242 432.47 318.583 485.616 318.583 485.616Z" fill="#E5E6DF"/>
<path d="M299.046 489.45C299.046 489.45 295.086 495.404 290.932 498.261C286.778 501.118 270.76 504.808 268.423 507.555C266.733 509.536 264.382 517.043 290.09 513.616C308.355 511.182 317.364 511.796 319.007 508.649C320.65 505.502 313.798 487.253 313.798 487.253C313.798 487.253 309.891 489.35 299.046 489.45Z" fill="#3C4145"/>
<path d="M280.511 157.743C280.511 157.743 280.511 142.324 277.616 129.073C277.616 129.073 273.114 126.739 270.657 127.196C270.657 127.196 274.039 144.411 272.841 161.16C272.149 170.858 280.511 157.743 280.511 157.743Z" fill="#E5E6DF"/>
<path d="M231.458 157.743C231.458 157.743 230.887 139.574 218.188 130.863C218.188 130.863 220.392 128.253 224.827 128.529C224.827 128.529 236.484 137.067 239.068 157.113C241.653 177.159 231.458 157.743 231.458 157.743Z" fill="#E5E6DF"/>
<path d="M306.98 285.499C306.98 285.499 305.871 275.994 307.397 275.627C308.923 275.261 309.705 276.044 309.705 276.044L311.04 271.927C311.04 271.927 313.481 269.697 315.224 272.98C315.224 272.98 317.284 270.647 318.587 274.031C318.587 274.031 320.637 273.1 321.515 274.557C322.393 276.014 322.851 282.155 322.851 282.155C322.851 282.155 322.356 283.488 319.916 283.255C319.916 283.255 318.73 285.232 316.453 284.748C316.453 284.748 315.254 286.185 312.8 285.639C312.8 285.639 309.871 288.639 307.147 286.475C307.153 286.475 307.023 285.899 306.98 285.499Z" fill="#DB9C7C"/>
<path d="M303.537 269.93C303.537 269.93 307.21 275.391 310.549 277.501C311.304 277.978 312.122 278.304 312.853 277.791C313.585 277.278 313.765 275.577 312.289 273.124C310.813 270.67 310.045 266.846 310.045 266.846C310.045 266.846 307.791 264.776 303.537 269.93Z" fill="#EEA886"/>
<path d="M290.815 187.28C290.04 183.519 289.246 179.672 288.595 176.522C288.595 176.522 288.928 157.273 288.461 152.422C288.478 152.409 293.046 167.808 290.815 187.28Z" fill="#A84C1A"/>
<path d="M270.65 280.091C270.363 280.621 251.787 314.592 251.069 320.063C249.951 315.996 248.962 312.282 248.154 309.132C248.154 309.132 253.106 298.657 255.32 295.983C257.534 293.31 269.368 281.531 270.65 280.091Z" fill="#B3AEAE"/>
</svg>
