<svg width="358" height="1658" viewBox="0 0 358 1658" fill="none" xmlns="http://www.w3.org/2000/svg">
<path d="M241.335 248.374C241.335 248.374 237.145 254.834 236.534 255.841C235.923 256.848 236.1 260.118 236.627 263.842C237.155 267.566 239.562 272.393 240.153 272.677C240.744 272.96 241.215 273.513 242.881 273.243C243.961 273.033 244.968 272.549 245.807 271.84C245.807 271.84 248.017 272.463 249.46 270.95C250.12 271.068 250.8 270.99 251.416 270.724C252.032 270.458 252.556 270.017 252.922 269.456C252.922 269.456 254.996 269.88 255.857 268.356C255.857 268.356 255.69 265.079 255.981 263.849C256.271 262.619 254.782 255.988 252.976 249.59C252.982 249.604 251.944 242.303 241.335 248.374Z" fill="#EEA886"/>
<path d="M244.087 258.934C244.087 258.934 247.306 256.76 247.897 255.697C248.488 254.634 255.37 260.048 255.37 260.048C255.37 260.048 246.855 262.738 244.087 258.934Z" fill="#CF8C6C"/>
<path d="M246.187 245.97C246.187 245.97 244.01 248.873 241.986 250.273C239.963 251.674 253.533 256.051 253.533 256.051C253.533 256.051 253.994 250.237 254.281 245.846C254.535 242.342 246.187 245.97 246.187 245.97Z" fill="#EEA886"/>
<path d="M249.727 300.087C240.557 300.087 233.098 291.603 233.098 281.171C233.098 270.74 240.557 262.256 249.727 262.256C258.896 262.256 266.355 270.74 266.355 281.171C266.355 291.603 258.896 300.087 249.727 300.087ZM249.727 263.683C241.352 263.683 234.54 271.53 234.54 281.171C234.54 290.813 241.352 298.66 249.727 298.66C258.101 298.66 264.913 290.816 264.913 281.171C264.913 271.527 258.101 263.683 249.727 263.683V263.683Z" fill="#D1D1D1"/>
<path d="M254.772 250.837L238.998 249.684C238.998 249.684 228.804 206.915 226.844 188.676C226.844 188.323 225.378 181.088 223.818 173.484C223.044 169.724 222.249 165.877 221.598 162.726L220.139 155.692C220.139 155.692 204.341 117.401 223.554 120.391C223.554 120.391 228.66 120.228 235.442 135.393C240.527 146.758 240.327 148.845 242.788 158.949C245.348 169.257 247.36 179.693 248.815 190.213C249.249 193.32 249.67 198.397 251.593 214.766C252.425 221.913 254.772 250.837 254.772 250.837Z" fill="#FA7126"/>
<path d="M267 283.631H232.46V328.943H267V283.631Z" fill="#FA7126"/>
<path d="M267 296.332H232.46V328.943H267V296.332Z" fill="#EBEBEB"/>
<path d="M267 327.176H232.46V328.942H267V327.176Z" fill="#D1D1D1"/>
<path d="M33.3774 43.1591L31.591 43.1791L31.5009 35.3582L71.5337 28.8607L71.32 10.5818L64.408 10.6618L64.388 8.89827L73.0798 8.79492L73.3369 30.3575L33.3006 36.855L33.3774 43.1591Z" fill="#FA7126"/>
<path d="M65.0029 -0.000780001L0 0.648438L0.202878 20.9109L65.2058 20.2617L65.0029 -0.000780001Z" fill="#253F9B"/>
<path d="M36.9537 41.7285H28.0415V101.076H36.9537V41.7285Z" fill="#877373"/>
<path d="M159.567 424.726C159.567 424.726 161.867 433.66 162.178 435.007C162.488 436.354 176.65 432.647 176.65 432.647V421.719C176.65 421.719 161.226 423.252 159.567 424.726Z" fill="#5C544D"/>
<path d="M161.901 433.87C161.901 433.87 157.937 439.824 153.783 442.681C149.629 445.538 133.612 449.229 131.274 451.972C129.585 453.973 127.234 461.46 152.942 458.036C171.207 455.603 180.216 456.216 181.859 453.066C183.502 449.915 176.65 431.67 176.65 431.67C176.65 431.67 172.743 433.774 161.901 433.87Z" fill="#3C4145"/>
<path d="M145.789 574.999L105.259 161.749L111.727 161.129L152.257 574.376L145.789 574.999Z" fill="#FAA146"/>
<path d="M159.789 714.999L119.259 301.749L125.727 301.129L166.257 714.376L159.789 714.999Z" fill="#FAA146"/>
<path d="M159.789 714.999L119.259 301.749L125.727 301.129L166.257 714.376L159.789 714.999Z" fill="#FAA146"/>
<path d="M250.532 578L210 151.64L216.468 151L257 577.357L250.532 578Z" fill="#FAA146"/>
<path d="M262.532 705L222 278.64L228.468 278L269 704.357L262.532 705Z" fill="#FAA146"/>
<path d="M109.991 176.547L109.363 170.15L213.961 160.105L214.589 166.503L109.991 176.547Z" fill="#FAA146"/>
<path d="M114.709 224.68L114.084 218.279L218.683 208.234L219.31 214.635L114.709 224.68Z" fill="#FAA146"/>
<path d="M119.43 272.811L118.803 266.41L223.404 256.365L224.032 262.766L119.43 272.811Z" fill="#FAA146"/>
<path d="M124.152 320.939L123.524 314.542L228.126 304.494L228.754 310.895L124.152 320.939Z" fill="#FAA146"/>
<path d="M128.873 369.072L128.242 362.672L232.844 352.627L233.472 359.028L128.873 369.072Z" fill="#FAA146"/>
<path d="M133.592 417.201L132.964 410.8L237.565 400.756L238.193 407.153L133.592 417.201Z" fill="#FAA146"/>
<path d="M138.313 465.33L137.685 458.929L242.284 448.885L242.911 455.286L138.313 465.33Z" fill="#FAA146"/>
<path d="M143.031 513.46L142.404 507.062L247.005 497.018L247.633 503.415L143.031 513.46Z" fill="#FAA146"/>
<path d="M147.753 561.588L147.125 555.191L251.727 545.146L252.355 551.544L147.753 561.588Z" fill="#FAA146"/>
<path d="M149.753 607.588L149.125 601.191L253.727 591.146L254.354 597.544L149.753 607.588Z" fill="#FAA146"/>
<path d="M153.753 651.588L153.125 645.191L257.727 635.146L258.354 641.544L153.753 651.588Z" fill="#FAA146"/>
<path d="M159.753 691.588L159.125 685.191L263.727 675.146L264.354 681.544L159.753 691.588Z" fill="#FAA146"/>
<path d="M21.1596 76.7261C21.1596 76.7261 22.4952 78.363 23.4335 78.7964C23.4335 78.7964 25.1999 79.4631 26.4387 80.0032C26.7572 80.1376 27.0672 80.2912 27.367 80.4632C28.2285 80.99 29.9515 82.3968 32.3757 83.0869C34.7999 83.777 45.7322 86.2373 45.7322 86.2373L48.2767 79.8165L50.0998 74.6292C50.0998 74.6292 39.9756 61.6509 37.7951 60.7508C37.5883 60.6636 37.3765 60.589 37.1607 60.5275C35.244 59.944 33.5678 60.3074 32.5227 60.1141C32.142 60.0441 28.2853 59.614 27.4505 60.4108C26.2884 61.5142 25.9379 62.7444 26.1416 63.8212C26.1416 63.8212 23.9644 66.0815 23.8042 68.1784C23.8042 68.1784 21.7305 70.202 22.2848 72.8656C22.2748 72.8656 20.4049 75.1492 21.1596 76.7261Z" fill="#EEA886"/>
<path d="M225.194 280.745L220.386 243.407C218.556 228.452 217.01 214.497 217.21 211.46C217.694 204.029 219.153 193.427 220.549 184.456C220.547 184.429 220.547 184.401 220.549 184.373C220.548 184.36 220.548 184.346 220.549 184.333L225.618 121.225C219.444 116.958 199.873 112.357 192.404 110.891H169.764C169.764 110.891 155.697 115.104 144.587 119.622C142.918 120.288 141.201 121.015 139.452 121.749C138.355 122.188 137.295 122.712 136.28 123.315C131.672 125.982 123.547 132.317 122.359 144.301C122.212 145.782 121.828 148.319 121.277 151.536C126.028 153.869 130.292 156.113 133.718 158.063C135.572 159.095 137.372 160.22 139.111 161.433L141.569 175.062C142.951 188.52 142.55 208.122 142.951 210.903C143.552 215.07 129.191 294.956 129.491 297.19C129.792 299.424 178.169 290.899 197.275 288.816C203.249 288.149 208.275 287.549 212.362 287.015C221.334 285.845 225.778 285.049 225.778 285.049C225.778 285.049 225.555 283.458 225.194 280.745Z" fill="#FA7126"/>
<path d="M138.383 160.923C135.855 159.313 132.59 157.136 121.277 151.535C100.214 141.108 74.195 122.199 69.2631 119.472C61.6599 115.274 37.6415 86.2375 37.6415 86.2375C38.8803 81.8637 50.2668 73.0859 50.2668 73.0859C50.2668 73.0859 86.6633 107.213 94.6338 111.424C101.479 115.038 135.278 118.685 144.587 119.632C146.1 119.788 146.968 119.872 146.968 119.872C156.698 132.983 143.816 164.384 138.383 160.923Z" fill="#FA7126"/>
<path d="M138.791 235.941C138.791 235.941 129.17 275.003 127.818 286.948C126.466 298.893 121.951 331.166 121.277 338.621C120.602 346.075 151.69 418.36 154.925 431.415L183.251 426.918C183.251 426.918 153.359 351.712 161.163 334.98C172.756 310.121 174.269 310.871 183.401 290.391C192.534 269.912 213.454 269.429 219.06 231.431C219.06 231.444 146.394 223.89 138.791 235.941Z" fill="#E5E6DF"/>
<path d="M192.471 52.6326C192.471 52.6326 173.661 45.6817 164.989 59.8501C156.318 74.0185 157.153 102.382 166.632 105.856C176.112 109.329 190.357 107.523 195.209 98.6549C200.06 89.7871 204.448 76.9856 204.224 68.4045C204.001 59.8235 197.409 55.1062 192.471 52.6326Z" fill="#EEA886"/>
<path d="M169.791 104.999C169.791 104.999 170.552 109.877 169.294 112.28C168.035 114.684 192.955 114.747 192.955 114.747C192.955 114.747 194.975 101.676 198.812 90.631C202.648 79.5864 169.791 104.999 169.791 104.999Z" fill="#EEA886"/>
<path d="M198.812 90.6171C198.812 90.6171 197.092 93.4241 190.073 92.334C183.054 91.2438 174.489 81.9994 171.557 80.9993C168.626 79.9991 168.599 78.2789 168.599 78.2789L166.766 80.9459L163.654 81.1426C163.654 81.1426 166.492 72.8749 162.208 69.5045C157.924 66.1341 166.652 42.7479 189.165 50.5322C189.165 50.5322 206.455 55.2495 205.827 64.9806C205.199 74.7118 202.678 85.7832 198.812 90.6171Z" fill="#3A3F47"/>
<path d="M169.053 74.7453C169.447 73.1151 173.641 68.4512 175.251 73.4418C176.86 78.4324 172.823 85.1532 170.576 84.5798C168.329 84.0064 168.068 78.8824 169.053 74.7453Z" fill="#EEA886"/>
<path d="M220.476 237.709C220.476 237.709 201.186 246.013 138.089 240.669C138.089 240.669 129.711 291.279 129.004 300.923L226.86 286.822C226.86 286.822 225.398 254.004 220.476 237.709Z" fill="#E5E6DF"/>
<path d="M204.959 77.2823C204.959 77.2823 184.063 63.3472 159.957 68.7046C159.957 68.7046 161.019 38.7909 188.6 43.5748C214.515 48.0654 205.807 73.8919 204.959 77.2823Z" fill="#FA7126"/>
<path d="M181.859 453.066C180.213 456.216 171.204 455.603 152.942 458.033C148.961 458.611 144.944 458.905 140.921 458.913L139.856 448.042C145.198 446.202 151.412 444.305 153.773 442.678C157.927 439.824 161.891 433.87 161.891 433.87C172.733 433.774 176.64 431.67 176.64 431.67C176.64 431.67 183.498 449.915 181.859 453.066Z" fill="#3C4145"/>
<path d="M162.088 64.4082C162.088 64.4082 154.304 65.6117 154.915 68.4087C155.326 70.2589 161.153 68.9054 161.153 68.9054L162.088 64.4082Z" fill="#FA7126"/>
<path d="M169.774 110.863C169.774 110.863 185.114 107.332 193.756 110.219L195.062 111.416C195.062 111.416 197.693 116.417 187.802 116.827C177.912 117.237 162.375 117.97 169.774 110.863Z" fill="#FA7126"/>
<path d="M229.715 466.513C229.715 466.513 232.016 475.447 232.326 476.794C232.637 478.141 246.798 474.434 246.798 474.434V463.506C246.798 463.506 231.375 465.043 229.715 466.513Z" fill="#5C544D"/>
<path d="M251.583 471.831L225.124 474.831C225.124 474.831 207.934 380.92 203.874 371.318C201.055 364.651 190.494 329.647 184.069 306.284C182.951 302.217 181.962 298.503 181.154 295.353C179.922 290.529 179.127 287.018 179.004 285.605C178.336 277.937 219.073 231.441 219.073 231.441C219.073 231.441 224.236 252.514 225.752 273.61C227.167 293.106 229.739 314.492 231.785 334.884C234.059 357.613 240.561 394.361 240.901 406.523C241.242 418.684 251.583 471.831 251.583 471.831Z" fill="#E5E6DF"/>
<path d="M232.046 475.664C232.046 475.664 228.086 481.618 223.932 484.475C219.778 487.332 203.76 491.022 201.423 493.769C199.733 495.75 197.382 503.257 223.09 499.83C241.355 497.396 250.364 498.01 252.007 494.863C253.65 491.716 246.798 473.467 246.798 473.467C246.798 473.467 242.891 475.564 232.046 475.664Z" fill="#3C4145"/>
<path d="M213.51 143.958C213.51 143.958 213.51 128.539 210.615 115.288C210.615 115.288 206.114 112.954 203.657 113.411C203.657 113.411 207.039 130.626 205.84 147.375C205.149 157.073 213.51 143.958 213.51 143.958Z" fill="#E5E6DF"/>
<path d="M164.458 143.957C164.458 143.957 163.888 125.788 151.189 117.077C151.189 117.077 153.393 114.466 157.827 114.743C157.827 114.743 169.484 123.281 172.068 143.327C174.653 163.372 164.458 143.957 164.458 143.957Z" fill="#E5E6DF"/>
<path d="M239.98 271.714C239.98 271.714 238.871 262.209 240.397 261.843C241.923 261.476 242.704 262.259 242.704 262.259L244.04 258.142C244.04 258.142 246.481 255.912 248.224 259.196C248.224 259.196 250.284 256.862 251.586 260.246C251.586 260.246 253.637 259.316 254.515 260.773C255.393 262.229 255.851 268.37 255.851 268.37C255.851 268.37 255.356 269.704 252.915 269.47C252.915 269.47 251.73 271.447 249.453 270.964C249.453 270.964 248.254 272.401 245.8 271.854C245.8 271.854 242.871 274.854 240.147 272.691C240.153 272.691 240.023 272.114 239.98 271.714Z" fill="#DB9C7C"/>
<path d="M236.537 256.145C236.537 256.145 240.21 261.606 243.549 263.716C244.304 264.193 245.122 264.519 245.853 264.006C246.585 263.492 246.765 261.792 245.289 259.339C243.813 256.885 243.045 253.061 243.045 253.061C243.045 253.061 240.791 250.991 236.537 256.145Z" fill="#EEA886"/>
<path d="M223.815 173.494C223.04 169.734 222.246 165.887 221.594 162.736C221.594 162.736 221.928 143.487 221.461 138.637C221.478 138.623 226.045 154.022 223.815 173.494Z" fill="#A84C1A"/>
<path d="M203.65 266.307C203.363 266.837 184.787 300.808 184.069 306.278C182.951 302.211 181.962 298.497 181.154 295.347C181.154 295.347 186.106 284.872 188.32 282.199C190.534 279.525 202.368 267.747 203.65 266.307Z" fill="#B3AEAE"/>
<path d="M273.424 751.642L311.795 1165.1L305.324 1165.68L266.953 752.232L273.424 751.642Z" fill="#FAA146"/>
<path d="M260.156 611.572L298.526 1025.03L292.055 1025.61L253.685 612.162L260.156 611.572Z" fill="#FAA146"/>
<path d="M260.156 611.572L298.526 1025.03L292.055 1025.61L253.685 612.162L260.156 611.572Z" fill="#FAA146"/>
<path d="M168.699 748.095L207.003 1174.66L200.531 1175.27L162.227 748.704L168.699 748.095Z" fill="#FAA146"/>
<path d="M157.362 621.034L195.666 1047.6L189.195 1048.21L150.891 621.644L157.362 621.034Z" fill="#FAA146"/>
<path d="M307.141 1150.28L307.735 1156.68L203.086 1166.17L202.491 1159.77L307.141 1150.28Z" fill="#FAA146"/>
<path d="M302.674 1102.12L303.265 1108.52L198.616 1118.02L198.021 1111.62L302.674 1102.12Z" fill="#FAA146"/>
<path d="M273.424 751.642L311.795 1165.1L305.324 1165.68L266.953 752.232L273.424 751.642Z" fill="#FAA146"/>
<path d="M307.141 1150.28L307.735 1156.68L203.086 1166.17L202.491 1159.77L307.141 1150.28Z" fill="#FAA146"/>
<path d="M302.674 1102.12L303.265 1108.52L198.616 1118.02L198.021 1111.62L302.674 1102.12Z" fill="#FAA146"/>
<path d="M298.204 1053.97L298.798 1060.37L194.146 1069.87L193.551 1063.46L298.204 1053.97Z" fill="#FAA146"/>
<path d="M293.734 1005.81L294.328 1012.21L189.676 1021.71L189.081 1015.31L293.734 1005.81Z" fill="#FAA146"/>
<path d="M289.264 957.655L289.862 964.059L185.209 973.557L184.615 967.153L289.264 957.655Z" fill="#FAA146"/>
<path d="M284.797 909.503L285.392 915.907L180.739 925.405L180.145 919.004L284.797 909.503Z" fill="#FAA146"/>
<path d="M280.327 861.348L280.922 867.752L176.272 877.25L175.678 870.846L280.327 861.348Z" fill="#FAA146"/>
<path d="M275.861 813.196L276.455 819.596L171.802 829.094L171.208 822.694L275.861 813.196Z" fill="#FAA146"/>
<path d="M271.391 765.043L271.985 771.444L167.332 780.942L166.738 774.541L271.391 765.043Z" fill="#FAA146"/>
<path d="M269.631 719.033L270.225 725.434L165.573 734.932L164.978 728.531L269.631 719.033Z" fill="#FAA146"/>
<path d="M265.861 675.012L266.455 681.413L161.802 690.911L161.208 684.51L265.861 675.012Z" fill="#FAA146"/>
<path d="M260.07 634.983L260.664 641.383L156.012 650.881L155.417 644.481L260.07 634.983Z" fill="#FAA146"/>
<path d="M230.687 1516.32L193.574 1102.75L200.047 1102.18L237.159 1515.75L230.687 1516.32Z" fill="#FAA146"/>
<path d="M243.529 1656.43L206.416 1242.86L212.889 1242.29L250.001 1655.86L243.529 1656.43Z" fill="#FAA146"/>
<path d="M243.529 1656.43L206.416 1242.86L212.889 1242.29L250.001 1655.86L243.529 1656.43Z" fill="#FAA146"/>
<path d="M335.401 1520.19L298.395 1093.5L304.869 1092.92L341.874 1519.6L335.401 1520.19Z" fill="#FAA146"/>
<path d="M346.35 1647.28L309.345 1220.6L315.818 1220.01L352.823 1646.69L346.35 1647.28Z" fill="#FAA146"/>
<path d="M198.183 1117.59L197.609 1111.18L302.286 1102L302.861 1108.41L198.183 1117.59Z" fill="#FAA146"/>
<path d="M202.503 1165.75L201.932 1159.35L306.61 1150.17L307.185 1156.58L202.503 1165.75Z" fill="#FAA146"/>
<path d="M230.687 1516.32L193.574 1102.75L200.047 1102.18L237.159 1515.75L230.687 1516.32Z" fill="#FAA146"/>
<path d="M198.183 1117.59L197.609 1111.18L302.286 1102L302.861 1108.41L198.183 1117.59Z" fill="#FAA146"/>
<path d="M202.503 1165.75L201.932 1159.35L306.61 1150.17L307.185 1156.58L202.503 1165.75Z" fill="#FAA146"/>
<path d="M206.827 1213.92L206.252 1207.52L310.933 1198.34L311.508 1204.74L206.827 1213.92Z" fill="#FAA146"/>
<path d="M211.15 1262.09L210.576 1255.69L315.257 1246.51L315.832 1252.91L211.15 1262.09Z" fill="#FAA146"/>
<path d="M215.474 1310.26L214.896 1303.85L319.577 1294.68L320.152 1301.08L215.474 1310.26Z" fill="#FAA146"/>
<path d="M219.794 1358.43L219.219 1352.02L323.9 1342.84L324.475 1349.24L219.794 1358.43Z" fill="#FAA146"/>
<path d="M224.117 1406.59L223.542 1400.19L328.22 1391.01L328.795 1397.41L224.117 1406.59Z" fill="#FAA146"/>
<path d="M228.437 1454.76L227.863 1448.36L332.544 1439.18L333.119 1445.58L228.437 1454.76Z" fill="#FAA146"/>
<path d="M232.761 1502.93L232.186 1496.52L336.867 1487.34L337.442 1493.75L232.761 1502.93Z" fill="#FAA146"/>
<path d="M234.38 1548.94L233.806 1542.54L338.487 1533.36L339.062 1539.76L234.38 1548.94Z" fill="#FAA146"/>
<path d="M238.016 1592.97L237.442 1586.57L342.123 1577.39L342.698 1583.79L238.016 1592.97Z" fill="#FAA146"/>
<path d="M243.685 1633.02L243.111 1626.62L347.792 1617.44L348.367 1623.84L243.685 1633.02Z" fill="#FAA146"/>
</svg>
