<svg width="1054" height="827" viewBox="0 0 1054 827" fill="none" xmlns="http://www.w3.org/2000/svg">
<path d="M462.5 469.5C435 361.5 532.5 239 462.5 151.5C411.705 88.0061 357.224 54.7171 296 39C272.852 33.0576 251.5 30 223.5 30C170.573 30 102.764 55.2982 55.5001 45.5C34.0266 41.0484 -3.74786 19.3051 2.50014 -3.5C2.50017 -105 0.000152588 -85.5 63.0002 -129.5L32.3817 -209.5L1162.88 -219C1157.05 117 1103.1 733.7 1089.5 740.5C1078.18 746.161 1068.5 826.5 1020 826.5C974 830 964 811 957.5 800.5C946.39 782.552 955.176 729.499 941 699C929.937 675.197 898.513 656.651 859.5 643.5C770.5 613.5 695.882 640 611.382 620C542.299 603.649 497.096 567.522 472 501.5C466.399 486.765 466.829 486.5 462.5 469.5Z" fill="url(#paint0_linear_32_793)" fill-opacity="0.97"/>
<rect x="753" y="316" width="69" height="190" rx="5" fill="#FCF9F2"/>
<rect x="753" y="498" width="69" height="165" rx="3" fill="#FCF9F2"/>
<path d="M690.525 376.378C689.13 373.995 689.932 370.932 692.316 369.538L738.471 342.538C740.855 341.144 743.917 341.946 745.312 344.33L751.562 355.014L809.437 453.951C810.831 456.335 810.029 459.397 807.646 460.792L761.49 487.791C759.107 489.186 756.044 488.384 754.65 486L690.525 376.378Z" fill="#FCF9F2"/>
<circle cx="1054" cy="289" r="15" fill="#FCF9F2"/>
<path fill-rule="evenodd" clip-rule="evenodd" d="M484.969 266.967C491.102 225.482 489.103 186.369 462.008 152.5C429.519 111.889 395.522 83.6348 359.218 64.4316C384.985 38.1408 418.527 19.5 451 19.5C517.274 19.5 572.5 129.144 572.5 191C572.5 236.953 532.638 258.781 484.969 266.967Z" fill="#7C60E3" fill-opacity="0.35"/>
<path d="M1000 0C1049.5 0 988.921 150.5 947.5 150.5C924.144 150.5 855.34 171.689 825.5 141.5C802.419 118.15 789.5 41.0652 789.5 23C789.5 -18.4214 883.579 -75 925 -75C966.421 -75 1000 -41.4214 1000 0Z" fill="#1D3073" fill-opacity="0.37"/>
<path d="M650.5 452C650.5 482.652 624.533 510.5 592.5 510.5C560.467 510.5 555 482.652 555 452C555 421.348 581.467 412 613.5 412C645.533 412 650.5 421.348 650.5 452Z" fill="#5770C8" fill-opacity="0.55"/>
<path fill-rule="evenodd" clip-rule="evenodd" d="M0 3.23412C0 1.57272 0.221031 -0.101208 0.688335 -1.78099C0.688342 -28.5914 0.508493 -46.829 1.46095 -60H429V51H328.738C325.182 49.6324 321.602 48.337 318 47.111C310.169 44.446 290.558 38.0371 282.5 36C262.673 30.9872 252.726 31.0469 232.683 31.167C229.328 31.1872 225.69 31.209 221.675 31.209C199.514 31.209 174.743 35.5773 149.964 39.9471C115.568 46.0129 81.1559 52.0815 53.6851 46.473C33.819 42.4171 0 23.7848 0 3.23412Z" fill="url(#paint1_linear_32_793)"/>
<path d="M267.5 32C267 30.6667 313.893 39.6419 323.093 40.0419C326.788 40.9658 390.737 43.3499 377.5 46C374.024 46.6961 341 50 326 49C322.9 48.7934 314.173 48.5246 306 46C295.304 42.6958 265.335 33.5706 257.5 30.5C253.933 29.102 267.637 32.342 267.5 32Z" fill="#203684"/>
<path d="M252.5 31C255.3 31.4 265.667 34 271 35L265.5 23C259.667 25.6667 249.7 30.6 252.5 31Z" fill="#203580"/>
<defs>
<linearGradient id="paint0_linear_32_793" x1="1058.5" y1="-1.00002" x2="327" y2="673.5" gradientUnits="userSpaceOnUse">
<stop stop-color="#6236DF"/>
<stop offset="0.252459" stop-color="#2340A7"/>
<stop offset="1" stop-color="#111F52"/>
</linearGradient>
<linearGradient id="paint1_linear_32_793" x1="429" y1="19.5" x2="1.39592e-05" y2="13" gradientUnits="userSpaceOnUse">
<stop stop-color="#1F347D" stop-opacity="0"/>
<stop offset="0.18157" stop-color="#1F347D" stop-opacity="0"/>
<stop offset="0.623276" stop-color="#1F347D"/>
<stop offset="1" stop-color="#1F347D"/>
</linearGradient>
</defs>
</svg>
