<svg width="151" height="201" viewBox="0 0 151 201" fill="none" xmlns="http://www.w3.org/2000/svg">
<g clip-path="url(#clip0_370_963)">
<path d="M140.073 10.4214V190.465H10.4353L10.4353 10.4214H140.073ZM139.207 189.637V11.2524H11.3013L11.3013 189.637H139.207Z" fill="#02092C"/>
<path d="M4.57832 185.208C6.22986 186.58 8.36173 187.301 10.5448 187.225C12.7279 187.149 14.8001 186.283 16.3444 184.8C14.7997 186.283 13.8974 188.271 13.8192 190.366C13.741 192.461 14.4927 194.507 15.9229 196.092C14.2697 194.723 12.139 194.005 9.95726 194.08C7.77556 194.155 5.70386 195.018 4.15686 196.496C5.70136 195.014 6.60353 193.026 6.68173 190.931C6.75993 188.837 6.00835 186.792 4.57832 185.208Z" fill="#02092C"/>
<path d="M83.9242 190.062C81.0243 190.062 78.232 191.116 76.1095 193.012C73.9869 194.908 72.6916 197.506 72.4843 200.281C72.2757 197.506 70.98 194.909 68.8577 193.014C66.7354 191.118 63.9439 190.063 61.0444 190.062H83.9242Z" fill="#02092C"/>
<path d="M15.9229 4.86379C14.4923 6.44761 13.7403 8.49294 13.8185 10.5877C13.8967 12.6824 14.7993 14.6708 16.3444 16.1523C14.7994 14.6706 12.7271 13.8051 10.5442 13.7301C8.36133 13.6551 6.2298 14.376 4.57832 15.7479C6.00855 14.1633 6.76021 12.1177 6.68201 10.0227C6.60381 7.92767 5.70156 5.93888 4.15686 4.45657C5.70348 5.93519 7.77499 6.7987 9.9567 6.87421C12.1384 6.94972 14.2693 6.23164 15.9229 4.86379V4.86379Z" fill="#02092C"/>
<path d="M145.254 15.7451C143.603 14.3736 141.471 13.6531 139.288 13.7287C137.105 13.8042 135.033 14.6702 133.488 16.1523C135.033 14.67 135.935 12.6812 136.013 10.5862C136.092 8.49125 135.34 6.44558 133.91 4.86101C135.561 6.23291 137.693 6.95384 139.876 6.87881C142.059 6.80377 144.131 5.93835 145.676 4.45657C144.131 5.93841 143.229 7.92678 143.151 10.0213C143.073 12.1159 143.824 14.161 145.254 15.7451V15.7451Z" fill="#02092C"/>
<path d="M133.91 196.092C135.34 194.507 136.092 192.461 136.013 190.366C135.935 188.271 135.033 186.283 133.488 184.8C135.033 186.283 137.105 187.149 139.288 187.224C141.471 187.299 143.603 186.577 145.254 185.205C143.824 186.789 143.072 188.835 143.151 190.93C143.229 193.025 144.131 195.014 145.676 196.496C144.131 195.014 142.059 194.149 139.876 194.074C137.693 193.999 135.561 194.72 133.91 196.092V196.092Z" fill="#02092C"/>
<path d="M61.0444 10.5C63.9441 10.4995 66.736 9.44513 68.8584 7.54916C70.9809 5.65318 72.2764 3.05628 72.4843 0.280769C72.6923 3.05628 73.9878 5.65318 76.1102 7.54916C78.2326 9.44513 81.0245 10.4995 83.9242 10.5L61.0444 10.5Z" fill="#02092C"/>
<path d="M10.8799 111.426C10.88 108.643 9.78159 105.963 7.80577 103.926C5.82994 101.889 3.1234 100.646 0.230957 100.447C3.12291 100.247 5.82866 99.0038 7.80422 96.9672C9.77977 94.9305 10.8786 92.2517 10.8799 89.4692L10.8799 111.426Z" fill="#02092C"/>
<path d="M139.582 89.4692C139.582 92.252 140.68 94.9316 142.656 96.9685C144.632 99.0055 147.339 100.249 150.231 100.447C147.339 100.646 144.632 101.889 142.656 103.926C140.68 105.963 139.582 108.643 139.582 111.426V89.4692Z" fill="#02092C"/>
</g>
<defs>
<clipPath id="clip0_370_963">
<rect width="200" height="150" fill="white" transform="translate(0.230957 200.281) rotate(-90)"/>
</clipPath>
</defs>
</svg>
