<svg width="151" height="201" viewBox="0 0 151 201" fill="none" xmlns="http://www.w3.org/2000/svg">
<path d="M140.073 10.4253V190.469H10.4355L10.4355 10.4253H140.073ZM139.207 189.64V11.2563H11.3015L11.3015 189.64H139.207Z" fill="#02092C"/>
<path d="M4.57771 185.208C6.22925 186.58 8.36112 187.301 10.5442 187.225C12.7273 187.149 14.7995 186.283 16.3438 184.8C14.7991 186.283 13.8968 188.271 13.8186 190.366C13.7404 192.461 14.4921 194.507 15.9223 196.092C14.2691 194.723 12.1384 194.005 9.95665 194.08C7.77495 194.155 5.70325 195.018 4.15625 196.496C5.70075 195.014 6.60292 193.026 6.68112 190.931C6.75932 188.837 6.00774 186.792 4.57771 185.208Z" fill="#02092C"/>
<path d="M83.9227 190.064C81.0228 190.064 78.2306 191.118 76.108 193.014C73.9854 194.91 72.6901 197.507 72.4828 200.283C72.2742 197.508 70.9785 194.911 68.8562 193.015C66.7339 191.12 63.9424 190.065 61.043 190.064H83.9227Z" fill="#02092C"/>
<path d="M15.9223 4.86574C14.4916 6.44957 13.7396 8.49489 13.8179 10.5896C13.8961 12.6843 14.7987 14.6728 16.3438 16.1543C14.7988 14.6725 12.7265 13.8071 10.5436 13.7321C8.36072 13.657 6.22919 14.378 4.57771 15.7499C6.00794 14.1653 6.7596 12.1196 6.6814 10.0246C6.6032 7.92962 5.70095 5.94083 4.15625 4.45853C5.70287 5.93714 7.77438 6.80065 9.95609 6.87616C12.1378 6.95167 14.2687 6.23359 15.9223 4.86574V4.86574Z" fill="#02092C"/>
<path d="M145.254 15.7471C143.603 14.3755 141.471 13.6551 139.288 13.7306C137.105 13.8062 135.033 14.6721 133.488 16.1543C135.033 14.672 135.935 12.6832 136.013 10.5882C136.092 8.4932 135.34 6.44753 133.91 4.86297C135.561 6.23487 137.693 6.95579 139.876 6.88076C142.059 6.80573 144.131 5.94031 145.676 4.45853C144.131 5.94037 143.229 7.92874 143.151 10.0233C143.073 12.1178 143.824 14.163 145.254 15.7471V15.7471Z" fill="#02092C"/>
<path d="M133.91 196.092C135.34 194.507 136.092 192.461 136.013 190.366C135.935 188.271 135.033 186.283 133.488 184.8C135.033 186.283 137.105 187.149 139.288 187.224C141.471 187.299 143.603 186.577 145.254 185.205C143.824 186.789 143.072 188.835 143.151 190.93C143.229 193.025 144.131 195.014 145.676 196.496C144.131 195.014 142.059 194.149 139.876 194.074C137.693 193.999 135.561 194.72 133.91 196.092V196.092Z" fill="#02092C"/>
<path d="M61.043 10.502C63.9426 10.5014 66.7345 9.44708 68.857 7.55111C70.9794 5.65514 72.2749 3.05823 72.4828 0.282722C72.6908 3.05823 73.9863 5.65514 76.1087 7.55111C78.2312 9.44708 81.023 10.5014 83.9227 10.502L61.043 10.502Z" fill="#02092C"/>
<path d="M10.8794 111.426C10.8795 108.643 9.7811 105.963 7.80528 103.926C5.82946 101.889 3.12292 100.646 0.230469 100.447C3.12242 100.247 5.82817 99.0038 7.80373 96.9672C9.77928 94.9305 10.8782 92.2517 10.8794 89.4692L10.8794 111.426Z" fill="#02092C"/>
<path d="M139.582 89.4692C139.582 92.252 140.68 94.9316 142.656 96.9685C144.632 99.0055 147.339 100.249 150.231 100.447C147.339 100.646 144.632 101.889 142.656 103.926C140.68 105.963 139.582 108.643 139.582 111.426V89.4692Z" fill="#02092C"/>
</svg>
