<svg width="285" height="710" viewBox="0 0 285 710" fill="none" xmlns="http://www.w3.org/2000/svg">
<path d="M107.35 264.5C114.159 204.493 375 126 251.85 9.5L231.5 -6.5L107.35 -89C30.0172 -78.8333 -137.45 -26 -188.65 104C-252.65 266.5 -419.5 901.5 -304 653C-275.769 592.261 182.35 576.5 182.35 417.5C182.35 364.215 98.5001 342.5 107.35 264.5Z" fill="url(#paint0_linear_355_498)"/>
<ellipse cx="123" cy="367" rx="100" ry="98" fill="#4962BE" fill-opacity="0.42"/>
<path fill-rule="evenodd" clip-rule="evenodd" d="M106.856 270.27C59.3041 277.833 23 318.261 23 366.999C23 421.123 67.7715 464.999 123 464.999C142.099 464.999 159.947 459.752 175.126 450.649C179.821 440.338 182.35 429.314 182.35 417.499C182.35 394.144 166.241 376.853 148.889 358.23C127.648 335.431 104.546 310.635 106.856 270.27Z" fill="#5B6BBE" fill-opacity="0.92"/>
<circle cx="82" cy="59" r="30" fill="#4760BD" fill-opacity="0.49"/>
<defs>
<linearGradient id="paint0_linear_355_498" x1="-597.5" y1="-244.5" x2="680.5" y2="234" gradientUnits="userSpaceOnUse">
<stop offset="0.0163897" stop-color="#3451B7" stop-opacity="0"/>
<stop offset="0.742736" stop-color="#3451B7"/>
</linearGradient>
</defs>
</svg>
