<svg width="51" height="52" viewBox="0 0 51 52" fill="none" xmlns="http://www.w3.org/2000/svg">
<path d="M49.98 19.11L47.22 14.31L42.91 14.94L39.34 10.47L41.14 5.97L36.33 2.77L32.74 6.4L28.01 5.57L26.14 0L20.39 0.610001L20.06 5.48L15.78 7.65L11.24 4.44L6.64001 7.79L9.03003 12.94L6.29004 17.11L1.29004 16.84L0 22.98L4.73004 24.8L5.14001 29.96L0.230042 32.77L2.57001 38.09L7.65002 37.3L11.04 41.11L9.28003 45.94L13.93 49.23L17.56 45.3L22.56 46.66L24.13 51.86L29.73 51.49L30.45 46.82L35.25 44.06L39.18 47.19L44.18 43.49L41.67 39.12L44.12 34.74L49.12 35.11L50.67 29.4L46.37 27.11L45.79 21.91L49.98 19.11ZM30.48 35.91C28.5385 37.0253 26.3097 37.5397 24.0757 37.3882C21.8418 37.2367 19.703 36.4261 17.9297 35.0589C16.1565 33.6917 14.8285 31.8293 14.1138 29.7074C13.3991 27.5854 13.3298 25.2991 13.9146 23.1378C14.4993 20.9764 15.712 19.037 17.399 17.5648C19.0861 16.0926 21.1719 15.1539 23.3926 14.8672C25.6132 14.5806 27.869 14.959 29.8746 15.9545C31.8802 16.95 33.5456 18.5179 34.66 20.46C36.1439 23.059 36.5371 26.1402 35.7537 29.0286C34.9702 31.917 33.0739 34.3771 30.48 35.87V35.91Z" fill="#EBEBEB"/>
</svg>
