<svg width="32" height="32" viewBox="0 0 32 32" fill="none" xmlns="http://www.w3.org/2000/svg">
<path d="M30.84 11.78L29.14 8.78L26.49 9.17L24.24 6.46L25.37 3.71L22.37 1.71L20.16 3.94L17.25 3.43L16.07 0L12.53 0.379997L12.33 3.38L9.69998 4.72L6.91 2.72L4.07999 4.78L5.54999 7.95L3.85999 10.48L0.799988 10.32L0 14.1L2.91 15.22L3.16998 18.39L0.169983 20.12L1.60999 23.4L4.73001 22.91L6.84 25.36L5.76001 28.36L8.62 30.36L10.86 27.94L13.96 28.78L14.96 31.98L18.41 31.75L18.85 28.87L21.8 27.18L24.22 29.11L27.27 26.83L25.73 24.14L27.24 21.44L30.33 21.67L31.28 18.16L28.62 16.72L28.27 13.52L30.84 11.78ZM18.84 22.11C17.6404 22.8081 16.2603 23.1338 14.8752 23.0458C13.49 22.9578 12.1623 22.4599 11.0607 21.6156C9.95916 20.7712 9.13344 19.6184 8.68854 18.3037C8.24363 16.989 8.19962 15.5717 8.56207 14.2319C8.92452 12.8921 9.67708 11.6903 10.7241 10.7792C11.7712 9.86812 13.0654 9.28885 14.4424 9.11501C15.8195 8.94118 17.2171 9.18063 18.4577 9.80293C19.6983 10.4252 20.726 11.4023 21.41 12.61C22.318 14.2131 22.5574 16.1095 22.0763 17.8879C21.5952 19.6663 20.4323 21.1833 18.84 22.11V22.11Z" fill="#EBEBEB"/>
</svg>
