<svg width="234" height="399" viewBox="0 0 234 399" fill="none" xmlns="http://www.w3.org/2000/svg">
<path d="M86.55 250.946L90.55 243.316L76.31 235.656L70.31 246.756L71.17 247.286C74.98 249.616 90.72 258.876 93.78 259.496C97.19 260.186 86.55 250.946 86.55 250.946Z" fill="#E8505B"/>
<g opacity="0.4">
<path d="M75.54 249.416C75.9741 248.106 75.91 246.682 75.36 245.416C74.8218 244.157 73.8293 243.147 72.58 242.586L70.44 246.586L75.54 249.416Z" fill="black"/>
</g>
<path opacity="0.4" d="M91.63 255.675C91.63 255.675 95.22 259.175 94.31 259.595C93.4 260.015 77.15 251.245 70.31 246.755L70.51 246.445L89.39 256.825C89.39 256.825 90.79 255.265 91.63 255.675Z" fill="black"/>
<path d="M70.29 246.363L70.52 246.523L71.2 246.943L73.73 248.363C75.87 249.613 78.86 251.313 82.19 253.113C85.52 254.913 88.59 256.483 90.82 257.583L93.46 258.873L94.19 259.213C94.2716 259.259 94.3591 259.292 94.45 259.313L94.2 259.173L93.5 258.803L90.88 257.463C88.67 256.323 85.62 254.743 82.29 252.943C78.96 251.143 75.96 249.463 73.8 248.243L71.24 246.793L70.54 246.403L70.29 246.363Z" fill="#263238"/>
<path d="M89.26 257.046C89.607 256.673 89.9925 256.338 90.41 256.046C90.862 255.819 91.3384 255.645 91.83 255.526C91.2974 255.449 90.7554 255.574 90.31 255.876C89.8307 256.127 89.4579 256.542 89.26 257.046Z" fill="#263238"/>
<path d="M86.21 252.654C86.4772 252.609 86.7305 252.503 86.95 252.344C87.34 252.134 87.63 251.914 87.6 251.874C87.57 251.834 87.24 251.964 86.86 252.174C86.48 252.384 86.18 252.604 86.21 252.654Z" fill="#263238"/>
<path d="M85.39 251.416C85.39 251.476 85.7 251.416 86.07 251.356C86.44 251.296 86.72 251.156 86.7 251.106C86.68 251.056 86.39 251.106 86.02 251.166C85.65 251.226 85.37 251.366 85.39 251.416Z" fill="#263238"/>
<path d="M85.38 249.686C85.38 249.736 85.67 249.956 86.07 250.176C86.3064 250.342 86.5759 250.454 86.86 250.506C86.86 250.456 86.58 250.236 86.17 250.006C85.76 249.776 85.41 249.636 85.38 249.686Z" fill="#263238"/>
<path d="M85.64 248.605C85.64 248.605 85.88 248.995 86.34 249.285C86.6029 249.495 86.9244 249.617 87.26 249.635C87.0066 249.44 86.7354 249.27 86.45 249.125C86.1977 248.926 85.9264 248.752 85.64 248.605V248.605Z" fill="#263238"/>
<path d="M87.36 251.665C87.6368 251.879 87.9479 252.044 88.28 252.155C88.6327 252.292 88.9977 252.396 89.37 252.465C89.5931 252.515 89.8214 252.538 90.05 252.535C90.1928 252.534 90.3295 252.476 90.43 252.375C90.4801 252.314 90.5123 252.241 90.5229 252.163C90.5335 252.085 90.5221 252.006 90.49 251.935C90.2343 251.574 89.8606 251.313 89.4335 251.198C89.0063 251.083 88.5524 251.121 88.15 251.305C87.9148 251.416 87.7015 251.568 87.52 251.755C87.4 251.895 87.36 251.985 87.37 251.995C87.6099 251.759 87.8913 251.569 88.2 251.435C88.5379 251.306 88.9052 251.275 89.26 251.345C89.4709 251.38 89.6725 251.458 89.8529 251.573C90.0332 251.688 90.1886 251.838 90.31 252.015C90.4 252.195 90.25 252.335 90.04 252.345C89.8251 252.349 89.6103 252.329 89.4 252.285C89.0364 252.23 88.6783 252.143 88.33 252.025C87.73 251.825 87.38 251.645 87.36 251.665Z" fill="#263238"/>
<path d="M87.58 251.846C87.7856 251.705 87.94 251.501 88.02 251.266C88.1253 251.013 88.1632 250.737 88.13 250.466C88.1315 250.287 88.0849 250.111 87.9952 249.956C87.9055 249.801 87.7759 249.673 87.62 249.586C87.5166 249.557 87.4061 249.569 87.3113 249.619C87.2164 249.669 87.1444 249.754 87.11 249.856C87.0521 250.012 87.0315 250.18 87.05 250.346C87.0622 250.613 87.1059 250.878 87.18 251.136C87.2364 251.376 87.3495 251.598 87.51 251.786C87.51 251.786 87.41 251.526 87.32 251.096C87.2612 250.85 87.231 250.598 87.23 250.346C87.23 250.086 87.31 249.686 87.56 249.766C87.6721 249.851 87.7648 249.96 87.8321 250.084C87.8993 250.208 87.9395 250.345 87.95 250.486C87.9878 250.73 87.9673 250.98 87.89 251.216C87.8002 251.432 87.6967 251.642 87.58 251.846Z" fill="#263238"/>
<path d="M72.73 242.574C72.73 242.574 73.16 242.754 73.73 243.184C74.5168 243.731 75.1365 244.486 75.52 245.364C75.8861 246.249 76.0037 247.217 75.86 248.164C75.787 248.556 75.6935 248.943 75.58 249.324C75.58 249.324 75.65 249.234 75.74 249.034C75.8522 248.759 75.9392 248.475 76 248.184C76.1903 247.209 76.0859 246.2 75.7 245.284C75.3004 244.375 74.6434 243.604 73.81 243.064C73.5584 242.903 73.2902 242.769 73.01 242.664C72.921 242.622 72.8269 242.592 72.73 242.574V242.574Z" fill="#263238"/>
<path d="M77.35 237.445C76.7238 238.362 76.156 239.317 75.65 240.305C75.0831 241.258 74.5722 242.243 74.12 243.255C74.7462 242.339 75.314 241.383 75.82 240.395C76.3892 239.444 76.9001 238.459 77.35 237.445V237.445Z" fill="#263238"/>
<path d="M78.08 248.994C79.3105 249.999 80.7133 250.771 82.22 251.274C82.22 251.224 81.28 250.784 80.14 250.154C79 249.524 78.11 248.954 78.08 248.994Z" fill="#263238"/>
<path d="M75.29 247.485C75.24 247.485 75.29 247.725 75.24 247.995C75.19 248.265 75.17 248.475 75.24 248.495C75.31 248.515 75.44 248.315 75.46 248.005C75.48 247.695 75.34 247.475 75.29 247.485Z" fill="#263238"/>
<path d="M74.94 245.615C74.89 245.615 74.94 245.825 74.94 246.055C74.94 246.285 75.1 246.455 75.16 246.445C75.22 246.435 75.16 246.225 75.16 245.995C75.16 245.765 75 245.595 74.94 245.615Z" fill="#263238"/>
<path d="M73.73 244.207C73.73 244.257 73.91 244.357 74.07 244.547C74.23 244.737 74.34 244.927 74.39 244.917C74.44 244.907 74.39 244.637 74.22 244.417C74.05 244.197 73.73 244.157 73.73 244.207Z" fill="#263238"/>
<path d="M72.84 243.364C72.84 243.364 72.84 243.514 72.94 243.624C73.04 243.734 73.14 243.794 73.18 243.764C73.22 243.734 73.18 243.604 73.09 243.494C73 243.384 72.88 243.304 72.84 243.364Z" fill="#263238"/>
<path d="M175.05 249.234H138.98V256.484H175.05V249.234Z" fill="#263238"/>
<path d="M190.57 296.734H154.5V303.984H190.57V296.734Z" fill="#263238"/>
<path d="M207.04 338.855H163.68V346.105H207.04V338.855Z" fill="#263238"/>
<path d="M157.58 200.094H126.9V207.344H157.58V200.094Z" fill="#263238"/>
<path d="M142.28 151.055H111.6V158.305H142.28V151.055Z" fill="#263238"/>
<path d="M98.86 102.266L0 403.086H9.42L102.16 122.986L172.3 403.086H183.6L107.81 102.266H98.86Z" fill="#263238"/>
<path d="M121.93 102.266L45.2 403.086H59.79L128.05 123.456L220.32 403.086H233.2L132.58 102.266H121.93Z" fill="#455A64"/>
<path d="M37 303.054C36.9987 303.53 37.0913 304.002 37.2727 304.442C37.454 304.882 37.7205 305.283 38.0567 305.62C38.393 305.957 38.7925 306.225 39.2324 306.407C39.6722 306.59 40.1438 306.684 40.62 306.684H73.38C73.8562 306.684 74.3278 306.59 74.7676 306.407C75.2075 306.225 75.607 305.957 75.9433 305.62C76.2795 305.283 76.546 304.882 76.7273 304.442C76.9086 304.002 77.0013 303.53 77 303.054C77 302.094 76.6186 301.173 75.9397 300.494C75.2608 299.815 74.3401 299.434 73.38 299.434H40.62C39.6599 299.434 38.7392 299.815 38.0603 300.494C37.3814 301.173 37 302.094 37 303.054V303.054Z" fill="#455A64"/>
<path d="M22.73 349.724C22.7326 350.685 23.1163 351.605 23.7967 352.284C24.4772 352.963 25.399 353.344 26.36 353.344H59.11C59.5862 353.345 60.058 353.252 60.4984 353.071C60.9387 352.89 61.339 352.623 61.6762 352.287C62.0134 351.951 62.2809 351.551 62.4635 351.111C62.646 350.672 62.74 350.2 62.74 349.724V349.724C62.74 348.761 62.3575 347.838 61.6768 347.157C60.996 346.476 60.0727 346.094 59.11 346.094H26.31C25.3568 346.109 24.4478 346.498 23.7783 347.177C23.1089 347.856 22.7325 348.77 22.73 349.724V349.724Z" fill="#455A64"/>
<path d="M52.73 254.983C52.73 255.943 53.1114 256.864 53.7903 257.543C54.4691 258.222 55.3899 258.603 56.35 258.603H89.11C89.5854 258.603 90.0561 258.51 90.4953 258.328C90.9345 258.146 91.3336 257.879 91.6697 257.543C92.0059 257.207 92.2725 256.808 92.4545 256.369C92.6364 255.93 92.73 255.459 92.73 254.983C92.73 254.508 92.6364 254.037 92.4545 253.598C92.2725 253.159 92.0059 252.76 91.6697 252.424C91.3336 252.088 90.9345 251.821 90.4953 251.639C90.0561 251.457 89.5854 251.363 89.11 251.363H56.38C55.9021 251.359 55.4281 251.45 54.9855 251.63C54.5428 251.81 54.1402 252.076 53.8009 252.413C53.4615 252.75 53.1922 253.15 53.0084 253.591C52.8246 254.032 52.73 254.505 52.73 254.983V254.983Z" fill="#455A64"/>
<path d="M102.89 201.574H72.22C70.2207 201.574 68.6 203.195 68.6 205.194V205.204C68.6 207.203 70.2207 208.824 72.22 208.824H102.89C104.889 208.824 106.51 207.203 106.51 205.204V205.194C106.51 203.195 104.889 201.574 102.89 201.574Z" fill="#455A64"/>
<path d="M83.37 155.925C83.37 156.886 83.7511 157.807 84.4297 158.488C85.1083 159.168 86.029 159.552 86.99 159.555H110.43C111.391 159.552 112.312 159.168 112.99 158.488C113.669 157.807 114.05 156.886 114.05 155.925V155.925C114.05 154.965 113.669 154.044 112.99 153.365C112.311 152.686 111.39 152.305 110.43 152.305H86.99C86.0299 152.305 85.1092 152.686 84.4303 153.365C83.7514 154.044 83.37 154.965 83.37 155.925Z" fill="#455A64"/>
<path d="M90.04 81.7158C90.5 81.8658 98.97 100.776 105.78 100.876C112.59 100.976 147.31 98.2258 147.31 98.2258L147.73 88.0958L111.86 88.1958L100.95 73.4258L90.04 81.7158Z" fill="#FFBE9D"/>
<path d="M143.33 89.3644C143.33 89.3644 149.25 87.4644 149.9 86.5344C150.55 85.6044 153.22 81.2344 153.22 81.2344C153.778 81.9861 154.015 82.9281 153.88 83.8544C153.69 84.5744 153.36 85.8544 153.12 86.8544C153.083 86.9953 153.083 87.1433 153.119 87.2844C153.155 87.4255 153.227 87.5551 153.327 87.661C153.427 87.767 153.552 87.8458 153.691 87.8901C153.829 87.9344 153.977 87.9428 154.12 87.9144C155.52 87.6644 157.57 87.4144 157.81 88.0844C158.19 89.0844 156.56 95.7244 155.37 96.9444C154.18 98.1644 146.04 98.1844 146.04 98.1844L143.33 89.3644Z" fill="#FFBE9D"/>
<path d="M156.3 90.0352C156.3 90.0852 155.93 90.4752 155.1 90.8652C154.608 91.0933 154.086 91.2515 153.55 91.3352C153.187 91.3917 152.816 91.321 152.5 91.1352C152.325 91.0123 152.19 90.8406 152.111 90.6414C152.033 90.4422 152.015 90.2245 152.06 90.0152C152.129 89.6141 152.352 89.2556 152.68 89.0152C152.956 88.8238 153.264 88.6848 153.59 88.6052C154.17 88.4452 154.68 88.3552 155.12 88.2652C155.581 88.1171 156.066 88.0561 156.55 88.0852C156.141 88.3444 155.686 88.5242 155.21 88.6152L153.73 89.0652C153.463 89.1081 153.213 89.2243 153.008 89.4009C152.804 89.5775 152.652 89.8074 152.57 90.0652C152.46 90.6152 152.97 90.8752 153.51 90.8152C154.004 90.7577 154.49 90.6471 154.96 90.4852C155.394 90.3 155.842 90.1496 156.3 90.0352Z" fill="#EB996E"/>
<path d="M155.32 93.034C155.025 93.2757 154.685 93.4559 154.32 93.564C154.13 93.6376 153.932 93.688 153.73 93.714C153.592 93.7254 153.453 93.7062 153.324 93.6578C153.194 93.6094 153.077 93.533 152.98 93.434C152.747 93.2363 152.589 92.9637 152.534 92.6627C152.48 92.3618 152.531 92.0511 152.68 91.784C153.011 91.3447 153.479 91.0281 154.01 90.884L155.13 90.434C155.78 90.174 156.21 90.104 156.23 90.174C156.25 90.244 155.88 90.4339 155.28 90.7639C154.98 90.9339 154.62 91.124 154.2 91.324C153.778 91.4596 153.403 91.7128 153.12 92.054C153.041 92.2192 153.017 92.4052 153.051 92.5851C153.085 92.7649 153.176 92.9292 153.31 93.054C153.356 93.1161 153.416 93.1659 153.486 93.199C153.556 93.2322 153.633 93.2476 153.71 93.244C153.881 93.2394 154.052 93.2193 154.22 93.184C154.86 93.044 155.3 92.944 155.32 93.034Z" fill="#EB996E"/>
<path d="M151.73 95.2242C151.66 95.2242 151.54 94.8842 151.23 94.3842C150.822 93.7195 150.246 93.1744 149.56 92.8042L149.23 92.6242L149.53 92.3742C149.73 92.2042 149.95 92.0242 150.15 91.8242C151.09 90.7852 151.86 89.6039 152.43 88.3242C152.5 88.3242 152.43 88.8342 152.2 89.5942C151.836 90.5754 151.259 91.4635 150.51 92.1942C150.302 92.404 150.078 92.5979 149.84 92.7742V92.3542C150.601 92.7741 151.205 93.4305 151.56 94.2242C151.73 94.8242 151.73 95.2142 151.73 95.2242Z" fill="#EB996E"/>
<path d="M155.47 95.3646C155.47 95.4246 155.21 95.6946 154.58 95.9146C154.383 95.9883 154.174 96.021 153.964 96.0107C153.754 96.0004 153.549 95.9473 153.36 95.8546C153.126 95.7361 152.931 95.5519 152.8 95.3246C152.73 95.185 152.693 95.0309 152.693 94.8746C152.693 94.7183 152.73 94.5641 152.8 94.4246C153.06 93.9867 153.447 93.638 153.91 93.4246C154.234 93.2487 154.568 93.0917 154.91 92.9546C155.5 92.7246 155.91 92.6646 155.91 92.7346C155.91 92.8046 155.59 92.9846 155.06 93.2846C154.8 93.4446 154.48 93.6246 154.14 93.8446C153.792 94.0264 153.491 94.2866 153.26 94.6046C153.11 94.8946 153.33 95.2246 153.61 95.3946C153.885 95.544 154.204 95.5901 154.51 95.5246C155.06 95.4346 155.44 95.2846 155.47 95.3646Z" fill="#EB996E"/>
<path d="M55.28 28.9141C55.1588 30.6881 54.8231 32.4409 54.28 34.1341C53.7216 35.8421 52.5776 37.2978 51.05 38.2441C49.57 39.0741 47.53 39.4241 46.96 41.0241C46.39 42.6241 47.63 44.6841 46.46 45.8841C45.9344 46.3028 45.3057 46.5723 44.64 46.6641C43.5398 46.9254 42.5074 47.417 41.6111 48.1065C40.7148 48.796 39.9748 49.6677 39.44 50.6641C38.9459 51.879 38.7359 53.1908 38.826 54.4993C38.9161 55.8077 39.304 57.0783 39.96 58.2141C41.3109 60.4574 42.997 62.4808 44.96 64.2141L63.96 60.1441C63.96 60.1441 58.34 30.0141 58.43 30.2241C57.3504 29.8624 56.2977 29.4246 55.28 28.9141V28.9141Z" fill="#263238"/>
<path d="M80.48 30.5039C80.5715 30.9698 80.7639 31.41 81.0438 31.7936C81.3237 32.1771 81.6842 32.4947 82.1 32.7239C82.9371 33.173 83.7454 33.674 84.52 34.2239C85.1404 34.8065 85.6298 35.5143 85.9556 36.3005C86.2815 37.0867 86.4364 37.9333 86.41 38.7839C86.3492 40.4849 86.0462 42.1685 85.51 43.7839C87.0665 43.8552 88.5888 44.2652 89.9705 44.9855C91.3522 45.7057 92.5601 46.7187 93.51 47.9539C95.3953 50.4537 96.3882 53.5134 96.33 56.6439C96.33 58.8639 95.77 61.2639 94.07 62.6439C92.6375 63.6591 90.9519 64.2579 89.2 64.3739C85.75 64.8839 82.28 65.1839 78.81 65.4839C75.34 65.7839 71.6 66.0239 68.52 64.3539C66.0035 62.8161 64.0904 60.4618 63.1 57.6839C61.5579 53.6083 61.0061 49.2246 61.49 44.8939C61.9761 40.5798 62.9181 36.3294 64.3 32.2139" fill="#263238"/>
<path d="M56.55 25.6258C54.8624 24.7652 53.012 24.271 51.12 24.1758C49.23 24.1758 47.23 25.2958 46.71 27.1158C46.4717 28.1018 46.5922 29.1405 47.05 30.0458C47.508 30.943 48.1169 31.7548 48.85 32.4458C49.506 33.2315 50.4143 33.7652 51.42 33.9558C52.2112 33.9865 52.9918 33.7659 53.65 33.3258C54.967 32.5642 55.9354 31.3195 56.35 29.8558C56.5417 29.1261 56.5273 28.3575 56.3084 27.6354C56.0895 26.9134 55.6747 26.2662 55.11 25.7658" fill="#263238"/>
<path d="M78.17 21.3641C78.17 21.3641 81.58 20.1741 81.61 17.9441C81.64 15.7141 56.16 12.5341 51.29 24.9441C51.29 24.9441 52.24 25.6141 56.18 25.3641" fill="#E8505B"/>
<g opacity="0.5">
<path d="M78.17 21.3641C78.17 21.3641 81.58 20.1741 81.61 17.9441C81.64 15.7141 56.16 12.5341 51.29 24.9441C51.29 24.9441 52.24 25.6141 56.18 25.3641" fill="black"/>
</g>
<path d="M58.65 55.7145L74.2 54.4745C74.3 52.6645 74.2 45.6345 74.2 45.6345C74.2 45.6345 80.67 44.6345 80.75 38.1645C80.83 31.6945 79.75 16.8345 79.75 16.8345C76.071 15.2541 72.0369 14.6842 68.0641 15.1834C64.0912 15.6826 60.3236 17.233 57.15 19.6745L56.15 20.4145L58.65 55.7145Z" fill="#FFBE9D"/>
<path d="M77.07 27.6054C76.9694 27.5254 76.8863 27.4256 76.8258 27.3122C76.7652 27.1988 76.7286 27.0741 76.7182 26.946C76.7078 26.8179 76.7237 26.689 76.7651 26.5673C76.8064 26.4456 76.8723 26.3336 76.9586 26.2384C77.045 26.1431 77.1499 26.0666 77.267 26.0135C77.3841 25.9605 77.5108 25.932 77.6393 25.9298C77.7679 25.9277 77.8955 25.9519 78.0143 26.001C78.1331 26.0501 78.2405 26.1231 78.33 26.2154C78.4306 26.2954 78.5138 26.3952 78.5743 26.5086C78.6348 26.622 78.6714 26.7467 78.6818 26.8748C78.6923 27.0029 78.6763 27.1318 78.6349 27.2535C78.5936 27.3752 78.5277 27.4872 78.4414 27.5824C78.355 27.6777 78.2501 27.7542 78.133 27.8073C78.0159 27.8603 77.8892 27.8888 77.7607 27.891C77.6321 27.8931 77.5045 27.8689 77.3857 27.8198C77.2669 27.7707 77.1595 27.6977 77.07 27.6054V27.6054Z" fill="#263238"/>
<path d="M79.73 26.4749C79.63 26.5849 79 26.1049 78.11 26.0949C77.22 26.0849 76.57 26.5548 76.47 26.4348C76.37 26.3148 76.52 26.1849 76.81 25.9749C77.1858 25.6966 77.6424 25.5491 78.11 25.5549C78.5805 25.5606 79.0366 25.7185 79.41 26.0048C79.73 26.2248 79.8 26.4249 79.73 26.4749Z" fill="#263238"/>
<path d="M68.66 26.9541C68.765 27.0197 68.8561 27.1054 68.9281 27.2063C69 27.3072 69.0514 27.4212 69.0792 27.5419C69.1071 27.6626 69.1109 27.7877 69.0904 27.9099C69.07 28.032 69.0256 28.149 68.96 28.2541C68.8943 28.3591 68.8086 28.4502 68.7078 28.5221C68.6069 28.5941 68.4928 28.6454 68.3721 28.6733C68.2514 28.7012 68.1264 28.705 68.0042 28.6845C67.882 28.664 67.765 28.6197 67.66 28.5541C67.4571 28.4138 67.3132 28.2034 67.2559 27.9634C67.1987 27.7235 67.2322 27.4708 67.35 27.2541C67.4144 27.1462 67.4999 27.0526 67.6015 26.9787C67.703 26.9048 67.8185 26.8523 67.9409 26.8242C68.0633 26.7962 68.1901 26.7933 68.3137 26.8156C68.4373 26.8379 68.5551 26.885 68.66 26.9541Z" fill="#263238"/>
<path d="M70.08 27.2642C69.97 27.3742 69.34 26.8842 68.45 26.8842C67.56 26.8842 66.91 27.3342 66.81 27.2242C66.71 27.1142 66.87 26.9742 67.15 26.7542C67.5301 26.4781 67.9903 26.3341 68.46 26.3443C68.9261 26.3486 69.3784 26.5028 69.75 26.7842C70.03 27.0042 70.13 27.2142 70.08 27.2642Z" fill="#263238"/>
<path d="M73.65 34.6133C74.1088 34.4285 74.5958 34.3236 75.09 34.3033C75.32 34.3033 75.51 34.2333 75.52 34.1033C75.5299 33.8694 75.4745 33.6374 75.36 33.4333C75.13 32.8433 74.89 32.2533 74.65 31.6233C73.9851 30.0916 73.4758 28.4969 73.13 26.8633C73.9461 28.3203 74.616 29.8544 75.13 31.4433C75.36 32.0733 75.58 32.6733 75.79 33.2733C75.9507 33.5806 75.9968 33.9351 75.92 34.2733C75.8866 34.3617 75.833 34.4412 75.7636 34.5054C75.6942 34.5696 75.6108 34.6168 75.52 34.6433C75.3875 34.6649 75.2524 34.6649 75.12 34.6433C74.6317 34.715 74.1349 34.7049 73.65 34.6133Z" fill="#263238"/>
<path d="M74.18 45.5445C71.191 45.5988 68.2532 44.7634 65.74 43.1445C65.74 43.1445 67.74 47.8045 74.19 47.2145L74.18 45.5445Z" fill="#EB996E"/>
<path d="M79.81 18.4641C78.3874 19.1239 76.8381 19.4657 75.27 19.4657C73.7019 19.4657 72.1526 19.1239 70.73 18.4641C67.25 17.0341 63.28 16.4641 62.47 17.2441C61.66 18.0241 63.07 24.6941 59.82 25.9541C59.82 25.9541 59.2 29.2841 56.55 29.2441C53.9 29.2041 54.8 18.8741 54.8 18.8741L60.99 15.2541L67.91 13.4141L74.59 13.8541L79.81 14.8541V18.4641Z" fill="#263238"/>
<path d="M56.92 27.115C56.81 27.115 52.47 25.805 52.62 30.225C52.77 34.645 57.17 33.595 57.17 33.465C57.17 33.335 56.92 27.115 56.92 27.115Z" fill="#FFBE9D"/>
<path d="M55.73 31.8339C55.73 31.8339 55.65 31.8339 55.52 31.9539C55.3372 32.0278 55.1328 32.0278 54.95 31.9539C54.66 31.7806 54.4205 31.5343 54.2556 31.2395C54.0906 30.9447 54.0059 30.6117 54.01 30.2739C53.9889 29.8952 54.0504 29.5165 54.19 29.1639C54.2284 29.0252 54.2992 28.8976 54.3966 28.7915C54.4939 28.6855 54.6151 28.604 54.75 28.5539C54.8366 28.5227 54.9317 28.5249 55.0167 28.56C55.1018 28.5951 55.1707 28.6607 55.21 28.7439C55.28 28.8639 55.21 28.9539 55.28 28.9639C55.35 28.9739 55.37 28.8839 55.28 28.7039C55.2514 28.5939 55.1839 28.498 55.09 28.4339C54.9805 28.3729 54.8544 28.3484 54.73 28.3639C54.5509 28.4074 54.3856 28.4953 54.2493 28.6193C54.1131 28.7434 54.0101 28.8997 53.95 29.0739C53.7747 29.4802 53.6992 29.9225 53.73 30.3639C53.7199 30.7599 53.8276 31.15 54.0394 31.4847C54.2513 31.8194 54.5578 32.0836 54.92 32.2439C55.0397 32.2741 55.1647 32.2772 55.2858 32.253C55.4069 32.2288 55.5211 32.1778 55.62 32.1039C55.73 31.9339 55.78 31.8439 55.73 31.8339Z" fill="#EB996E"/>
<path d="M53.92 13.3635C53.86 13.2335 54.6 12.9135 55.5 13.1935C56.4 13.4735 56.82 14.1935 56.7 14.1935C56.58 14.1935 56.08 13.8735 55.34 13.6535C54.6 13.4335 53.95 13.5535 53.92 13.3635Z" fill="#263238"/>
<path d="M56.43 10.6133C56.59 10.6133 56.59 11.5533 56.8 12.6133C57.01 13.6733 57.49 14.4433 57.37 14.5333C57.25 14.6233 56.52 13.9233 56.29 12.7233C56.079 12.0263 56.1288 11.2763 56.43 10.6133V10.6133Z" fill="#263238"/>
<path d="M75.42 25.0234C75.27 24.7834 76.09 24.0234 77.42 24.0234C78.75 24.0234 79.59 24.6234 79.42 24.8734C79.25 25.1234 78.42 25.0134 77.42 25.0634C76.42 25.1134 75.57 25.2834 75.42 25.0234Z" fill="#263238"/>
<path d="M62.34 17.1054C63.6921 17.969 64.9758 18.9352 66.18 19.9954C67.4124 21.0529 68.9861 21.6284 70.61 21.6154L70.22 20.8654C72.5643 21.7978 75.0287 22.3937 77.54 22.6354C77.9943 22.7438 78.4684 22.7384 78.9202 22.6198C79.372 22.5012 79.7875 22.273 80.13 21.9554C80.71 21.2054 79.9 19.8654 79.81 18.4654C79.74 17.4654 79.39 17.1954 78.44 16.8454C77.9992 16.7152 77.5368 16.6744 77.08 16.7254C73.5728 16.8676 70.0601 16.6734 66.59 16.1454C65.7807 15.9825 64.9547 15.9187 64.13 15.9554C63.7225 15.9672 63.3217 16.062 62.952 16.234C62.5824 16.4059 62.2516 16.6514 61.98 16.9554" fill="#263238"/>
<path d="M73.73 35.4454C73.5841 35.3412 73.4093 35.2852 73.23 35.2852C73.0507 35.2852 72.8759 35.3412 72.73 35.4454C72.5877 35.5367 72.4709 35.6625 72.3905 35.8112C72.31 35.9598 72.2686 36.1264 72.27 36.2954C72.2664 36.6371 72.3954 36.9669 72.63 37.2154C72.8036 37.4272 73.0429 37.575 73.31 37.6354C73.5302 37.6809 73.7591 37.6584 73.9662 37.5709C74.1733 37.4834 74.349 37.335 74.47 37.1454C74.5877 36.9545 74.65 36.7347 74.65 36.5104C74.65 36.2862 74.5877 36.0663 74.47 35.8754C74.3468 35.688 74.1769 35.5359 73.9769 35.4342C73.777 35.3325 73.554 35.2847 73.33 35.2954" fill="#EB996E"/>
<path d="M75.96 36.6945C75.96 36.7545 75.7 36.9345 75.2 36.9545C74.5556 36.9637 73.917 36.8305 73.33 36.5645C71.94 36.0245 71.07 35.0745 71.22 34.9545C71.37 34.8345 72.22 35.5645 73.52 36.0845C74.0609 36.3194 74.6284 36.4873 75.21 36.5845C75.66 36.6545 75.94 36.6245 75.96 36.6945Z" fill="#263238"/>
<path d="M69.88 24.934C69.77 25.034 69.56 24.994 69.29 25.034C69.02 25.074 68.58 25.174 68.01 25.224C66.91 25.324 66.01 25.224 66.01 24.884C66.01 24.544 66.85 24.284 67.95 24.184C68.4599 24.1088 68.9803 24.1533 69.47 24.314C69.89 24.514 69.99 24.854 69.88 24.934Z" fill="#263238"/>
<path d="M59.33 19.9336C59.41 23.4836 60.1 26.9936 60.14 30.5336C60.18 34.0736 59.48 37.8236 57.14 40.5336C56.3745 41.5426 55.2432 42.2106 53.99 42.3936C53.6319 42.4508 53.2649 42.396 52.9391 42.2367C52.6133 42.0774 52.3447 41.8214 52.17 41.5036C52.0173 40.9487 52.0891 40.3559 52.37 39.8536C53.1761 38.2344 54.095 36.6739 55.12 35.1836C56.1475 33.6991 56.7838 31.9794 56.97 30.1836C56.9486 28.8586 56.7604 27.5416 56.41 26.2636C56.0564 24.9829 56.005 23.6375 56.26 22.3336C56.3986 21.6848 56.7214 21.0898 57.1897 20.6198C57.6579 20.1497 58.2517 19.8247 58.9 19.6836" fill="#263238"/>
<path d="M67.61 17.0348C79.27 15.7648 81.51 17.8248 81.61 17.9248C81.9167 17.6073 82.125 17.208 82.21 16.7748C82.63 13.3648 78.45 12.3648 78.45 12.3648C75.83 0.434813 65.11 1.65481 65.11 1.65481V1.56481C65.0132 1.06225 64.7207 0.618731 64.2968 0.331808C63.873 0.0448847 63.3526 -0.0619469 62.85 0.0348106L61.18 0.354814C60.6774 0.451659 60.2339 0.744157 59.947 1.16798C59.6601 1.5918 59.5532 2.11223 59.65 2.61481V2.61481C47.07 6.80481 51.24 18.4348 51.24 18.4348L49.4 20.6548C47.77 23.9648 51.31 24.9648 51.31 24.9648C51.31 24.9648 55.65 18.3648 67.61 17.0348Z" fill="#E8505B"/>
<g opacity="0.5">
<path d="M61.73 12.9659C61.091 11.35 60.612 9.67535 60.3 7.96593C59.8289 6.28998 59.5241 4.57168 59.39 2.83594C60.0262 4.452 60.5018 6.12674 60.81 7.83594C61.286 9.5112 61.5942 11.2297 61.73 12.9659Z" fill="black"/>
</g>
<g opacity="0.5">
<path d="M68.01 11.4136C67.3024 9.87416 66.7562 8.26557 66.38 6.61359C65.8358 5.01322 65.4571 3.36124 65.25 1.68359C65.9587 3.21914 66.505 4.82452 66.88 6.47359C67.4237 8.07753 67.8024 9.73277 68.01 11.4136Z" fill="black"/>
</g>
<g opacity="0.5">
<path d="M77.92 12.8559C77.92 12.9559 76.42 12.5159 73.97 12.2959C70.7798 12.0335 67.5681 12.2902 64.46 13.0559C61.3527 13.8443 58.3513 15.0025 55.52 16.5059C53.34 17.6459 52.05 18.5059 52.01 18.4059C52.2619 18.1523 52.544 17.9306 52.85 17.7459C53.42 17.3459 54.27 16.7959 55.35 16.1859C58.1663 14.5604 61.1955 13.3353 64.35 12.5459C67.5102 11.7621 70.7855 11.5521 74.02 11.9259C74.9958 12.0457 75.9617 12.2362 76.91 12.4959C77.2613 12.57 77.601 12.6911 77.92 12.8559Z" fill="black"/>
</g>
<g opacity="0.2">
<path d="M62.3 15.0742C60.0767 15.8708 57.9029 16.7991 55.79 17.8542C53.7578 19.0732 51.7978 20.4087 49.92 21.8542C50.3143 21.2695 50.8045 20.7556 51.37 20.3342C53.9389 18.0964 56.9664 16.4478 60.24 15.5042C60.8981 15.2477 61.5942 15.1024 62.3 15.0742V15.0742Z" fill="white"/>
</g>
<g opacity="0.2">
<path d="M52.32 16.6948C51.98 16.7748 51.42 15.9648 51.19 14.4448C50.9581 12.4399 51.3384 10.4116 52.2807 8.62681C53.2231 6.84199 54.6836 5.38411 56.47 4.44482C57.86 3.77482 58.84 3.77482 58.97 4.09482C59.25 4.76482 56.31 6.46482 54.57 9.84482C52.83 13.2248 53.04 16.5448 52.32 16.6948Z" fill="white"/>
</g>
<path d="M43.73 131.644L90.93 135.904C91.01 132.674 90.03 112.974 89.45 100.034C89.34 97.5836 91.76 93.3336 91.67 91.2836C91.43 86.1836 90.67 85.9836 90.67 85.9836L93.36 90.9836L107.36 78.5136L95.14 62.0036C93.2178 59.4098 90.7959 57.2269 88.0172 55.5833C85.2385 53.9398 82.1589 52.8689 78.96 52.4336C77.06 52.1836 75.62 52.0536 74.68 51.9336C69.2848 53.6387 63.4951 53.6387 58.1 51.9336V51.9336C55.7553 52.0135 53.4374 52.4589 51.23 53.2536C47.0597 54.725 43.2923 57.1533 40.23 60.3436V60.3436L20.23 83.8936L38.73 95.8536L45.85 88.3636L46.77 107.824L43.73 131.644Z" fill="#E8505B"/>
<path d="M87.52 77.9241C87.52 78.0641 80.52 78.1841 71.98 78.1841C63.44 78.1841 56.44 78.0641 56.44 77.9241C56.44 77.7841 63.39 77.6641 71.98 77.6641C80.57 77.6641 87.52 77.7741 87.52 77.9241Z" fill="white"/>
<path d="M86.48 72.8655C83.4699 73.2122 80.43 73.2122 77.42 72.8655C80.43 72.5188 83.4699 72.5188 86.48 72.8655Z" fill="white"/>
<path d="M52.73 79.9766C52.1669 80.848 51.5277 81.6679 50.82 82.4266C49.59 83.8966 47.82 85.8966 45.93 88.0966C44.04 90.2966 42.23 92.2466 40.93 93.6566C40.2696 94.4561 39.5365 95.1926 38.74 95.8566C39.3123 94.9949 39.9509 94.179 40.65 93.4166C41.89 91.9466 43.65 89.9366 45.55 87.7366C47.45 85.5366 49.25 83.5766 50.55 82.1766C51.2121 81.382 51.9415 80.6459 52.73 79.9766Z" fill="#263238"/>
<path d="M49.38 290.965L47.83 297.445C47.83 297.445 37.24 311.195 33.98 310.525C31.84 310.085 34.47 306.525 38.49 296.045L39.34 291.735L49.38 290.965Z" fill="#E8505B"/>
<path d="M33.55 308.495C33.6796 308.726 33.8744 308.914 34.11 309.035C34.4391 309.169 34.7978 309.212 35.1493 309.161C35.5008 309.11 35.8324 308.967 36.11 308.745C37.9704 307.191 39.7306 305.521 41.38 303.745C43.38 301.685 44.99 299.745 46.15 298.245L47.5 296.505C47.63 296.345 47.76 296.185 47.87 296.035L48.01 295.875C48.01 295.875 48.01 295.945 47.91 296.055L47.57 296.555C47.27 296.985 46.83 297.555 46.27 298.345C44.7884 300.274 43.2062 302.123 41.53 303.885C39.8749 305.677 38.0937 307.348 36.2 308.885C35.8421 309.128 35.43 309.279 35 309.325C34.6704 309.34 34.3428 309.267 34.05 309.115C33.8694 309.015 33.7178 308.871 33.61 308.695C33.5785 308.632 33.5582 308.565 33.55 308.495V308.495Z" fill="#263238"/>
<path d="M35.05 304.075C35.3254 303.963 35.6254 303.925 35.92 303.965C36.6315 304.042 37.3158 304.281 37.92 304.665C38.5433 305.021 39.0477 305.553 39.37 306.195C39.5132 306.455 39.5888 306.747 39.59 307.045C39.59 307.045 39.49 306.725 39.24 306.265C38.8937 305.673 38.4013 305.181 37.81 304.835C37.2273 304.471 36.578 304.226 35.9 304.115C35.38 304.045 35.05 304.105 35.05 304.075Z" fill="#263238"/>
<path d="M45.07 300.844C45.0139 300.746 44.9702 300.642 44.94 300.534C44.8448 300.244 44.7745 299.946 44.73 299.644C44.5743 298.633 44.746 297.6 45.22 296.694C45.683 295.779 46.4403 295.046 47.37 294.614C47.6478 294.488 47.94 294.398 48.24 294.344C48.46 294.344 48.58 294.344 48.58 294.344C48.1859 294.448 47.8012 294.585 47.43 294.754C46.5634 295.209 45.8632 295.926 45.43 296.804C44.9757 297.673 44.7911 298.659 44.9 299.634C44.96 300.364 45.11 300.834 45.07 300.844Z" fill="#263238"/>
<path d="M48.73 292.066C48.78 292.066 48.55 292.986 48.35 294.136C48.2712 294.829 48.0822 295.504 47.79 296.136C47.74 296.136 47.95 295.216 48.14 294.066C48.2276 293.372 48.4268 292.697 48.73 292.066V292.066Z" fill="#263238"/>
<path d="M38.31 296.964C38.7527 296.825 39.2273 296.825 39.67 296.964C40.1252 297.038 40.5491 297.243 40.89 297.554C40.89 297.614 40.33 297.334 39.62 297.174C38.91 297.014 38.31 297.024 38.31 296.964Z" fill="#263238"/>
<path d="M38.09 298.076C38.4604 297.953 38.8577 297.935 39.2375 298.025C39.6173 298.116 39.9644 298.31 40.24 298.586C40.24 298.586 39.78 298.356 39.24 298.226C38.7 298.096 38.1 298.136 38.09 298.076Z" fill="#263238"/>
<path d="M37.24 299.465C37.6032 299.271 38.024 299.213 38.4259 299.303C38.8278 299.393 39.1841 299.624 39.43 299.955C39.1113 299.774 38.7765 299.623 38.43 299.505C38.036 299.448 37.6369 299.434 37.24 299.465V299.465Z" fill="#263238"/>
<path d="M39.04 296.493C39.04 296.493 39.52 296.353 40.28 296.063C40.7159 295.887 41.1401 295.683 41.55 295.453L42.26 295.003C42.47 294.843 42.71 294.603 42.7 294.363C42.69 294.123 42.38 293.983 42.14 294.043C41.8914 294.131 41.6682 294.279 41.49 294.473C41.1 294.843 40.77 295.193 40.49 295.473C39.95 296.083 39.64 296.473 39.62 296.473C39.6609 296.362 39.7182 296.257 39.79 296.163C39.92 295.973 40.12 295.703 40.38 295.393C40.6919 295.017 41.0258 294.66 41.38 294.323C41.5776 294.096 41.8334 293.926 42.12 293.833C42.2062 293.806 42.2974 293.798 42.3869 293.81C42.4765 293.822 42.5625 293.853 42.6387 293.902C42.7149 293.95 42.7796 294.015 42.8282 294.091C42.8768 294.168 42.9081 294.253 42.92 294.343C42.9085 294.511 42.8548 294.673 42.7639 294.815C42.673 294.956 42.5478 295.073 42.4 295.153C42.1644 295.315 41.9207 295.465 41.67 295.603C41.2497 295.841 40.8077 296.039 40.35 296.193C40.0431 296.299 39.7289 296.382 39.41 296.443C39.2913 296.485 39.1654 296.502 39.04 296.493V296.493Z" fill="#263238"/>
<path d="M39.59 296.364C39.59 296.364 39.51 295.904 39.39 295.184C39.3245 294.76 39.2034 294.346 39.03 293.954C38.9265 293.731 38.7955 293.523 38.64 293.334C38.47 293.154 38.23 293.004 38.04 293.114C37.85 293.224 37.82 293.514 37.85 293.754C37.8907 293.997 37.9578 294.235 38.05 294.464C38.2304 294.847 38.4626 295.203 38.74 295.524C39.23 296.064 39.61 296.334 39.59 296.364C39.57 296.394 39.48 296.364 39.31 296.204C39.069 296.032 38.8447 295.837 38.64 295.624C38.3268 295.306 38.0698 294.937 37.88 294.534C37.7692 294.292 37.6918 294.036 37.65 293.774C37.6099 293.621 37.616 293.459 37.6676 293.31C37.7193 293.16 37.814 293.029 37.94 292.934C38.091 292.873 38.2584 292.866 38.4136 292.916C38.5687 292.965 38.7018 293.067 38.79 293.204C38.9625 293.405 39.104 293.631 39.21 293.874C39.378 294.283 39.4891 294.714 39.54 295.154C39.54 295.524 39.6 295.834 39.6 296.034C39.6 296.234 39.61 296.364 39.59 296.364Z" fill="#263238"/>
<g opacity="0.4">
<path d="M47.83 297.446L48.58 294.336C48.58 294.336 45.98 294.816 45.31 296.756C44.9141 297.816 44.7405 298.946 44.8 300.076L39.16 306.156C39.16 306.156 37.75 303.386 35.16 304.056C35.16 304.056 33.16 308.486 33.16 309.596C33.16 310.706 34.52 310.596 34.98 310.366C36.8426 309.276 38.5427 307.93 40.03 306.366C43.09 303.286 46.39 299.366 47.83 297.446Z" fill="black"/>
</g>
<path d="M15.44 115.184C12.9398 112.31 11.5696 108.624 11.5843 104.814C11.599 101.004 12.9977 97.3298 15.52 94.4744L23.4 85.9844L37.62 95.1244C37.17 95.4344 27.8 105.564 27.8 105.564L44.21 126.014C45.4637 127.56 46.3047 129.398 46.6545 131.356C47.0043 133.315 46.8514 135.331 46.21 137.214L43.4 148.654L29.73 142.564L30.64 141.164H39.64L40.17 139.004L15.44 115.184Z" fill="#FFBE9D"/>
<path d="M24.27 101.914C25.0985 102.42 25.8412 103.055 26.47 103.794C27.2273 104.414 27.8299 105.201 28.23 106.094C27.4391 105.542 26.7231 104.89 26.1 104.154C25.3473 103.536 24.7252 102.775 24.27 101.914V101.914Z" fill="#EB996E"/>
<path d="M55.81 134.444L58.49 83.1836H87.87L90.04 137.524L55.81 134.444Z" fill="#263238"/>
<path d="M83.73 96.4441C83.73 96.4441 83.51 96.6641 83.05 96.9841C82.4109 97.4343 81.7428 97.8418 81.05 98.2041C76.4147 100.668 71.1744 101.764 65.94 101.364C65.1542 101.3 64.3728 101.19 63.6 101.034C63.3093 101.004 63.0255 100.926 62.76 100.804C62.76 100.714 63.99 100.914 65.97 100.994C68.5355 101.089 71.1033 100.881 73.62 100.374C76.1326 99.851 78.5733 99.0284 80.89 97.9241C82.67 97.0241 83.73 96.3641 83.73 96.4441Z" fill="#455A64"/>
<path d="M63.18 103.943C63.03 103.943 62.89 103.613 62.87 103.213C62.85 102.813 62.94 102.473 63.08 102.443C63.22 102.413 63.36 102.753 63.39 103.173C63.42 103.593 63.32 103.943 63.18 103.943Z" fill="#455A64"/>
<path d="M62.38 109.575C62.24 109.575 62.23 108.914 62.38 108.134C62.53 107.354 62.74 106.744 62.88 106.774C63.02 106.804 63.03 107.445 62.88 108.215C62.73 108.985 62.52 109.595 62.38 109.575Z" fill="#455A64"/>
<path d="M63.08 115.134C62.96 115.214 62.52 114.684 62.3 113.884C62.08 113.084 62.16 112.424 62.3 112.414C62.44 112.404 62.6 113.014 62.8 113.744C63 114.474 63.21 115.064 63.08 115.134Z" fill="#455A64"/>
<path d="M67.86 117.674C67.86 117.814 67.2 117.924 66.39 117.774C65.58 117.624 65.02 117.214 65.09 117.084C65.16 116.954 65.75 117.134 66.49 117.264C67.23 117.394 67.86 117.524 67.86 117.674Z" fill="#455A64"/>
<path d="M73.55 117.623C73.55 117.763 72.91 117.893 72.13 117.903C71.35 117.913 70.7 117.803 70.7 117.663C70.7 117.523 71.34 117.394 72.12 117.384C72.9 117.374 73.55 117.473 73.55 117.623Z" fill="#455A64"/>
<path d="M79.24 117.536C79.24 117.686 78.61 117.816 77.82 117.826C77.03 117.836 76.4 117.726 76.39 117.586C76.38 117.446 77.03 117.316 77.82 117.306C78.61 117.296 79.24 117.366 79.24 117.536Z" fill="#455A64"/>
<path d="M83.87 114.976C83.99 114.976 83.92 115.716 83.37 116.376C82.82 117.036 82.07 117.176 82.03 117.046C81.99 116.916 82.51 116.586 82.97 116.046C83.43 115.506 83.73 114.926 83.87 114.976Z" fill="#455A64"/>
<path d="M84.91 109.363C85.05 109.363 85.07 110.033 84.96 110.813C84.85 111.593 84.63 112.203 84.49 112.173C84.35 112.143 84.32 111.503 84.44 110.733C84.56 109.963 84.73 109.363 84.91 109.363Z" fill="#455A64"/>
<path d="M85.48 103.727C85.62 103.727 85.68 104.377 85.62 105.167C85.56 105.957 85.38 106.577 85.24 106.557C85.1 106.537 85.04 105.897 85.1 105.117C85.16 104.337 85.33 103.717 85.48 103.727Z" fill="#455A64"/>
<path d="M85.66 99.3633C85.8 99.3633 85.91 99.7133 85.9 100.123C85.89 100.533 85.76 100.873 85.62 100.863C85.48 100.853 85.37 100.523 85.38 100.113C85.39 99.7033 85.51 99.3633 85.66 99.3633Z" fill="#455A64"/>
<path d="M49.45 53.9631C49.45 53.9631 61.35 57.0831 61.55 85.0331H66.34C66.34 85.0331 67.6 61.5631 54.65 52.3431C54.65 52.3631 50.91 51.4431 49.45 53.9631Z" fill="#263238"/>
<path d="M74.61 51.9761C74.61 51.9761 83.06 55.9761 83.27 83.9761H87.34C87.34 83.9761 87.69 57.8061 79.7 52.6461C78.9621 52.1463 78.1178 51.8255 77.2342 51.7092C76.3506 51.5929 75.4521 51.6843 74.61 51.9761V51.9761Z" fill="#263238"/>
<path d="M66.31 82.8945C66.5378 83.392 66.6375 83.9386 66.6 84.4845C66.6106 85.1043 66.4289 85.7122 66.08 86.2245C65.8371 86.5196 65.5316 86.7569 65.1857 86.9195C64.8398 87.0821 64.4622 87.1658 64.08 87.1645C63.692 87.2012 63.3009 87.1481 62.9367 87.0094C62.5726 86.8707 62.2452 86.65 61.98 86.3645C61.5931 85.8801 61.3722 85.2841 61.35 84.6645C61.2854 84.1229 61.3541 83.5736 61.55 83.0645C61.6443 83.5797 61.7012 84.1011 61.72 84.6245C61.7833 85.1513 61.9988 85.6482 62.34 86.0545C62.8224 86.4573 63.437 86.667 64.065 86.643C64.693 86.6189 65.2897 86.363 65.74 85.9245C66.0564 85.5006 66.2407 84.9927 66.27 84.4645C66.2416 83.941 66.2549 83.416 66.31 82.8945V82.8945Z" fill="#455A64"/>
<path d="M63.93 83.7258C63.93 83.6658 64.19 83.5058 64.56 83.7258C64.6658 83.8125 64.7466 83.9259 64.794 84.0542C64.8415 84.1825 64.8539 84.3211 64.83 84.4558C64.7977 84.6254 64.7139 84.781 64.5901 84.9013C64.4662 85.0217 64.3082 85.1009 64.1377 85.1282C63.9672 85.1555 63.7924 85.1296 63.6371 85.0541C63.4819 84.9785 63.3537 84.8569 63.27 84.7058C63.1974 84.5887 63.1589 84.4536 63.1589 84.3158C63.1589 84.178 63.1974 84.0429 63.27 83.9258C63.53 83.5558 63.86 83.6158 63.84 83.6758C63.82 83.7358 63.67 83.8458 63.59 84.0958C63.5723 84.1565 63.5685 84.2203 63.5788 84.2827C63.5892 84.345 63.6136 84.4042 63.65 84.4558C63.6944 84.5133 63.7523 84.5589 63.8186 84.5886C63.8849 84.6182 63.9575 84.631 64.03 84.6258C64.0998 84.6087 64.164 84.574 64.2165 84.5249C64.269 84.4759 64.3081 84.4142 64.33 84.3458C64.351 84.2856 64.3565 84.221 64.346 84.1581C64.3356 84.0952 64.3094 84.0359 64.27 83.9858C64.15 83.8258 63.93 83.7958 63.93 83.7258Z" fill="#455A64"/>
<path d="M87.43 82.875C87.49 82.875 87.72 83.355 87.67 84.235C87.6368 84.7576 87.4641 85.2618 87.17 85.695C86.9854 85.9684 86.7445 86.1991 86.4633 86.3716C86.1822 86.5441 85.8673 86.6544 85.54 86.695C85.2031 86.7444 84.8592 86.7039 84.543 86.5774C84.2269 86.451 83.9498 86.2431 83.74 85.975C83.4554 85.5721 83.2653 85.1102 83.184 84.6237C83.1026 84.1372 83.132 83.6386 83.27 83.165C83.36 83.165 83.38 83.685 83.54 84.465C83.6233 84.9056 83.8159 85.3181 84.1 85.665C84.266 85.8601 84.4787 86.0101 84.7182 86.101C84.9577 86.1919 85.2163 86.2208 85.47 86.185C85.7303 86.1445 85.98 86.053 86.2048 85.9157C86.4296 85.7784 86.6251 85.5981 86.78 85.385C87.047 85.0212 87.2251 84.6 87.3 84.155C87.44 83.365 87.35 82.885 87.43 82.875Z" fill="#455A64"/>
<path d="M85.16 83.5565C85.11 83.5565 85.29 83.2565 85.73 83.3165C85.8627 83.3401 85.9865 83.3989 86.0886 83.4869C86.1907 83.5749 86.2671 83.6888 86.31 83.8165C86.3645 83.9766 86.3689 84.1496 86.3224 84.3122C86.2759 84.4749 86.1809 84.6194 86.05 84.7265C85.9118 84.8266 85.7456 84.8804 85.575 84.8804C85.4044 84.8804 85.2382 84.8266 85.1 84.7265C84.9841 84.6539 84.892 84.5489 84.8352 84.4245C84.7783 84.3 84.7591 84.1617 84.78 84.0265C84.87 83.5765 85.2 83.5165 85.21 83.5765C85.22 83.6365 85.11 83.7965 85.15 84.0365C85.1545 84.0957 85.1744 84.1527 85.2077 84.2018C85.241 84.251 85.2866 84.2905 85.34 84.3165C85.3993 84.3508 85.4665 84.3688 85.535 84.3688C85.6034 84.3688 85.6707 84.3508 85.73 84.3165C85.7807 84.2686 85.8183 84.2086 85.8393 84.1421C85.8603 84.0756 85.864 84.0049 85.85 83.9365C85.8382 83.8758 85.8121 83.8186 85.7738 83.77C85.7356 83.7213 85.6863 83.6824 85.63 83.6565C85.4 83.5565 85.2 83.6165 85.16 83.5565Z" fill="#455A64"/>
<path d="M90.88 135.906L120.88 185.466C121.557 186.58 121.916 187.858 121.916 189.161C121.916 190.465 121.557 191.743 120.88 192.856L92.96 250.436L70.06 238.306L92.82 193.886C93.4383 192.71 93.7128 191.384 93.612 190.059C93.5112 188.735 93.0391 187.465 92.25 186.396L62.73 150.636L63.93 135.906H90.88Z" fill="#263238"/>
<path d="M43.68 129.336L29.19 294.226H53.14L73.52 154.296L73.2 134.446L43.68 129.336Z" fill="#263238"/>
<path d="M56.22 136.595C56.186 137.235 56.0009 137.859 55.68 138.415C54.9966 139.823 53.9287 141.008 52.5997 141.835C51.2707 142.661 49.735 143.095 48.17 143.085C47.5292 143.126 46.8878 143.013 46.3 142.755C46.3 142.665 47.02 142.755 48.16 142.755C49.6329 142.649 51.0592 142.193 52.32 141.425C53.5595 140.636 54.589 139.559 55.32 138.285C55.93 137.265 56.13 136.565 56.22 136.595Z" fill="#455A64"/>
<path d="M62.48 226.766C62.4909 226.49 62.5244 226.216 62.58 225.946L62.99 223.606C63.35 221.516 63.84 218.606 64.46 214.986C65.67 207.706 67.21 197.626 68.8 186.476C70.39 175.326 71.72 165.206 72.61 157.876C73.03 154.246 73.38 151.296 73.61 149.196C73.72 148.196 73.81 147.416 73.88 146.836C73.9068 146.56 73.9503 146.286 74.01 146.016C74.0344 146.292 74.0344 146.569 74.01 146.846C73.9567 147.439 73.8967 148.229 73.83 149.216C73.66 151.276 73.37 154.216 72.97 157.916C72.18 165.266 70.9 175.386 69.32 186.546C67.74 197.706 66.12 207.776 64.82 215.046C64.17 218.686 63.61 221.616 63.19 223.646C62.98 224.646 62.81 225.386 62.69 225.966C62.6399 226.237 62.5697 226.505 62.48 226.766V226.766Z" fill="#455A64"/>
<path d="M53.64 290.205C53.64 290.345 48.2 290.345 41.51 290.205C34.82 290.065 29.39 289.825 29.39 289.675C29.39 289.525 34.82 289.535 41.52 289.675C48.22 289.815 53.64 290.065 53.64 290.205Z" fill="#455A64"/>
<path d="M95.56 246.996C95.213 246.922 94.8769 246.805 94.56 246.646C93.92 246.396 93 246.006 91.88 245.496C89.64 244.496 86.58 242.976 83.29 241.136C80 239.296 77.13 237.476 75.09 236.136C74.09 235.446 73.25 234.866 72.7 234.456C72.15 234.046 71.85 233.796 71.88 233.766C72.2102 233.906 72.5252 234.081 72.82 234.286L75.29 235.826C77.37 237.126 80.29 238.896 83.55 240.726C86.81 242.556 89.84 244.106 92.04 245.206L94.65 246.506C94.9706 246.635 95.2757 246.799 95.56 246.996V246.996Z" fill="#455A64"/>
<path d="M51.3 289.164C51.44 289.164 51.52 289.524 51.48 289.934C51.44 290.344 51.28 290.674 51.14 290.654C51 290.634 50.92 290.294 50.96 289.884C51 289.474 51.16 289.154 51.3 289.164Z" fill="#455A64"/>
<path d="M51.95 283.204C52.09 283.204 52.13 283.904 52.04 284.724C51.95 285.544 51.77 286.204 51.62 286.184C51.47 286.164 51.44 285.484 51.53 284.664C51.62 283.844 51.81 283.184 51.95 283.204Z" fill="#455A64"/>
<path d="M52.61 277.247C52.76 277.247 52.8 277.947 52.71 278.767C52.62 279.587 52.42 280.247 52.28 280.227C52.14 280.207 52.1 279.527 52.19 278.707C52.28 277.887 52.47 277.227 52.61 277.247Z" fill="#455A64"/>
<path d="M53.3 271.285C53.44 271.285 53.48 271.985 53.39 272.805C53.3 273.625 53.1 274.285 52.95 274.265C52.8 274.245 52.77 273.565 52.87 272.745C52.97 271.925 53.16 271.275 53.3 271.285Z" fill="#455A64"/>
<path d="M54 265.363C54.15 265.363 54.18 266.063 54.08 266.883C53.98 267.703 53.79 268.353 53.65 268.343C53.51 268.333 53.47 267.643 53.57 266.823C53.67 266.003 53.86 265.363 54 265.363Z" fill="#455A64"/>
<path d="M54.73 259.363C54.88 259.363 54.91 260.063 54.81 260.883C54.71 261.703 54.51 262.363 54.37 262.343C54.23 262.323 54.19 261.643 54.29 260.823C54.39 260.003 54.58 259.363 54.73 259.363Z" fill="#455A64"/>
<path d="M55.46 253.426C55.61 253.426 55.64 254.126 55.54 254.946C55.44 255.766 55.23 256.426 55.09 256.406C54.95 256.386 54.92 255.706 55.02 254.886C55.12 254.066 55.32 253.416 55.46 253.426Z" fill="#455A64"/>
<path d="M56.22 247.485C56.36 247.485 56.39 248.175 56.29 249.005C56.19 249.835 55.98 250.475 55.84 250.455C55.7 250.435 55.67 249.755 55.77 248.935C55.87 248.115 56.08 247.465 56.22 247.485Z" fill="#455A64"/>
<path d="M57 241.536C57.14 241.536 57.17 242.236 57.06 243.056C56.95 243.876 56.75 244.526 56.61 244.506C56.47 244.486 56.44 243.806 56.54 242.986C56.64 242.166 56.85 241.516 57 241.536Z" fill="#455A64"/>
<path d="M57.79 235.594C57.93 235.594 57.96 236.294 57.85 237.114C57.74 237.934 57.53 238.584 57.39 238.564C57.25 238.544 57.22 237.864 57.33 237.044C57.44 236.224 57.65 235.574 57.79 235.594Z" fill="#455A64"/>
<path d="M58.6 229.657C58.75 229.657 58.77 230.357 58.66 231.177C58.55 231.997 58.34 232.647 58.2 232.627C58.06 232.607 58.03 231.927 58.14 231.107C58.25 230.287 58.46 229.637 58.6 229.657Z" fill="#455A64"/>
<path d="M59.44 223.715C59.58 223.715 59.6 224.415 59.44 225.235C59.28 226.055 59.12 226.705 58.98 226.685C58.84 226.665 58.81 225.985 58.98 225.165C59.15 224.345 59.29 223.695 59.44 223.715Z" fill="#455A64"/>
<path d="M60.29 217.774C60.43 217.774 60.45 218.474 60.29 219.294C60.13 220.114 59.96 220.764 59.82 220.744C59.68 220.724 59.66 220.044 59.82 219.224C59.98 218.404 60.14 217.754 60.29 217.774Z" fill="#455A64"/>
<path d="M61.15 211.844C61.3 211.844 61.31 212.544 61.15 213.364C60.99 214.184 60.82 214.834 60.68 214.804C60.54 214.774 60.52 214.104 60.68 213.284C60.84 212.464 61.01 211.824 61.15 211.844Z" fill="#455A64"/>
<path d="M62.04 205.915C62.18 205.915 62.2 206.615 62.04 207.435C61.88 208.255 61.71 208.895 61.56 208.875C61.41 208.855 61.41 208.175 61.56 207.355C61.71 206.535 61.9 205.895 62.04 205.915Z" fill="#455A64"/>
<path d="M62.94 199.985C63.09 199.985 63.1 200.685 62.94 201.505C62.78 202.325 62.6 202.965 62.46 202.945C62.32 202.925 62.3 202.245 62.46 201.425C62.62 200.605 62.8 199.965 62.94 199.985Z" fill="#455A64"/>
<path d="M63.87 194.055C64.01 194.055 64.02 194.765 63.87 195.585C63.72 196.405 63.52 197.045 63.38 197.025C63.24 197.005 63.23 196.315 63.38 195.505C63.53 194.695 63.73 194.035 63.87 194.055Z" fill="#455A64"/>
<path d="M64.81 188.133C64.95 188.133 64.96 188.843 64.81 189.653C64.66 190.463 64.46 191.123 64.31 191.093C64.16 191.063 64.16 190.393 64.31 189.573C64.46 188.753 64.67 188.113 64.81 188.133Z" fill="#455A64"/>
<path d="M65.73 182.215C65.87 182.215 65.88 182.925 65.73 183.735C65.58 184.545 65.38 185.205 65.23 185.175C65.08 185.145 65.09 184.475 65.23 183.655C65.37 182.835 65.62 182.195 65.73 182.215Z" fill="#455A64"/>
<path d="M66.73 176.306C66.88 176.306 66.88 177.006 66.73 177.826C66.58 178.646 66.37 179.286 66.23 179.256C66.09 179.226 66.09 178.556 66.23 177.736C66.37 176.916 66.6 176.276 66.73 176.306Z" fill="#455A64"/>
<path d="M67.73 170.363C67.87 170.363 67.87 171.073 67.73 171.893C67.59 172.713 67.36 173.343 67.22 173.323C67.08 173.303 67.07 172.623 67.22 171.803C67.37 170.983 67.6 170.363 67.73 170.363Z" fill="#455A64"/>
<path d="M68.73 164.473C68.87 164.473 68.87 165.183 68.73 165.993C68.59 166.803 68.36 167.453 68.21 167.433C68.06 167.413 68.07 166.723 68.21 165.913C68.35 165.103 68.61 164.453 68.73 164.473Z" fill="#455A64"/>
<path d="M69.94 158.595C70.08 158.595 70.05 159.315 69.88 160.115C69.71 160.915 69.45 161.555 69.3 161.525C69.15 161.495 69.19 160.825 69.37 160.005C69.55 159.185 69.8 158.565 69.94 158.595Z" fill="#455A64"/>
<path d="M71.73 152.864C71.86 152.914 71.73 153.584 71.49 154.364C71.25 155.144 70.9 155.744 70.77 155.704C70.64 155.664 70.77 154.984 71 154.194C71.23 153.404 71.54 152.804 71.73 152.864Z" fill="#455A64"/>
<path d="M73.57 148.785C73.7 148.865 73.65 149.215 73.45 149.575C73.25 149.935 73 150.175 72.88 150.115C72.76 150.055 72.8 149.705 72.99 149.335C73.18 148.965 73.45 148.715 73.57 148.785Z" fill="#455A64"/>
<path d="M75.73 234.947C75.85 235.027 75.73 235.367 75.53 235.717C75.33 236.067 75.02 236.277 74.9 236.197C74.78 236.117 74.9 235.777 75.09 235.427C75.28 235.077 75.61 234.867 75.73 234.947Z" fill="#455A64"/>
<path d="M78.99 229.915C79.11 229.995 78.85 230.615 78.4 231.315C77.95 232.015 77.49 232.515 77.4 232.435C77.31 232.355 77.54 231.725 77.99 231.035C78.44 230.345 78.87 229.835 78.99 229.915Z" fill="#455A64"/>
<path d="M82.19 224.837C82.31 224.917 82.05 225.547 81.61 226.247C81.17 226.947 80.72 227.457 80.61 227.377C80.5 227.297 80.74 226.677 81.18 225.967C81.62 225.257 82.06 224.757 82.19 224.837Z" fill="#455A64"/>
<path d="M85.3 219.715C85.43 219.785 85.18 220.415 84.75 221.125C84.32 221.835 83.88 222.355 83.75 222.275C83.62 222.195 83.88 221.565 84.31 220.855C84.74 220.145 85.18 219.635 85.3 219.715Z" fill="#455A64"/>
<path d="M88.35 214.543C88.47 214.613 88.23 215.253 87.82 215.963C87.41 216.673 86.96 217.203 86.82 217.133C86.68 217.063 86.93 216.413 87.35 215.703C87.77 214.993 88.22 214.463 88.35 214.543Z" fill="#455A64"/>
<path d="M91.32 209.365C91.44 209.435 91.21 210.075 90.8 210.805C90.39 211.535 89.97 212.055 89.8 211.975C89.63 211.895 89.9 211.265 90.31 210.545C90.72 209.825 91.19 209.255 91.32 209.365Z" fill="#455A64"/>
<path d="M94.21 204.076C94.33 204.136 94.11 204.786 93.72 205.516C93.33 206.246 92.9 206.776 92.77 206.706C92.64 206.636 92.86 205.986 93.26 205.266C93.66 204.546 94.08 204.006 94.21 204.076Z" fill="#455A64"/>
<path d="M97.02 198.776C97.15 198.836 96.94 199.486 96.55 200.226C96.16 200.966 95.75 201.496 95.62 201.426C95.49 201.356 95.71 200.716 96.09 199.976C96.47 199.236 96.89 198.706 97.02 198.776Z" fill="#455A64"/>
<path d="M99.26 193.224C99.4 193.224 99.37 193.944 99.09 194.744C98.81 195.544 98.44 196.124 98.31 196.064C98.18 196.004 98.31 195.354 98.6 194.574C98.89 193.794 99.11 193.194 99.26 193.224Z" fill="#455A64"/>
<path d="M98.78 187.364C98.91 187.304 99.31 187.884 99.52 188.714C99.73 189.544 99.63 190.254 99.52 190.264C99.41 190.274 99.23 189.624 99.03 188.844C98.83 188.064 98.65 187.364 98.78 187.364Z" fill="#455A64"/>
<path d="M95.37 182.434C95.47 182.344 95.99 182.784 96.52 183.434C97.05 184.084 97.38 184.684 97.26 184.764C97.14 184.844 96.63 184.404 96.11 183.764C95.59 183.124 95.26 182.534 95.37 182.434Z" fill="#455A64"/>
<path d="M91.39 177.944C91.5 177.844 92.03 178.274 92.58 178.894C93.13 179.514 93.49 180.094 93.38 180.194C93.27 180.294 92.74 179.864 92.19 179.194C91.64 178.524 91.28 178.044 91.39 177.944Z" fill="#455A64"/>
<path d="M87.41 173.456C87.52 173.356 88.05 173.786 88.6 174.406C89.15 175.026 89.51 175.606 89.4 175.706C89.29 175.806 88.76 175.376 88.21 174.706C87.66 174.036 87.3 173.556 87.41 173.456Z" fill="#455A64"/>
<path d="M83.43 168.964C83.54 168.864 84.07 169.294 84.62 169.964C85.17 170.634 85.53 171.164 85.42 171.264C85.31 171.364 84.78 170.934 84.23 170.314C83.68 169.694 83.33 169.064 83.43 168.964Z" fill="#455A64"/>
<path d="M79.46 164.475C79.56 164.375 80.1 164.805 80.65 165.425C81.2 166.045 81.55 166.625 81.45 166.715C81.35 166.805 80.81 166.385 80.26 165.765C79.71 165.145 79.35 164.565 79.46 164.475Z" fill="#455A64"/>
<path d="M75.48 159.983C75.59 159.883 76.12 160.313 76.67 160.933C77.22 161.553 77.58 162.133 77.47 162.223C77.36 162.313 76.83 161.893 76.28 161.223C75.73 160.553 75.37 160.073 75.48 159.983Z" fill="#455A64"/>
<path d="M72.5 156.614C72.61 156.524 72.92 156.694 73.19 157.004C73.46 157.314 73.6 157.644 73.49 157.744C73.38 157.844 73.07 157.664 72.8 157.354C72.53 157.044 72.39 156.714 72.5 156.614Z" fill="#455A64"/>
<path d="M88.53 133.156C88.7153 133.364 88.8857 133.585 89.04 133.816L90.41 135.746C91.59 137.446 93.26 139.916 95.26 143.016C99.26 149.186 104.5 157.946 110.49 167.466C113.49 172.226 116.49 176.666 119.24 180.676C120.674 182.541 121.697 184.688 122.24 186.976C122.424 188.03 122.445 189.106 122.3 190.166C122.139 191.132 121.874 192.077 121.51 192.986C120.836 194.508 120.04 195.973 119.13 197.366L117.13 200.546L115.89 202.546C115.76 202.792 115.609 203.026 115.44 203.246C115.542 202.988 115.662 202.737 115.8 202.496C116.05 202.006 116.44 201.316 116.96 200.416L118.88 197.196C119.744 195.791 120.496 194.32 121.13 192.796C121.467 191.907 121.712 190.986 121.86 190.046C121.983 189.031 121.956 188.004 121.78 186.996C121.24 184.777 120.242 182.696 118.85 180.886C116.04 176.886 113.04 172.446 110.05 167.686C104.05 158.156 98.9 149.376 94.95 143.146C92.95 140.026 91.37 137.526 90.24 135.796L88.95 133.796C88.7901 133.597 88.6495 133.382 88.53 133.156V133.156Z" fill="#455A64"/>
</svg>
