<svg width="37" height="36" viewBox="0 0 37 36" fill="none" xmlns="http://www.w3.org/2000/svg">
<path d="M35.5066 16.3762L28.3066 22.589L30.5002 31.8802C30.6213 32.3846 30.5901 32.9135 30.4107 33.4002C30.2312 33.8868 29.9116 34.3094 29.4921 34.6145C29.0727 34.9196 28.5722 35.0936 28.0539 35.1144C27.5356 35.1352 27.0228 35.0019 26.5802 34.7314L18.5002 29.7586L10.4154 34.7314C9.97292 35.0003 9.46072 35.1323 8.94333 35.1108C8.42595 35.0892 7.92651 34.915 7.50792 34.6102C7.08932 34.3054 6.77027 33.8835 6.59096 33.3977C6.41165 32.9119 6.38008 32.3839 6.50023 31.8802L8.70183 22.589L1.50183 16.3762C1.11031 16.0378 0.827152 15.5916 0.687724 15.0932C0.548296 14.5949 0.558777 14.0665 0.717856 13.5741C0.876936 13.0816 1.17756 12.647 1.5822 12.3244C1.98683 12.0018 2.47754 11.8056 2.99303 11.7602L12.433 10.9986L16.0746 2.18579C16.2717 1.7055 16.6072 1.29467 17.0384 1.00553C17.4696 0.716394 17.9771 0.562012 18.4962 0.562012C19.0154 0.562012 19.5228 0.716394 19.954 1.00553C20.3852 1.29467 20.7207 1.7055 20.9178 2.18579L24.5578 10.9986L33.9978 11.7602C34.5144 11.8039 35.0065 11.999 35.4126 12.3212C35.8187 12.6433 36.1207 13.0781 36.2808 13.5712C36.4408 14.0642 36.4519 14.5935 36.3125 15.0927C36.173 15.592 35.8894 16.039 35.497 16.3778L35.5066 16.3762Z" fill="#FFA412"/>
</svg>
